%TF.GenerationSoftware,KiCad,Pcbnew,10.0.0*%
%TF.CreationDate,2026-07-12T02:42:34+05:30*%
%TF.ProjectId,water monitor,77617465-7220-46d6-9f6e-69746f722e6b,rev?*%
%TF.SameCoordinates,Original*%
%TF.FileFunction,Drillmap*%
%TF.FilePolarity,Positive*%
%FSLAX45Y45*%
G04 Gerber Fmt 4.5, Leading zero omitted, Abs format (unit mm)*
G04 Created by KiCad (PCBNEW 10.0.0) date 2026-07-12 02:42:34*
%MOMM*%
%LPD*%
G01*
G04 APERTURE LIST*
%ADD10C,0.050000*%
%ADD11C,0.200000*%
%ADD12C,0.100000*%
%ADD13C,0.110000*%
G04 APERTURE END LIST*
D10*
X10873000Y-8492500D02*
X15755500Y-8492500D01*
X10873000Y-13835000D02*
X10873000Y-8492500D01*
X15755500Y-8492500D02*
X15755500Y-13835000D01*
X15755500Y-13835000D02*
X10873000Y-13835000D01*
D11*
D12*
X13077500Y-11448750D02*
X13097500Y-11468750D01*
X13097500Y-11448750D02*
X13077500Y-11468750D01*
X13077500Y-11601250D02*
X13097500Y-11621250D01*
X13097500Y-11601250D02*
X13077500Y-11621250D01*
X13153750Y-11372500D02*
X13173750Y-11392500D01*
X13173750Y-11372500D02*
X13153750Y-11392500D01*
X13153750Y-11525000D02*
X13173750Y-11545000D01*
X13173750Y-11525000D02*
X13153750Y-11545000D01*
X13153750Y-11677500D02*
X13173750Y-11697500D01*
X13173750Y-11677500D02*
X13153750Y-11697500D01*
X13230000Y-11448750D02*
X13250000Y-11468750D01*
X13250000Y-11448750D02*
X13230000Y-11468750D01*
X13230000Y-11601250D02*
X13250000Y-11621250D01*
X13250000Y-11601250D02*
X13230000Y-11621250D01*
X13306250Y-11372500D02*
X13326250Y-11392500D01*
X13326250Y-11372500D02*
X13306250Y-11392500D01*
X13306250Y-11525000D02*
X13326250Y-11545000D01*
X13326250Y-11525000D02*
X13306250Y-11545000D01*
X13306250Y-11677500D02*
X13326250Y-11697500D01*
X13326250Y-11677500D02*
X13306250Y-11697500D01*
X13382500Y-11448750D02*
X13402500Y-11468750D01*
X13402500Y-11448750D02*
X13382500Y-11468750D01*
X13382500Y-11601250D02*
X13402500Y-11621250D01*
X13402500Y-11601250D02*
X13382500Y-11621250D01*
X11401340Y-12407650D02*
G75*
G02*
X11371340Y-12407650I-15000J0D01*
G01*
X11371340Y-12407650D02*
G75*
G02*
X11401340Y-12407650I15000J0D01*
G01*
X12322330Y-11542500D02*
G75*
G02*
X12292330Y-11542500I-15000J0D01*
G01*
X12292330Y-11542500D02*
G75*
G02*
X12322330Y-11542500I15000J0D01*
G01*
X12672030Y-12327500D02*
G75*
G02*
X12642030Y-12327500I-15000J0D01*
G01*
X12642030Y-12327500D02*
G75*
G02*
X12672030Y-12327500I15000J0D01*
G01*
X12752540Y-12206440D02*
G75*
G02*
X12722540Y-12206440I-15000J0D01*
G01*
X12722540Y-12206440D02*
G75*
G02*
X12752540Y-12206440I15000J0D01*
G01*
X12780500Y-12981490D02*
G75*
G02*
X12750500Y-12981490I-15000J0D01*
G01*
X12750500Y-12981490D02*
G75*
G02*
X12780500Y-12981490I15000J0D01*
G01*
X13906100Y-11610600D02*
G75*
G02*
X13876100Y-11610600I-15000J0D01*
G01*
X13876100Y-11610600D02*
G75*
G02*
X13906100Y-11610600I15000J0D01*
G01*
X13969780Y-13328260D02*
G75*
G02*
X13939780Y-13328260I-15000J0D01*
G01*
X13939780Y-13328260D02*
G75*
G02*
X13969780Y-13328260I15000J0D01*
G01*
X14071820Y-11182000D02*
G75*
G02*
X14041820Y-11182000I-15000J0D01*
G01*
X14041820Y-11182000D02*
G75*
G02*
X14071820Y-11182000I15000J0D01*
G01*
X14353300Y-11088030D02*
G75*
G02*
X14323300Y-11088030I-15000J0D01*
G01*
X14323300Y-11088030D02*
G75*
G02*
X14353300Y-11088030I15000J0D01*
G01*
X14467370Y-12488860D02*
G75*
G02*
X14437370Y-12488860I-15000J0D01*
G01*
X14437370Y-12488860D02*
G75*
G02*
X14467370Y-12488860I15000J0D01*
G01*
X15076700Y-11217610D02*
G75*
G02*
X15046700Y-11217610I-15000J0D01*
G01*
X15046700Y-11217610D02*
G75*
G02*
X15076700Y-11217610I15000J0D01*
G01*
X15229250Y-11342610D02*
G75*
G02*
X15199250Y-11342610I-15000J0D01*
G01*
X15199250Y-11342610D02*
G75*
G02*
X15229250Y-11342610I15000J0D01*
G01*
X15263140Y-11631140D02*
G75*
G02*
X15233140Y-11631140I-15000J0D01*
G01*
X15233140Y-11631140D02*
G75*
G02*
X15263140Y-11631140I15000J0D01*
G01*
X15411750Y-11338080D02*
G75*
G02*
X15381750Y-11338080I-15000J0D01*
G01*
X15381750Y-11338080D02*
G75*
G02*
X15411750Y-11338080I15000J0D01*
G01*
X12458500Y-12899500D02*
X12458500Y-12959500D01*
X12428500Y-12929500D02*
X12488500Y-12929500D01*
X12428500Y-12874500D02*
X12428500Y-12984500D01*
X12488500Y-12984500D02*
G75*
G02*
X12428500Y-12984500I-30000J0D01*
G01*
X12488500Y-12984500D02*
X12488500Y-12874500D01*
X12488500Y-12874500D02*
G75*
G03*
X12428500Y-12874500I-30000J0D01*
G01*
X12458500Y-13317500D02*
X12458500Y-13377500D01*
X12428500Y-13347500D02*
X12488500Y-13347500D01*
X12428500Y-13307500D02*
X12428500Y-13387500D01*
X12488500Y-13387500D02*
G75*
G02*
X12428500Y-13387500I-30000J0D01*
G01*
X12488500Y-13387500D02*
X12488500Y-13307500D01*
X12488500Y-13307500D02*
G75*
G03*
X12428500Y-13307500I-30000J0D01*
G01*
X13322500Y-12899500D02*
X13322500Y-12959500D01*
X13292500Y-12929500D02*
X13352500Y-12929500D01*
X13292500Y-12874500D02*
X13292500Y-12984500D01*
X13352500Y-12984500D02*
G75*
G02*
X13292500Y-12984500I-30000J0D01*
G01*
X13352500Y-12984500D02*
X13352500Y-12874500D01*
X13352500Y-12874500D02*
G75*
G03*
X13292500Y-12874500I-30000J0D01*
G01*
X13322500Y-13317500D02*
X13322500Y-13377500D01*
X13292500Y-13347500D02*
X13352500Y-13347500D01*
X13292500Y-13307500D02*
X13292500Y-13387500D01*
X13352500Y-13387500D02*
G75*
G02*
X13292500Y-13387500I-30000J0D01*
G01*
X13352500Y-13387500D02*
X13352500Y-13307500D01*
X13352500Y-13307500D02*
G75*
G03*
X13292500Y-13307500I-30000J0D01*
G01*
X11313356Y-11076356D02*
X11313356Y-11005644D01*
X11242644Y-11005644D01*
X11242644Y-11076356D01*
X11313356Y-11076356D01*
X11313356Y-11330356D02*
X11313356Y-11259644D01*
X11242644Y-11259644D01*
X11242644Y-11330356D01*
X11313356Y-11330356D01*
X11313356Y-11584356D02*
X11313356Y-11513644D01*
X11242644Y-11513644D01*
X11242644Y-11584356D01*
X11313356Y-11584356D01*
X11728356Y-11076356D02*
X11728356Y-11005644D01*
X11657644Y-11005644D01*
X11657644Y-11076356D01*
X11728356Y-11076356D01*
X11728356Y-11330356D02*
X11728356Y-11259644D01*
X11657644Y-11259644D01*
X11657644Y-11330356D01*
X11728356Y-11330356D01*
X11728356Y-11584356D02*
X11728356Y-11513644D01*
X11657644Y-11513644D01*
X11657644Y-11584356D01*
X11728356Y-11584356D01*
X12133356Y-11078856D02*
X12133356Y-11008144D01*
X12062644Y-11008144D01*
X12062644Y-11078856D01*
X12133356Y-11078856D01*
X12133356Y-11332856D02*
X12133356Y-11262144D01*
X12062644Y-11262144D01*
X12062644Y-11332856D01*
X12133356Y-11332856D01*
X12133356Y-11586856D02*
X12133356Y-11516144D01*
X12062644Y-11516144D01*
X12062644Y-11586856D01*
X12133356Y-11586856D01*
X12133356Y-11840856D02*
X12133356Y-11770144D01*
X12062644Y-11770144D01*
X12062644Y-11840856D01*
X12133356Y-11840856D01*
X12133356Y-12094856D02*
X12133356Y-12024144D01*
X12062644Y-12024144D01*
X12062644Y-12094856D01*
X12133356Y-12094856D01*
X12133356Y-12348856D02*
X12133356Y-12278144D01*
X12062644Y-12278144D01*
X12062644Y-12348856D01*
X12133356Y-12348856D01*
X14908356Y-12362856D02*
X14908356Y-12292144D01*
X14837644Y-12292144D01*
X14837644Y-12362856D01*
X14908356Y-12362856D01*
X14910856Y-11062856D02*
X14910856Y-10992144D01*
X14840144Y-10992144D01*
X14840144Y-11062856D01*
X14910856Y-11062856D01*
X14910856Y-11316856D02*
X14910856Y-11246144D01*
X14840144Y-11246144D01*
X14840144Y-11316856D01*
X14910856Y-11316856D01*
X14910856Y-11570856D02*
X14910856Y-11500144D01*
X14840144Y-11500144D01*
X14840144Y-11570856D01*
X14910856Y-11570856D01*
X14910856Y-11824856D02*
X14910856Y-11754144D01*
X14840144Y-11754144D01*
X14840144Y-11824856D01*
X14910856Y-11824856D01*
X15162356Y-12362856D02*
X15162356Y-12292144D01*
X15091644Y-12292144D01*
X15091644Y-12362856D01*
X15162356Y-12362856D01*
X15416356Y-12362856D02*
X15416356Y-12292144D01*
X15345644Y-12292144D01*
X15345644Y-12362856D01*
X15416356Y-12362856D01*
D13*
X11393000Y-12995000D02*
X11448000Y-12940000D01*
X11393000Y-12885000D01*
X11338000Y-12940000D01*
X11393000Y-12995000D01*
X11393000Y-13445000D02*
X11448000Y-13390000D01*
X11393000Y-13335000D01*
X11338000Y-13390000D01*
X11393000Y-13445000D01*
X12043000Y-12995000D02*
X12098000Y-12940000D01*
X12043000Y-12885000D01*
X11988000Y-12940000D01*
X12043000Y-12995000D01*
X12043000Y-13445000D02*
X12098000Y-13390000D01*
X12043000Y-13335000D01*
X11988000Y-13390000D01*
X12043000Y-13445000D01*
X14863000Y-12975000D02*
X14918000Y-12920000D01*
X14863000Y-12865000D01*
X14808000Y-12920000D01*
X14863000Y-12975000D01*
X14863000Y-13425000D02*
X14918000Y-13370000D01*
X14863000Y-13315000D01*
X14808000Y-13370000D01*
X14863000Y-13425000D01*
X15513000Y-12975000D02*
X15568000Y-12920000D01*
X15513000Y-12865000D01*
X15458000Y-12920000D01*
X15513000Y-12975000D01*
X15513000Y-13425000D02*
X15568000Y-13370000D01*
X15513000Y-13315000D01*
X15458000Y-13370000D01*
X15513000Y-13425000D01*
D11*
X11131277Y-14148984D02*
X11131277Y-13948984D01*
X11131277Y-13948984D02*
X11178896Y-13948984D01*
X11178896Y-13948984D02*
X11207467Y-13958508D01*
X11207467Y-13958508D02*
X11226515Y-13977555D01*
X11226515Y-13977555D02*
X11236039Y-13996603D01*
X11236039Y-13996603D02*
X11245562Y-14034698D01*
X11245562Y-14034698D02*
X11245562Y-14063269D01*
X11245562Y-14063269D02*
X11236039Y-14101365D01*
X11236039Y-14101365D02*
X11226515Y-14120412D01*
X11226515Y-14120412D02*
X11207467Y-14139460D01*
X11207467Y-14139460D02*
X11178896Y-14148984D01*
X11178896Y-14148984D02*
X11131277Y-14148984D01*
X11331277Y-14148984D02*
X11331277Y-14015650D01*
X11331277Y-14053746D02*
X11340801Y-14034698D01*
X11340801Y-14034698D02*
X11350324Y-14025174D01*
X11350324Y-14025174D02*
X11369372Y-14015650D01*
X11369372Y-14015650D02*
X11388420Y-14015650D01*
X11455086Y-14148984D02*
X11455086Y-14015650D01*
X11455086Y-13948984D02*
X11445562Y-13958508D01*
X11445562Y-13958508D02*
X11455086Y-13968031D01*
X11455086Y-13968031D02*
X11464610Y-13958508D01*
X11464610Y-13958508D02*
X11455086Y-13948984D01*
X11455086Y-13948984D02*
X11455086Y-13968031D01*
X11578896Y-14148984D02*
X11559848Y-14139460D01*
X11559848Y-14139460D02*
X11550324Y-14120412D01*
X11550324Y-14120412D02*
X11550324Y-13948984D01*
X11683658Y-14148984D02*
X11664610Y-14139460D01*
X11664610Y-14139460D02*
X11655086Y-14120412D01*
X11655086Y-14120412D02*
X11655086Y-13948984D01*
X11912229Y-14148984D02*
X11912229Y-13948984D01*
X11912229Y-13948984D02*
X11978896Y-14091841D01*
X11978896Y-14091841D02*
X12045562Y-13948984D01*
X12045562Y-13948984D02*
X12045562Y-14148984D01*
X12226515Y-14148984D02*
X12226515Y-14044222D01*
X12226515Y-14044222D02*
X12216991Y-14025174D01*
X12216991Y-14025174D02*
X12197943Y-14015650D01*
X12197943Y-14015650D02*
X12159848Y-14015650D01*
X12159848Y-14015650D02*
X12140801Y-14025174D01*
X12226515Y-14139460D02*
X12207467Y-14148984D01*
X12207467Y-14148984D02*
X12159848Y-14148984D01*
X12159848Y-14148984D02*
X12140801Y-14139460D01*
X12140801Y-14139460D02*
X12131277Y-14120412D01*
X12131277Y-14120412D02*
X12131277Y-14101365D01*
X12131277Y-14101365D02*
X12140801Y-14082317D01*
X12140801Y-14082317D02*
X12159848Y-14072793D01*
X12159848Y-14072793D02*
X12207467Y-14072793D01*
X12207467Y-14072793D02*
X12226515Y-14063269D01*
X12321753Y-14015650D02*
X12321753Y-14215650D01*
X12321753Y-14025174D02*
X12340801Y-14015650D01*
X12340801Y-14015650D02*
X12378896Y-14015650D01*
X12378896Y-14015650D02*
X12397943Y-14025174D01*
X12397943Y-14025174D02*
X12407467Y-14034698D01*
X12407467Y-14034698D02*
X12416991Y-14053746D01*
X12416991Y-14053746D02*
X12416991Y-14110888D01*
X12416991Y-14110888D02*
X12407467Y-14129936D01*
X12407467Y-14129936D02*
X12397943Y-14139460D01*
X12397943Y-14139460D02*
X12378896Y-14148984D01*
X12378896Y-14148984D02*
X12340801Y-14148984D01*
X12340801Y-14148984D02*
X12321753Y-14139460D01*
X12502705Y-14129936D02*
X12512229Y-14139460D01*
X12512229Y-14139460D02*
X12502705Y-14148984D01*
X12502705Y-14148984D02*
X12493182Y-14139460D01*
X12493182Y-14139460D02*
X12502705Y-14129936D01*
X12502705Y-14129936D02*
X12502705Y-14148984D01*
X12502705Y-14025174D02*
X12512229Y-14034698D01*
X12512229Y-14034698D02*
X12502705Y-14044222D01*
X12502705Y-14044222D02*
X12493182Y-14034698D01*
X12493182Y-14034698D02*
X12502705Y-14025174D01*
X12502705Y-14025174D02*
X12502705Y-14044222D01*
D12*
X10850500Y-14467500D02*
X10870500Y-14487500D01*
X10870500Y-14467500D02*
X10850500Y-14487500D01*
D11*
X11169372Y-14368984D02*
X11188420Y-14368984D01*
X11188420Y-14368984D02*
X11207467Y-14378508D01*
X11207467Y-14378508D02*
X11216991Y-14388031D01*
X11216991Y-14388031D02*
X11226515Y-14407079D01*
X11226515Y-14407079D02*
X11236039Y-14445174D01*
X11236039Y-14445174D02*
X11236039Y-14492793D01*
X11236039Y-14492793D02*
X11226515Y-14530888D01*
X11226515Y-14530888D02*
X11216991Y-14549936D01*
X11216991Y-14549936D02*
X11207467Y-14559460D01*
X11207467Y-14559460D02*
X11188420Y-14568984D01*
X11188420Y-14568984D02*
X11169372Y-14568984D01*
X11169372Y-14568984D02*
X11150324Y-14559460D01*
X11150324Y-14559460D02*
X11140801Y-14549936D01*
X11140801Y-14549936D02*
X11131277Y-14530888D01*
X11131277Y-14530888D02*
X11121753Y-14492793D01*
X11121753Y-14492793D02*
X11121753Y-14445174D01*
X11121753Y-14445174D02*
X11131277Y-14407079D01*
X11131277Y-14407079D02*
X11140801Y-14388031D01*
X11140801Y-14388031D02*
X11150324Y-14378508D01*
X11150324Y-14378508D02*
X11169372Y-14368984D01*
X11321753Y-14549936D02*
X11331277Y-14559460D01*
X11331277Y-14559460D02*
X11321753Y-14568984D01*
X11321753Y-14568984D02*
X11312229Y-14559460D01*
X11312229Y-14559460D02*
X11321753Y-14549936D01*
X11321753Y-14549936D02*
X11321753Y-14568984D01*
X11407467Y-14388031D02*
X11416991Y-14378508D01*
X11416991Y-14378508D02*
X11436039Y-14368984D01*
X11436039Y-14368984D02*
X11483658Y-14368984D01*
X11483658Y-14368984D02*
X11502705Y-14378508D01*
X11502705Y-14378508D02*
X11512229Y-14388031D01*
X11512229Y-14388031D02*
X11521753Y-14407079D01*
X11521753Y-14407079D02*
X11521753Y-14426127D01*
X11521753Y-14426127D02*
X11512229Y-14454698D01*
X11512229Y-14454698D02*
X11397943Y-14568984D01*
X11397943Y-14568984D02*
X11521753Y-14568984D01*
X11645562Y-14368984D02*
X11664610Y-14368984D01*
X11664610Y-14368984D02*
X11683658Y-14378508D01*
X11683658Y-14378508D02*
X11693182Y-14388031D01*
X11693182Y-14388031D02*
X11702705Y-14407079D01*
X11702705Y-14407079D02*
X11712229Y-14445174D01*
X11712229Y-14445174D02*
X11712229Y-14492793D01*
X11712229Y-14492793D02*
X11702705Y-14530888D01*
X11702705Y-14530888D02*
X11693182Y-14549936D01*
X11693182Y-14549936D02*
X11683658Y-14559460D01*
X11683658Y-14559460D02*
X11664610Y-14568984D01*
X11664610Y-14568984D02*
X11645562Y-14568984D01*
X11645562Y-14568984D02*
X11626515Y-14559460D01*
X11626515Y-14559460D02*
X11616991Y-14549936D01*
X11616991Y-14549936D02*
X11607467Y-14530888D01*
X11607467Y-14530888D02*
X11597943Y-14492793D01*
X11597943Y-14492793D02*
X11597943Y-14445174D01*
X11597943Y-14445174D02*
X11607467Y-14407079D01*
X11607467Y-14407079D02*
X11616991Y-14388031D01*
X11616991Y-14388031D02*
X11626515Y-14378508D01*
X11626515Y-14378508D02*
X11645562Y-14368984D01*
X11836039Y-14368984D02*
X11855086Y-14368984D01*
X11855086Y-14368984D02*
X11874134Y-14378508D01*
X11874134Y-14378508D02*
X11883658Y-14388031D01*
X11883658Y-14388031D02*
X11893182Y-14407079D01*
X11893182Y-14407079D02*
X11902705Y-14445174D01*
X11902705Y-14445174D02*
X11902705Y-14492793D01*
X11902705Y-14492793D02*
X11893182Y-14530888D01*
X11893182Y-14530888D02*
X11883658Y-14549936D01*
X11883658Y-14549936D02*
X11874134Y-14559460D01*
X11874134Y-14559460D02*
X11855086Y-14568984D01*
X11855086Y-14568984D02*
X11836039Y-14568984D01*
X11836039Y-14568984D02*
X11816991Y-14559460D01*
X11816991Y-14559460D02*
X11807467Y-14549936D01*
X11807467Y-14549936D02*
X11797943Y-14530888D01*
X11797943Y-14530888D02*
X11788420Y-14492793D01*
X11788420Y-14492793D02*
X11788420Y-14445174D01*
X11788420Y-14445174D02*
X11797943Y-14407079D01*
X11797943Y-14407079D02*
X11807467Y-14388031D01*
X11807467Y-14388031D02*
X11816991Y-14378508D01*
X11816991Y-14378508D02*
X11836039Y-14368984D01*
X11988420Y-14568984D02*
X11988420Y-14435650D01*
X11988420Y-14454698D02*
X11997943Y-14445174D01*
X11997943Y-14445174D02*
X12016991Y-14435650D01*
X12016991Y-14435650D02*
X12045563Y-14435650D01*
X12045563Y-14435650D02*
X12064610Y-14445174D01*
X12064610Y-14445174D02*
X12074134Y-14464222D01*
X12074134Y-14464222D02*
X12074134Y-14568984D01*
X12074134Y-14464222D02*
X12083658Y-14445174D01*
X12083658Y-14445174D02*
X12102705Y-14435650D01*
X12102705Y-14435650D02*
X12131277Y-14435650D01*
X12131277Y-14435650D02*
X12150324Y-14445174D01*
X12150324Y-14445174D02*
X12159848Y-14464222D01*
X12159848Y-14464222D02*
X12159848Y-14568984D01*
X12255086Y-14568984D02*
X12255086Y-14435650D01*
X12255086Y-14454698D02*
X12264610Y-14445174D01*
X12264610Y-14445174D02*
X12283658Y-14435650D01*
X12283658Y-14435650D02*
X12312229Y-14435650D01*
X12312229Y-14435650D02*
X12331277Y-14445174D01*
X12331277Y-14445174D02*
X12340801Y-14464222D01*
X12340801Y-14464222D02*
X12340801Y-14568984D01*
X12340801Y-14464222D02*
X12350324Y-14445174D01*
X12350324Y-14445174D02*
X12369372Y-14435650D01*
X12369372Y-14435650D02*
X12397943Y-14435650D01*
X12397943Y-14435650D02*
X12416991Y-14445174D01*
X12416991Y-14445174D02*
X12426515Y-14464222D01*
X12426515Y-14464222D02*
X12426515Y-14568984D01*
X12816991Y-14359460D02*
X12645563Y-14616603D01*
X13074134Y-14368984D02*
X13093182Y-14368984D01*
X13093182Y-14368984D02*
X13112229Y-14378508D01*
X13112229Y-14378508D02*
X13121753Y-14388031D01*
X13121753Y-14388031D02*
X13131277Y-14407079D01*
X13131277Y-14407079D02*
X13140801Y-14445174D01*
X13140801Y-14445174D02*
X13140801Y-14492793D01*
X13140801Y-14492793D02*
X13131277Y-14530888D01*
X13131277Y-14530888D02*
X13121753Y-14549936D01*
X13121753Y-14549936D02*
X13112229Y-14559460D01*
X13112229Y-14559460D02*
X13093182Y-14568984D01*
X13093182Y-14568984D02*
X13074134Y-14568984D01*
X13074134Y-14568984D02*
X13055086Y-14559460D01*
X13055086Y-14559460D02*
X13045563Y-14549936D01*
X13045563Y-14549936D02*
X13036039Y-14530888D01*
X13036039Y-14530888D02*
X13026515Y-14492793D01*
X13026515Y-14492793D02*
X13026515Y-14445174D01*
X13026515Y-14445174D02*
X13036039Y-14407079D01*
X13036039Y-14407079D02*
X13045563Y-14388031D01*
X13045563Y-14388031D02*
X13055086Y-14378508D01*
X13055086Y-14378508D02*
X13074134Y-14368984D01*
X13226515Y-14549936D02*
X13236039Y-14559460D01*
X13236039Y-14559460D02*
X13226515Y-14568984D01*
X13226515Y-14568984D02*
X13216991Y-14559460D01*
X13216991Y-14559460D02*
X13226515Y-14549936D01*
X13226515Y-14549936D02*
X13226515Y-14568984D01*
X13359848Y-14368984D02*
X13378896Y-14368984D01*
X13378896Y-14368984D02*
X13397944Y-14378508D01*
X13397944Y-14378508D02*
X13407467Y-14388031D01*
X13407467Y-14388031D02*
X13416991Y-14407079D01*
X13416991Y-14407079D02*
X13426515Y-14445174D01*
X13426515Y-14445174D02*
X13426515Y-14492793D01*
X13426515Y-14492793D02*
X13416991Y-14530888D01*
X13416991Y-14530888D02*
X13407467Y-14549936D01*
X13407467Y-14549936D02*
X13397944Y-14559460D01*
X13397944Y-14559460D02*
X13378896Y-14568984D01*
X13378896Y-14568984D02*
X13359848Y-14568984D01*
X13359848Y-14568984D02*
X13340801Y-14559460D01*
X13340801Y-14559460D02*
X13331277Y-14549936D01*
X13331277Y-14549936D02*
X13321753Y-14530888D01*
X13321753Y-14530888D02*
X13312229Y-14492793D01*
X13312229Y-14492793D02*
X13312229Y-14445174D01*
X13312229Y-14445174D02*
X13321753Y-14407079D01*
X13321753Y-14407079D02*
X13331277Y-14388031D01*
X13331277Y-14388031D02*
X13340801Y-14378508D01*
X13340801Y-14378508D02*
X13359848Y-14368984D01*
X13550325Y-14368984D02*
X13569372Y-14368984D01*
X13569372Y-14368984D02*
X13588420Y-14378508D01*
X13588420Y-14378508D02*
X13597944Y-14388031D01*
X13597944Y-14388031D02*
X13607467Y-14407079D01*
X13607467Y-14407079D02*
X13616991Y-14445174D01*
X13616991Y-14445174D02*
X13616991Y-14492793D01*
X13616991Y-14492793D02*
X13607467Y-14530888D01*
X13607467Y-14530888D02*
X13597944Y-14549936D01*
X13597944Y-14549936D02*
X13588420Y-14559460D01*
X13588420Y-14559460D02*
X13569372Y-14568984D01*
X13569372Y-14568984D02*
X13550325Y-14568984D01*
X13550325Y-14568984D02*
X13531277Y-14559460D01*
X13531277Y-14559460D02*
X13521753Y-14549936D01*
X13521753Y-14549936D02*
X13512229Y-14530888D01*
X13512229Y-14530888D02*
X13502706Y-14492793D01*
X13502706Y-14492793D02*
X13502706Y-14445174D01*
X13502706Y-14445174D02*
X13512229Y-14407079D01*
X13512229Y-14407079D02*
X13521753Y-14388031D01*
X13521753Y-14388031D02*
X13531277Y-14378508D01*
X13531277Y-14378508D02*
X13550325Y-14368984D01*
X13683658Y-14368984D02*
X13816991Y-14368984D01*
X13816991Y-14368984D02*
X13731277Y-14568984D01*
X13902706Y-14568984D02*
X13940801Y-14568984D01*
X13940801Y-14568984D02*
X13959848Y-14559460D01*
X13959848Y-14559460D02*
X13969372Y-14549936D01*
X13969372Y-14549936D02*
X13988420Y-14521365D01*
X13988420Y-14521365D02*
X13997944Y-14483269D01*
X13997944Y-14483269D02*
X13997944Y-14407079D01*
X13997944Y-14407079D02*
X13988420Y-14388031D01*
X13988420Y-14388031D02*
X13978896Y-14378508D01*
X13978896Y-14378508D02*
X13959848Y-14368984D01*
X13959848Y-14368984D02*
X13921753Y-14368984D01*
X13921753Y-14368984D02*
X13902706Y-14378508D01*
X13902706Y-14378508D02*
X13893182Y-14388031D01*
X13893182Y-14388031D02*
X13883658Y-14407079D01*
X13883658Y-14407079D02*
X13883658Y-14454698D01*
X13883658Y-14454698D02*
X13893182Y-14473746D01*
X13893182Y-14473746D02*
X13902706Y-14483269D01*
X13902706Y-14483269D02*
X13921753Y-14492793D01*
X13921753Y-14492793D02*
X13959848Y-14492793D01*
X13959848Y-14492793D02*
X13978896Y-14483269D01*
X13978896Y-14483269D02*
X13988420Y-14473746D01*
X13988420Y-14473746D02*
X13997944Y-14454698D01*
X14074134Y-14368984D02*
X14074134Y-14407079D01*
X14150325Y-14368984D02*
X14150325Y-14407079D01*
X14445563Y-14645174D02*
X14436039Y-14635650D01*
X14436039Y-14635650D02*
X14416991Y-14607079D01*
X14416991Y-14607079D02*
X14407468Y-14588031D01*
X14407468Y-14588031D02*
X14397944Y-14559460D01*
X14397944Y-14559460D02*
X14388420Y-14511841D01*
X14388420Y-14511841D02*
X14388420Y-14473746D01*
X14388420Y-14473746D02*
X14397944Y-14426127D01*
X14397944Y-14426127D02*
X14407468Y-14397555D01*
X14407468Y-14397555D02*
X14416991Y-14378508D01*
X14416991Y-14378508D02*
X14436039Y-14349936D01*
X14436039Y-14349936D02*
X14445563Y-14340412D01*
X14626515Y-14568984D02*
X14512229Y-14568984D01*
X14569372Y-14568984D02*
X14569372Y-14368984D01*
X14569372Y-14368984D02*
X14550325Y-14397555D01*
X14550325Y-14397555D02*
X14531277Y-14416603D01*
X14531277Y-14416603D02*
X14512229Y-14426127D01*
X14702706Y-14388031D02*
X14712229Y-14378508D01*
X14712229Y-14378508D02*
X14731277Y-14368984D01*
X14731277Y-14368984D02*
X14778896Y-14368984D01*
X14778896Y-14368984D02*
X14797944Y-14378508D01*
X14797944Y-14378508D02*
X14807468Y-14388031D01*
X14807468Y-14388031D02*
X14816991Y-14407079D01*
X14816991Y-14407079D02*
X14816991Y-14426127D01*
X14816991Y-14426127D02*
X14807468Y-14454698D01*
X14807468Y-14454698D02*
X14693182Y-14568984D01*
X14693182Y-14568984D02*
X14816991Y-14568984D01*
X15055087Y-14568984D02*
X15055087Y-14368984D01*
X15140801Y-14568984D02*
X15140801Y-14464222D01*
X15140801Y-14464222D02*
X15131277Y-14445174D01*
X15131277Y-14445174D02*
X15112230Y-14435650D01*
X15112230Y-14435650D02*
X15083658Y-14435650D01*
X15083658Y-14435650D02*
X15064610Y-14445174D01*
X15064610Y-14445174D02*
X15055087Y-14454698D01*
X15264610Y-14568984D02*
X15245563Y-14559460D01*
X15245563Y-14559460D02*
X15236039Y-14549936D01*
X15236039Y-14549936D02*
X15226515Y-14530888D01*
X15226515Y-14530888D02*
X15226515Y-14473746D01*
X15226515Y-14473746D02*
X15236039Y-14454698D01*
X15236039Y-14454698D02*
X15245563Y-14445174D01*
X15245563Y-14445174D02*
X15264610Y-14435650D01*
X15264610Y-14435650D02*
X15293182Y-14435650D01*
X15293182Y-14435650D02*
X15312230Y-14445174D01*
X15312230Y-14445174D02*
X15321753Y-14454698D01*
X15321753Y-14454698D02*
X15331277Y-14473746D01*
X15331277Y-14473746D02*
X15331277Y-14530888D01*
X15331277Y-14530888D02*
X15321753Y-14549936D01*
X15321753Y-14549936D02*
X15312230Y-14559460D01*
X15312230Y-14559460D02*
X15293182Y-14568984D01*
X15293182Y-14568984D02*
X15264610Y-14568984D01*
X15445563Y-14568984D02*
X15426515Y-14559460D01*
X15426515Y-14559460D02*
X15416991Y-14540412D01*
X15416991Y-14540412D02*
X15416991Y-14368984D01*
X15597944Y-14559460D02*
X15578896Y-14568984D01*
X15578896Y-14568984D02*
X15540801Y-14568984D01*
X15540801Y-14568984D02*
X15521753Y-14559460D01*
X15521753Y-14559460D02*
X15512230Y-14540412D01*
X15512230Y-14540412D02*
X15512230Y-14464222D01*
X15512230Y-14464222D02*
X15521753Y-14445174D01*
X15521753Y-14445174D02*
X15540801Y-14435650D01*
X15540801Y-14435650D02*
X15578896Y-14435650D01*
X15578896Y-14435650D02*
X15597944Y-14445174D01*
X15597944Y-14445174D02*
X15607468Y-14464222D01*
X15607468Y-14464222D02*
X15607468Y-14483269D01*
X15607468Y-14483269D02*
X15512230Y-14502317D01*
X15683658Y-14559460D02*
X15702706Y-14568984D01*
X15702706Y-14568984D02*
X15740801Y-14568984D01*
X15740801Y-14568984D02*
X15759849Y-14559460D01*
X15759849Y-14559460D02*
X15769372Y-14540412D01*
X15769372Y-14540412D02*
X15769372Y-14530888D01*
X15769372Y-14530888D02*
X15759849Y-14511841D01*
X15759849Y-14511841D02*
X15740801Y-14502317D01*
X15740801Y-14502317D02*
X15712230Y-14502317D01*
X15712230Y-14502317D02*
X15693182Y-14492793D01*
X15693182Y-14492793D02*
X15683658Y-14473746D01*
X15683658Y-14473746D02*
X15683658Y-14464222D01*
X15683658Y-14464222D02*
X15693182Y-14445174D01*
X15693182Y-14445174D02*
X15712230Y-14435650D01*
X15712230Y-14435650D02*
X15740801Y-14435650D01*
X15740801Y-14435650D02*
X15759849Y-14445174D01*
X15836039Y-14645174D02*
X15845563Y-14635650D01*
X15845563Y-14635650D02*
X15864611Y-14607079D01*
X15864611Y-14607079D02*
X15874134Y-14588031D01*
X15874134Y-14588031D02*
X15883658Y-14559460D01*
X15883658Y-14559460D02*
X15893182Y-14511841D01*
X15893182Y-14511841D02*
X15893182Y-14473746D01*
X15893182Y-14473746D02*
X15883658Y-14426127D01*
X15883658Y-14426127D02*
X15874134Y-14397555D01*
X15874134Y-14397555D02*
X15864611Y-14378508D01*
X15864611Y-14378508D02*
X15845563Y-14349936D01*
X15845563Y-14349936D02*
X15836039Y-14340412D01*
D12*
X10870500Y-14741500D02*
G75*
G02*
X10840500Y-14741500I-15000J0D01*
G01*
X10840500Y-14741500D02*
G75*
G02*
X10870500Y-14741500I15000J0D01*
G01*
D11*
X11169372Y-14632984D02*
X11188420Y-14632984D01*
X11188420Y-14632984D02*
X11207467Y-14642508D01*
X11207467Y-14642508D02*
X11216991Y-14652031D01*
X11216991Y-14652031D02*
X11226515Y-14671079D01*
X11226515Y-14671079D02*
X11236039Y-14709174D01*
X11236039Y-14709174D02*
X11236039Y-14756793D01*
X11236039Y-14756793D02*
X11226515Y-14794888D01*
X11226515Y-14794888D02*
X11216991Y-14813936D01*
X11216991Y-14813936D02*
X11207467Y-14823460D01*
X11207467Y-14823460D02*
X11188420Y-14832984D01*
X11188420Y-14832984D02*
X11169372Y-14832984D01*
X11169372Y-14832984D02*
X11150324Y-14823460D01*
X11150324Y-14823460D02*
X11140801Y-14813936D01*
X11140801Y-14813936D02*
X11131277Y-14794888D01*
X11131277Y-14794888D02*
X11121753Y-14756793D01*
X11121753Y-14756793D02*
X11121753Y-14709174D01*
X11121753Y-14709174D02*
X11131277Y-14671079D01*
X11131277Y-14671079D02*
X11140801Y-14652031D01*
X11140801Y-14652031D02*
X11150324Y-14642508D01*
X11150324Y-14642508D02*
X11169372Y-14632984D01*
X11321753Y-14813936D02*
X11331277Y-14823460D01*
X11331277Y-14823460D02*
X11321753Y-14832984D01*
X11321753Y-14832984D02*
X11312229Y-14823460D01*
X11312229Y-14823460D02*
X11321753Y-14813936D01*
X11321753Y-14813936D02*
X11321753Y-14832984D01*
X11397943Y-14632984D02*
X11521753Y-14632984D01*
X11521753Y-14632984D02*
X11455086Y-14709174D01*
X11455086Y-14709174D02*
X11483658Y-14709174D01*
X11483658Y-14709174D02*
X11502705Y-14718698D01*
X11502705Y-14718698D02*
X11512229Y-14728222D01*
X11512229Y-14728222D02*
X11521753Y-14747269D01*
X11521753Y-14747269D02*
X11521753Y-14794888D01*
X11521753Y-14794888D02*
X11512229Y-14813936D01*
X11512229Y-14813936D02*
X11502705Y-14823460D01*
X11502705Y-14823460D02*
X11483658Y-14832984D01*
X11483658Y-14832984D02*
X11426515Y-14832984D01*
X11426515Y-14832984D02*
X11407467Y-14823460D01*
X11407467Y-14823460D02*
X11397943Y-14813936D01*
X11645562Y-14632984D02*
X11664610Y-14632984D01*
X11664610Y-14632984D02*
X11683658Y-14642508D01*
X11683658Y-14642508D02*
X11693182Y-14652031D01*
X11693182Y-14652031D02*
X11702705Y-14671079D01*
X11702705Y-14671079D02*
X11712229Y-14709174D01*
X11712229Y-14709174D02*
X11712229Y-14756793D01*
X11712229Y-14756793D02*
X11702705Y-14794888D01*
X11702705Y-14794888D02*
X11693182Y-14813936D01*
X11693182Y-14813936D02*
X11683658Y-14823460D01*
X11683658Y-14823460D02*
X11664610Y-14832984D01*
X11664610Y-14832984D02*
X11645562Y-14832984D01*
X11645562Y-14832984D02*
X11626515Y-14823460D01*
X11626515Y-14823460D02*
X11616991Y-14813936D01*
X11616991Y-14813936D02*
X11607467Y-14794888D01*
X11607467Y-14794888D02*
X11597943Y-14756793D01*
X11597943Y-14756793D02*
X11597943Y-14709174D01*
X11597943Y-14709174D02*
X11607467Y-14671079D01*
X11607467Y-14671079D02*
X11616991Y-14652031D01*
X11616991Y-14652031D02*
X11626515Y-14642508D01*
X11626515Y-14642508D02*
X11645562Y-14632984D01*
X11836039Y-14632984D02*
X11855086Y-14632984D01*
X11855086Y-14632984D02*
X11874134Y-14642508D01*
X11874134Y-14642508D02*
X11883658Y-14652031D01*
X11883658Y-14652031D02*
X11893182Y-14671079D01*
X11893182Y-14671079D02*
X11902705Y-14709174D01*
X11902705Y-14709174D02*
X11902705Y-14756793D01*
X11902705Y-14756793D02*
X11893182Y-14794888D01*
X11893182Y-14794888D02*
X11883658Y-14813936D01*
X11883658Y-14813936D02*
X11874134Y-14823460D01*
X11874134Y-14823460D02*
X11855086Y-14832984D01*
X11855086Y-14832984D02*
X11836039Y-14832984D01*
X11836039Y-14832984D02*
X11816991Y-14823460D01*
X11816991Y-14823460D02*
X11807467Y-14813936D01*
X11807467Y-14813936D02*
X11797943Y-14794888D01*
X11797943Y-14794888D02*
X11788420Y-14756793D01*
X11788420Y-14756793D02*
X11788420Y-14709174D01*
X11788420Y-14709174D02*
X11797943Y-14671079D01*
X11797943Y-14671079D02*
X11807467Y-14652031D01*
X11807467Y-14652031D02*
X11816991Y-14642508D01*
X11816991Y-14642508D02*
X11836039Y-14632984D01*
X11988420Y-14832984D02*
X11988420Y-14699650D01*
X11988420Y-14718698D02*
X11997943Y-14709174D01*
X11997943Y-14709174D02*
X12016991Y-14699650D01*
X12016991Y-14699650D02*
X12045563Y-14699650D01*
X12045563Y-14699650D02*
X12064610Y-14709174D01*
X12064610Y-14709174D02*
X12074134Y-14728222D01*
X12074134Y-14728222D02*
X12074134Y-14832984D01*
X12074134Y-14728222D02*
X12083658Y-14709174D01*
X12083658Y-14709174D02*
X12102705Y-14699650D01*
X12102705Y-14699650D02*
X12131277Y-14699650D01*
X12131277Y-14699650D02*
X12150324Y-14709174D01*
X12150324Y-14709174D02*
X12159848Y-14728222D01*
X12159848Y-14728222D02*
X12159848Y-14832984D01*
X12255086Y-14832984D02*
X12255086Y-14699650D01*
X12255086Y-14718698D02*
X12264610Y-14709174D01*
X12264610Y-14709174D02*
X12283658Y-14699650D01*
X12283658Y-14699650D02*
X12312229Y-14699650D01*
X12312229Y-14699650D02*
X12331277Y-14709174D01*
X12331277Y-14709174D02*
X12340801Y-14728222D01*
X12340801Y-14728222D02*
X12340801Y-14832984D01*
X12340801Y-14728222D02*
X12350324Y-14709174D01*
X12350324Y-14709174D02*
X12369372Y-14699650D01*
X12369372Y-14699650D02*
X12397943Y-14699650D01*
X12397943Y-14699650D02*
X12416991Y-14709174D01*
X12416991Y-14709174D02*
X12426515Y-14728222D01*
X12426515Y-14728222D02*
X12426515Y-14832984D01*
X12816991Y-14623460D02*
X12645563Y-14880603D01*
X13074134Y-14632984D02*
X13093182Y-14632984D01*
X13093182Y-14632984D02*
X13112229Y-14642508D01*
X13112229Y-14642508D02*
X13121753Y-14652031D01*
X13121753Y-14652031D02*
X13131277Y-14671079D01*
X13131277Y-14671079D02*
X13140801Y-14709174D01*
X13140801Y-14709174D02*
X13140801Y-14756793D01*
X13140801Y-14756793D02*
X13131277Y-14794888D01*
X13131277Y-14794888D02*
X13121753Y-14813936D01*
X13121753Y-14813936D02*
X13112229Y-14823460D01*
X13112229Y-14823460D02*
X13093182Y-14832984D01*
X13093182Y-14832984D02*
X13074134Y-14832984D01*
X13074134Y-14832984D02*
X13055086Y-14823460D01*
X13055086Y-14823460D02*
X13045563Y-14813936D01*
X13045563Y-14813936D02*
X13036039Y-14794888D01*
X13036039Y-14794888D02*
X13026515Y-14756793D01*
X13026515Y-14756793D02*
X13026515Y-14709174D01*
X13026515Y-14709174D02*
X13036039Y-14671079D01*
X13036039Y-14671079D02*
X13045563Y-14652031D01*
X13045563Y-14652031D02*
X13055086Y-14642508D01*
X13055086Y-14642508D02*
X13074134Y-14632984D01*
X13226515Y-14813936D02*
X13236039Y-14823460D01*
X13236039Y-14823460D02*
X13226515Y-14832984D01*
X13226515Y-14832984D02*
X13216991Y-14823460D01*
X13216991Y-14823460D02*
X13226515Y-14813936D01*
X13226515Y-14813936D02*
X13226515Y-14832984D01*
X13359848Y-14632984D02*
X13378896Y-14632984D01*
X13378896Y-14632984D02*
X13397944Y-14642508D01*
X13397944Y-14642508D02*
X13407467Y-14652031D01*
X13407467Y-14652031D02*
X13416991Y-14671079D01*
X13416991Y-14671079D02*
X13426515Y-14709174D01*
X13426515Y-14709174D02*
X13426515Y-14756793D01*
X13426515Y-14756793D02*
X13416991Y-14794888D01*
X13416991Y-14794888D02*
X13407467Y-14813936D01*
X13407467Y-14813936D02*
X13397944Y-14823460D01*
X13397944Y-14823460D02*
X13378896Y-14832984D01*
X13378896Y-14832984D02*
X13359848Y-14832984D01*
X13359848Y-14832984D02*
X13340801Y-14823460D01*
X13340801Y-14823460D02*
X13331277Y-14813936D01*
X13331277Y-14813936D02*
X13321753Y-14794888D01*
X13321753Y-14794888D02*
X13312229Y-14756793D01*
X13312229Y-14756793D02*
X13312229Y-14709174D01*
X13312229Y-14709174D02*
X13321753Y-14671079D01*
X13321753Y-14671079D02*
X13331277Y-14652031D01*
X13331277Y-14652031D02*
X13340801Y-14642508D01*
X13340801Y-14642508D02*
X13359848Y-14632984D01*
X13616991Y-14832984D02*
X13502706Y-14832984D01*
X13559848Y-14832984D02*
X13559848Y-14632984D01*
X13559848Y-14632984D02*
X13540801Y-14661555D01*
X13540801Y-14661555D02*
X13521753Y-14680603D01*
X13521753Y-14680603D02*
X13502706Y-14690127D01*
X13807467Y-14832984D02*
X13693182Y-14832984D01*
X13750325Y-14832984D02*
X13750325Y-14632984D01*
X13750325Y-14632984D02*
X13731277Y-14661555D01*
X13731277Y-14661555D02*
X13712229Y-14680603D01*
X13712229Y-14680603D02*
X13693182Y-14690127D01*
X13921753Y-14718698D02*
X13902706Y-14709174D01*
X13902706Y-14709174D02*
X13893182Y-14699650D01*
X13893182Y-14699650D02*
X13883658Y-14680603D01*
X13883658Y-14680603D02*
X13883658Y-14671079D01*
X13883658Y-14671079D02*
X13893182Y-14652031D01*
X13893182Y-14652031D02*
X13902706Y-14642508D01*
X13902706Y-14642508D02*
X13921753Y-14632984D01*
X13921753Y-14632984D02*
X13959848Y-14632984D01*
X13959848Y-14632984D02*
X13978896Y-14642508D01*
X13978896Y-14642508D02*
X13988420Y-14652031D01*
X13988420Y-14652031D02*
X13997944Y-14671079D01*
X13997944Y-14671079D02*
X13997944Y-14680603D01*
X13997944Y-14680603D02*
X13988420Y-14699650D01*
X13988420Y-14699650D02*
X13978896Y-14709174D01*
X13978896Y-14709174D02*
X13959848Y-14718698D01*
X13959848Y-14718698D02*
X13921753Y-14718698D01*
X13921753Y-14718698D02*
X13902706Y-14728222D01*
X13902706Y-14728222D02*
X13893182Y-14737746D01*
X13893182Y-14737746D02*
X13883658Y-14756793D01*
X13883658Y-14756793D02*
X13883658Y-14794888D01*
X13883658Y-14794888D02*
X13893182Y-14813936D01*
X13893182Y-14813936D02*
X13902706Y-14823460D01*
X13902706Y-14823460D02*
X13921753Y-14832984D01*
X13921753Y-14832984D02*
X13959848Y-14832984D01*
X13959848Y-14832984D02*
X13978896Y-14823460D01*
X13978896Y-14823460D02*
X13988420Y-14813936D01*
X13988420Y-14813936D02*
X13997944Y-14794888D01*
X13997944Y-14794888D02*
X13997944Y-14756793D01*
X13997944Y-14756793D02*
X13988420Y-14737746D01*
X13988420Y-14737746D02*
X13978896Y-14728222D01*
X13978896Y-14728222D02*
X13959848Y-14718698D01*
X14074134Y-14632984D02*
X14074134Y-14671079D01*
X14150325Y-14632984D02*
X14150325Y-14671079D01*
X14445563Y-14909174D02*
X14436039Y-14899650D01*
X14436039Y-14899650D02*
X14416991Y-14871079D01*
X14416991Y-14871079D02*
X14407468Y-14852031D01*
X14407468Y-14852031D02*
X14397944Y-14823460D01*
X14397944Y-14823460D02*
X14388420Y-14775841D01*
X14388420Y-14775841D02*
X14388420Y-14737746D01*
X14388420Y-14737746D02*
X14397944Y-14690127D01*
X14397944Y-14690127D02*
X14407468Y-14661555D01*
X14407468Y-14661555D02*
X14416991Y-14642508D01*
X14416991Y-14642508D02*
X14436039Y-14613936D01*
X14436039Y-14613936D02*
X14445563Y-14604412D01*
X14626515Y-14832984D02*
X14512229Y-14832984D01*
X14569372Y-14832984D02*
X14569372Y-14632984D01*
X14569372Y-14632984D02*
X14550325Y-14661555D01*
X14550325Y-14661555D02*
X14531277Y-14680603D01*
X14531277Y-14680603D02*
X14512229Y-14690127D01*
X14797944Y-14699650D02*
X14797944Y-14832984D01*
X14750325Y-14623460D02*
X14702706Y-14766317D01*
X14702706Y-14766317D02*
X14826515Y-14766317D01*
X15055087Y-14832984D02*
X15055087Y-14632984D01*
X15140801Y-14832984D02*
X15140801Y-14728222D01*
X15140801Y-14728222D02*
X15131277Y-14709174D01*
X15131277Y-14709174D02*
X15112230Y-14699650D01*
X15112230Y-14699650D02*
X15083658Y-14699650D01*
X15083658Y-14699650D02*
X15064610Y-14709174D01*
X15064610Y-14709174D02*
X15055087Y-14718698D01*
X15264610Y-14832984D02*
X15245563Y-14823460D01*
X15245563Y-14823460D02*
X15236039Y-14813936D01*
X15236039Y-14813936D02*
X15226515Y-14794888D01*
X15226515Y-14794888D02*
X15226515Y-14737746D01*
X15226515Y-14737746D02*
X15236039Y-14718698D01*
X15236039Y-14718698D02*
X15245563Y-14709174D01*
X15245563Y-14709174D02*
X15264610Y-14699650D01*
X15264610Y-14699650D02*
X15293182Y-14699650D01*
X15293182Y-14699650D02*
X15312230Y-14709174D01*
X15312230Y-14709174D02*
X15321753Y-14718698D01*
X15321753Y-14718698D02*
X15331277Y-14737746D01*
X15331277Y-14737746D02*
X15331277Y-14794888D01*
X15331277Y-14794888D02*
X15321753Y-14813936D01*
X15321753Y-14813936D02*
X15312230Y-14823460D01*
X15312230Y-14823460D02*
X15293182Y-14832984D01*
X15293182Y-14832984D02*
X15264610Y-14832984D01*
X15445563Y-14832984D02*
X15426515Y-14823460D01*
X15426515Y-14823460D02*
X15416991Y-14804412D01*
X15416991Y-14804412D02*
X15416991Y-14632984D01*
X15597944Y-14823460D02*
X15578896Y-14832984D01*
X15578896Y-14832984D02*
X15540801Y-14832984D01*
X15540801Y-14832984D02*
X15521753Y-14823460D01*
X15521753Y-14823460D02*
X15512230Y-14804412D01*
X15512230Y-14804412D02*
X15512230Y-14728222D01*
X15512230Y-14728222D02*
X15521753Y-14709174D01*
X15521753Y-14709174D02*
X15540801Y-14699650D01*
X15540801Y-14699650D02*
X15578896Y-14699650D01*
X15578896Y-14699650D02*
X15597944Y-14709174D01*
X15597944Y-14709174D02*
X15607468Y-14728222D01*
X15607468Y-14728222D02*
X15607468Y-14747269D01*
X15607468Y-14747269D02*
X15512230Y-14766317D01*
X15683658Y-14823460D02*
X15702706Y-14832984D01*
X15702706Y-14832984D02*
X15740801Y-14832984D01*
X15740801Y-14832984D02*
X15759849Y-14823460D01*
X15759849Y-14823460D02*
X15769372Y-14804412D01*
X15769372Y-14804412D02*
X15769372Y-14794888D01*
X15769372Y-14794888D02*
X15759849Y-14775841D01*
X15759849Y-14775841D02*
X15740801Y-14766317D01*
X15740801Y-14766317D02*
X15712230Y-14766317D01*
X15712230Y-14766317D02*
X15693182Y-14756793D01*
X15693182Y-14756793D02*
X15683658Y-14737746D01*
X15683658Y-14737746D02*
X15683658Y-14728222D01*
X15683658Y-14728222D02*
X15693182Y-14709174D01*
X15693182Y-14709174D02*
X15712230Y-14699650D01*
X15712230Y-14699650D02*
X15740801Y-14699650D01*
X15740801Y-14699650D02*
X15759849Y-14709174D01*
X15836039Y-14909174D02*
X15845563Y-14899650D01*
X15845563Y-14899650D02*
X15864611Y-14871079D01*
X15864611Y-14871079D02*
X15874134Y-14852031D01*
X15874134Y-14852031D02*
X15883658Y-14823460D01*
X15883658Y-14823460D02*
X15893182Y-14775841D01*
X15893182Y-14775841D02*
X15893182Y-14737746D01*
X15893182Y-14737746D02*
X15883658Y-14690127D01*
X15883658Y-14690127D02*
X15874134Y-14661555D01*
X15874134Y-14661555D02*
X15864611Y-14642508D01*
X15864611Y-14642508D02*
X15845563Y-14613936D01*
X15845563Y-14613936D02*
X15836039Y-14604412D01*
D12*
X10840500Y-14975500D02*
X10840500Y-15035500D01*
X10810500Y-15005500D02*
X10870500Y-15005500D01*
D11*
X11169372Y-14896984D02*
X11188420Y-14896984D01*
X11188420Y-14896984D02*
X11207467Y-14906508D01*
X11207467Y-14906508D02*
X11216991Y-14916031D01*
X11216991Y-14916031D02*
X11226515Y-14935079D01*
X11226515Y-14935079D02*
X11236039Y-14973174D01*
X11236039Y-14973174D02*
X11236039Y-15020793D01*
X11236039Y-15020793D02*
X11226515Y-15058888D01*
X11226515Y-15058888D02*
X11216991Y-15077936D01*
X11216991Y-15077936D02*
X11207467Y-15087460D01*
X11207467Y-15087460D02*
X11188420Y-15096984D01*
X11188420Y-15096984D02*
X11169372Y-15096984D01*
X11169372Y-15096984D02*
X11150324Y-15087460D01*
X11150324Y-15087460D02*
X11140801Y-15077936D01*
X11140801Y-15077936D02*
X11131277Y-15058888D01*
X11131277Y-15058888D02*
X11121753Y-15020793D01*
X11121753Y-15020793D02*
X11121753Y-14973174D01*
X11121753Y-14973174D02*
X11131277Y-14935079D01*
X11131277Y-14935079D02*
X11140801Y-14916031D01*
X11140801Y-14916031D02*
X11150324Y-14906508D01*
X11150324Y-14906508D02*
X11169372Y-14896984D01*
X11321753Y-15077936D02*
X11331277Y-15087460D01*
X11331277Y-15087460D02*
X11321753Y-15096984D01*
X11321753Y-15096984D02*
X11312229Y-15087460D01*
X11312229Y-15087460D02*
X11321753Y-15077936D01*
X11321753Y-15077936D02*
X11321753Y-15096984D01*
X11502705Y-14896984D02*
X11464610Y-14896984D01*
X11464610Y-14896984D02*
X11445562Y-14906508D01*
X11445562Y-14906508D02*
X11436039Y-14916031D01*
X11436039Y-14916031D02*
X11416991Y-14944603D01*
X11416991Y-14944603D02*
X11407467Y-14982698D01*
X11407467Y-14982698D02*
X11407467Y-15058888D01*
X11407467Y-15058888D02*
X11416991Y-15077936D01*
X11416991Y-15077936D02*
X11426515Y-15087460D01*
X11426515Y-15087460D02*
X11445562Y-15096984D01*
X11445562Y-15096984D02*
X11483658Y-15096984D01*
X11483658Y-15096984D02*
X11502705Y-15087460D01*
X11502705Y-15087460D02*
X11512229Y-15077936D01*
X11512229Y-15077936D02*
X11521753Y-15058888D01*
X11521753Y-15058888D02*
X11521753Y-15011269D01*
X11521753Y-15011269D02*
X11512229Y-14992222D01*
X11512229Y-14992222D02*
X11502705Y-14982698D01*
X11502705Y-14982698D02*
X11483658Y-14973174D01*
X11483658Y-14973174D02*
X11445562Y-14973174D01*
X11445562Y-14973174D02*
X11426515Y-14982698D01*
X11426515Y-14982698D02*
X11416991Y-14992222D01*
X11416991Y-14992222D02*
X11407467Y-15011269D01*
X11645562Y-14896984D02*
X11664610Y-14896984D01*
X11664610Y-14896984D02*
X11683658Y-14906508D01*
X11683658Y-14906508D02*
X11693182Y-14916031D01*
X11693182Y-14916031D02*
X11702705Y-14935079D01*
X11702705Y-14935079D02*
X11712229Y-14973174D01*
X11712229Y-14973174D02*
X11712229Y-15020793D01*
X11712229Y-15020793D02*
X11702705Y-15058888D01*
X11702705Y-15058888D02*
X11693182Y-15077936D01*
X11693182Y-15077936D02*
X11683658Y-15087460D01*
X11683658Y-15087460D02*
X11664610Y-15096984D01*
X11664610Y-15096984D02*
X11645562Y-15096984D01*
X11645562Y-15096984D02*
X11626515Y-15087460D01*
X11626515Y-15087460D02*
X11616991Y-15077936D01*
X11616991Y-15077936D02*
X11607467Y-15058888D01*
X11607467Y-15058888D02*
X11597943Y-15020793D01*
X11597943Y-15020793D02*
X11597943Y-14973174D01*
X11597943Y-14973174D02*
X11607467Y-14935079D01*
X11607467Y-14935079D02*
X11616991Y-14916031D01*
X11616991Y-14916031D02*
X11626515Y-14906508D01*
X11626515Y-14906508D02*
X11645562Y-14896984D01*
X11836039Y-14896984D02*
X11855086Y-14896984D01*
X11855086Y-14896984D02*
X11874134Y-14906508D01*
X11874134Y-14906508D02*
X11883658Y-14916031D01*
X11883658Y-14916031D02*
X11893182Y-14935079D01*
X11893182Y-14935079D02*
X11902705Y-14973174D01*
X11902705Y-14973174D02*
X11902705Y-15020793D01*
X11902705Y-15020793D02*
X11893182Y-15058888D01*
X11893182Y-15058888D02*
X11883658Y-15077936D01*
X11883658Y-15077936D02*
X11874134Y-15087460D01*
X11874134Y-15087460D02*
X11855086Y-15096984D01*
X11855086Y-15096984D02*
X11836039Y-15096984D01*
X11836039Y-15096984D02*
X11816991Y-15087460D01*
X11816991Y-15087460D02*
X11807467Y-15077936D01*
X11807467Y-15077936D02*
X11797943Y-15058888D01*
X11797943Y-15058888D02*
X11788420Y-15020793D01*
X11788420Y-15020793D02*
X11788420Y-14973174D01*
X11788420Y-14973174D02*
X11797943Y-14935079D01*
X11797943Y-14935079D02*
X11807467Y-14916031D01*
X11807467Y-14916031D02*
X11816991Y-14906508D01*
X11816991Y-14906508D02*
X11836039Y-14896984D01*
X11988420Y-15096984D02*
X11988420Y-14963650D01*
X11988420Y-14982698D02*
X11997943Y-14973174D01*
X11997943Y-14973174D02*
X12016991Y-14963650D01*
X12016991Y-14963650D02*
X12045563Y-14963650D01*
X12045563Y-14963650D02*
X12064610Y-14973174D01*
X12064610Y-14973174D02*
X12074134Y-14992222D01*
X12074134Y-14992222D02*
X12074134Y-15096984D01*
X12074134Y-14992222D02*
X12083658Y-14973174D01*
X12083658Y-14973174D02*
X12102705Y-14963650D01*
X12102705Y-14963650D02*
X12131277Y-14963650D01*
X12131277Y-14963650D02*
X12150324Y-14973174D01*
X12150324Y-14973174D02*
X12159848Y-14992222D01*
X12159848Y-14992222D02*
X12159848Y-15096984D01*
X12255086Y-15096984D02*
X12255086Y-14963650D01*
X12255086Y-14982698D02*
X12264610Y-14973174D01*
X12264610Y-14973174D02*
X12283658Y-14963650D01*
X12283658Y-14963650D02*
X12312229Y-14963650D01*
X12312229Y-14963650D02*
X12331277Y-14973174D01*
X12331277Y-14973174D02*
X12340801Y-14992222D01*
X12340801Y-14992222D02*
X12340801Y-15096984D01*
X12340801Y-14992222D02*
X12350324Y-14973174D01*
X12350324Y-14973174D02*
X12369372Y-14963650D01*
X12369372Y-14963650D02*
X12397943Y-14963650D01*
X12397943Y-14963650D02*
X12416991Y-14973174D01*
X12416991Y-14973174D02*
X12426515Y-14992222D01*
X12426515Y-14992222D02*
X12426515Y-15096984D01*
X12816991Y-14887460D02*
X12645563Y-15144603D01*
X13074134Y-14896984D02*
X13093182Y-14896984D01*
X13093182Y-14896984D02*
X13112229Y-14906508D01*
X13112229Y-14906508D02*
X13121753Y-14916031D01*
X13121753Y-14916031D02*
X13131277Y-14935079D01*
X13131277Y-14935079D02*
X13140801Y-14973174D01*
X13140801Y-14973174D02*
X13140801Y-15020793D01*
X13140801Y-15020793D02*
X13131277Y-15058888D01*
X13131277Y-15058888D02*
X13121753Y-15077936D01*
X13121753Y-15077936D02*
X13112229Y-15087460D01*
X13112229Y-15087460D02*
X13093182Y-15096984D01*
X13093182Y-15096984D02*
X13074134Y-15096984D01*
X13074134Y-15096984D02*
X13055086Y-15087460D01*
X13055086Y-15087460D02*
X13045563Y-15077936D01*
X13045563Y-15077936D02*
X13036039Y-15058888D01*
X13036039Y-15058888D02*
X13026515Y-15020793D01*
X13026515Y-15020793D02*
X13026515Y-14973174D01*
X13026515Y-14973174D02*
X13036039Y-14935079D01*
X13036039Y-14935079D02*
X13045563Y-14916031D01*
X13045563Y-14916031D02*
X13055086Y-14906508D01*
X13055086Y-14906508D02*
X13074134Y-14896984D01*
X13226515Y-15077936D02*
X13236039Y-15087460D01*
X13236039Y-15087460D02*
X13226515Y-15096984D01*
X13226515Y-15096984D02*
X13216991Y-15087460D01*
X13216991Y-15087460D02*
X13226515Y-15077936D01*
X13226515Y-15077936D02*
X13226515Y-15096984D01*
X13359848Y-14896984D02*
X13378896Y-14896984D01*
X13378896Y-14896984D02*
X13397944Y-14906508D01*
X13397944Y-14906508D02*
X13407467Y-14916031D01*
X13407467Y-14916031D02*
X13416991Y-14935079D01*
X13416991Y-14935079D02*
X13426515Y-14973174D01*
X13426515Y-14973174D02*
X13426515Y-15020793D01*
X13426515Y-15020793D02*
X13416991Y-15058888D01*
X13416991Y-15058888D02*
X13407467Y-15077936D01*
X13407467Y-15077936D02*
X13397944Y-15087460D01*
X13397944Y-15087460D02*
X13378896Y-15096984D01*
X13378896Y-15096984D02*
X13359848Y-15096984D01*
X13359848Y-15096984D02*
X13340801Y-15087460D01*
X13340801Y-15087460D02*
X13331277Y-15077936D01*
X13331277Y-15077936D02*
X13321753Y-15058888D01*
X13321753Y-15058888D02*
X13312229Y-15020793D01*
X13312229Y-15020793D02*
X13312229Y-14973174D01*
X13312229Y-14973174D02*
X13321753Y-14935079D01*
X13321753Y-14935079D02*
X13331277Y-14916031D01*
X13331277Y-14916031D02*
X13340801Y-14906508D01*
X13340801Y-14906508D02*
X13359848Y-14896984D01*
X13502706Y-14916031D02*
X13512229Y-14906508D01*
X13512229Y-14906508D02*
X13531277Y-14896984D01*
X13531277Y-14896984D02*
X13578896Y-14896984D01*
X13578896Y-14896984D02*
X13597944Y-14906508D01*
X13597944Y-14906508D02*
X13607467Y-14916031D01*
X13607467Y-14916031D02*
X13616991Y-14935079D01*
X13616991Y-14935079D02*
X13616991Y-14954127D01*
X13616991Y-14954127D02*
X13607467Y-14982698D01*
X13607467Y-14982698D02*
X13493182Y-15096984D01*
X13493182Y-15096984D02*
X13616991Y-15096984D01*
X13683658Y-14896984D02*
X13807467Y-14896984D01*
X13807467Y-14896984D02*
X13740801Y-14973174D01*
X13740801Y-14973174D02*
X13769372Y-14973174D01*
X13769372Y-14973174D02*
X13788420Y-14982698D01*
X13788420Y-14982698D02*
X13797944Y-14992222D01*
X13797944Y-14992222D02*
X13807467Y-15011269D01*
X13807467Y-15011269D02*
X13807467Y-15058888D01*
X13807467Y-15058888D02*
X13797944Y-15077936D01*
X13797944Y-15077936D02*
X13788420Y-15087460D01*
X13788420Y-15087460D02*
X13769372Y-15096984D01*
X13769372Y-15096984D02*
X13712229Y-15096984D01*
X13712229Y-15096984D02*
X13693182Y-15087460D01*
X13693182Y-15087460D02*
X13683658Y-15077936D01*
X13978896Y-14896984D02*
X13940801Y-14896984D01*
X13940801Y-14896984D02*
X13921753Y-14906508D01*
X13921753Y-14906508D02*
X13912229Y-14916031D01*
X13912229Y-14916031D02*
X13893182Y-14944603D01*
X13893182Y-14944603D02*
X13883658Y-14982698D01*
X13883658Y-14982698D02*
X13883658Y-15058888D01*
X13883658Y-15058888D02*
X13893182Y-15077936D01*
X13893182Y-15077936D02*
X13902706Y-15087460D01*
X13902706Y-15087460D02*
X13921753Y-15096984D01*
X13921753Y-15096984D02*
X13959848Y-15096984D01*
X13959848Y-15096984D02*
X13978896Y-15087460D01*
X13978896Y-15087460D02*
X13988420Y-15077936D01*
X13988420Y-15077936D02*
X13997944Y-15058888D01*
X13997944Y-15058888D02*
X13997944Y-15011269D01*
X13997944Y-15011269D02*
X13988420Y-14992222D01*
X13988420Y-14992222D02*
X13978896Y-14982698D01*
X13978896Y-14982698D02*
X13959848Y-14973174D01*
X13959848Y-14973174D02*
X13921753Y-14973174D01*
X13921753Y-14973174D02*
X13902706Y-14982698D01*
X13902706Y-14982698D02*
X13893182Y-14992222D01*
X13893182Y-14992222D02*
X13883658Y-15011269D01*
X14074134Y-14896984D02*
X14074134Y-14935079D01*
X14150325Y-14896984D02*
X14150325Y-14935079D01*
X14445563Y-15173174D02*
X14436039Y-15163650D01*
X14436039Y-15163650D02*
X14416991Y-15135079D01*
X14416991Y-15135079D02*
X14407468Y-15116031D01*
X14407468Y-15116031D02*
X14397944Y-15087460D01*
X14397944Y-15087460D02*
X14388420Y-15039841D01*
X14388420Y-15039841D02*
X14388420Y-15001746D01*
X14388420Y-15001746D02*
X14397944Y-14954127D01*
X14397944Y-14954127D02*
X14407468Y-14925555D01*
X14407468Y-14925555D02*
X14416991Y-14906508D01*
X14416991Y-14906508D02*
X14436039Y-14877936D01*
X14436039Y-14877936D02*
X14445563Y-14868412D01*
X14559848Y-14896984D02*
X14578896Y-14896984D01*
X14578896Y-14896984D02*
X14597944Y-14906508D01*
X14597944Y-14906508D02*
X14607468Y-14916031D01*
X14607468Y-14916031D02*
X14616991Y-14935079D01*
X14616991Y-14935079D02*
X14626515Y-14973174D01*
X14626515Y-14973174D02*
X14626515Y-15020793D01*
X14626515Y-15020793D02*
X14616991Y-15058888D01*
X14616991Y-15058888D02*
X14607468Y-15077936D01*
X14607468Y-15077936D02*
X14597944Y-15087460D01*
X14597944Y-15087460D02*
X14578896Y-15096984D01*
X14578896Y-15096984D02*
X14559848Y-15096984D01*
X14559848Y-15096984D02*
X14540801Y-15087460D01*
X14540801Y-15087460D02*
X14531277Y-15077936D01*
X14531277Y-15077936D02*
X14521753Y-15058888D01*
X14521753Y-15058888D02*
X14512229Y-15020793D01*
X14512229Y-15020793D02*
X14512229Y-14973174D01*
X14512229Y-14973174D02*
X14521753Y-14935079D01*
X14521753Y-14935079D02*
X14531277Y-14916031D01*
X14531277Y-14916031D02*
X14540801Y-14906508D01*
X14540801Y-14906508D02*
X14559848Y-14896984D01*
X14864610Y-15096984D02*
X14864610Y-14896984D01*
X14950325Y-15096984D02*
X14950325Y-14992222D01*
X14950325Y-14992222D02*
X14940801Y-14973174D01*
X14940801Y-14973174D02*
X14921753Y-14963650D01*
X14921753Y-14963650D02*
X14893182Y-14963650D01*
X14893182Y-14963650D02*
X14874134Y-14973174D01*
X14874134Y-14973174D02*
X14864610Y-14982698D01*
X15074134Y-15096984D02*
X15055087Y-15087460D01*
X15055087Y-15087460D02*
X15045563Y-15077936D01*
X15045563Y-15077936D02*
X15036039Y-15058888D01*
X15036039Y-15058888D02*
X15036039Y-15001746D01*
X15036039Y-15001746D02*
X15045563Y-14982698D01*
X15045563Y-14982698D02*
X15055087Y-14973174D01*
X15055087Y-14973174D02*
X15074134Y-14963650D01*
X15074134Y-14963650D02*
X15102706Y-14963650D01*
X15102706Y-14963650D02*
X15121753Y-14973174D01*
X15121753Y-14973174D02*
X15131277Y-14982698D01*
X15131277Y-14982698D02*
X15140801Y-15001746D01*
X15140801Y-15001746D02*
X15140801Y-15058888D01*
X15140801Y-15058888D02*
X15131277Y-15077936D01*
X15131277Y-15077936D02*
X15121753Y-15087460D01*
X15121753Y-15087460D02*
X15102706Y-15096984D01*
X15102706Y-15096984D02*
X15074134Y-15096984D01*
X15255087Y-15096984D02*
X15236039Y-15087460D01*
X15236039Y-15087460D02*
X15226515Y-15068412D01*
X15226515Y-15068412D02*
X15226515Y-14896984D01*
X15407468Y-15087460D02*
X15388420Y-15096984D01*
X15388420Y-15096984D02*
X15350325Y-15096984D01*
X15350325Y-15096984D02*
X15331277Y-15087460D01*
X15331277Y-15087460D02*
X15321753Y-15068412D01*
X15321753Y-15068412D02*
X15321753Y-14992222D01*
X15321753Y-14992222D02*
X15331277Y-14973174D01*
X15331277Y-14973174D02*
X15350325Y-14963650D01*
X15350325Y-14963650D02*
X15388420Y-14963650D01*
X15388420Y-14963650D02*
X15407468Y-14973174D01*
X15407468Y-14973174D02*
X15416991Y-14992222D01*
X15416991Y-14992222D02*
X15416991Y-15011269D01*
X15416991Y-15011269D02*
X15321753Y-15030317D01*
X15493182Y-15087460D02*
X15512230Y-15096984D01*
X15512230Y-15096984D02*
X15550325Y-15096984D01*
X15550325Y-15096984D02*
X15569372Y-15087460D01*
X15569372Y-15087460D02*
X15578896Y-15068412D01*
X15578896Y-15068412D02*
X15578896Y-15058888D01*
X15578896Y-15058888D02*
X15569372Y-15039841D01*
X15569372Y-15039841D02*
X15550325Y-15030317D01*
X15550325Y-15030317D02*
X15521753Y-15030317D01*
X15521753Y-15030317D02*
X15502706Y-15020793D01*
X15502706Y-15020793D02*
X15493182Y-15001746D01*
X15493182Y-15001746D02*
X15493182Y-14992222D01*
X15493182Y-14992222D02*
X15502706Y-14973174D01*
X15502706Y-14973174D02*
X15521753Y-14963650D01*
X15521753Y-14963650D02*
X15550325Y-14963650D01*
X15550325Y-14963650D02*
X15569372Y-14973174D01*
X15816992Y-15020793D02*
X15969373Y-15020793D01*
X15893182Y-15096984D02*
X15893182Y-14944603D01*
X16302706Y-14963650D02*
X16302706Y-15096984D01*
X16255087Y-14887460D02*
X16207468Y-15030317D01*
X16207468Y-15030317D02*
X16331277Y-15030317D01*
X16550325Y-15087460D02*
X16569373Y-15096984D01*
X16569373Y-15096984D02*
X16607468Y-15096984D01*
X16607468Y-15096984D02*
X16626515Y-15087460D01*
X16626515Y-15087460D02*
X16636039Y-15068412D01*
X16636039Y-15068412D02*
X16636039Y-15058888D01*
X16636039Y-15058888D02*
X16626515Y-15039841D01*
X16626515Y-15039841D02*
X16607468Y-15030317D01*
X16607468Y-15030317D02*
X16578896Y-15030317D01*
X16578896Y-15030317D02*
X16559849Y-15020793D01*
X16559849Y-15020793D02*
X16550325Y-15001746D01*
X16550325Y-15001746D02*
X16550325Y-14992222D01*
X16550325Y-14992222D02*
X16559849Y-14973174D01*
X16559849Y-14973174D02*
X16578896Y-14963650D01*
X16578896Y-14963650D02*
X16607468Y-14963650D01*
X16607468Y-14963650D02*
X16626515Y-14973174D01*
X16750325Y-15096984D02*
X16731277Y-15087460D01*
X16731277Y-15087460D02*
X16721754Y-15068412D01*
X16721754Y-15068412D02*
X16721754Y-14896984D01*
X16855087Y-15096984D02*
X16836039Y-15087460D01*
X16836039Y-15087460D02*
X16826516Y-15077936D01*
X16826516Y-15077936D02*
X16816992Y-15058888D01*
X16816992Y-15058888D02*
X16816992Y-15001746D01*
X16816992Y-15001746D02*
X16826516Y-14982698D01*
X16826516Y-14982698D02*
X16836039Y-14973174D01*
X16836039Y-14973174D02*
X16855087Y-14963650D01*
X16855087Y-14963650D02*
X16883658Y-14963650D01*
X16883658Y-14963650D02*
X16902706Y-14973174D01*
X16902706Y-14973174D02*
X16912230Y-14982698D01*
X16912230Y-14982698D02*
X16921754Y-15001746D01*
X16921754Y-15001746D02*
X16921754Y-15058888D01*
X16921754Y-15058888D02*
X16912230Y-15077936D01*
X16912230Y-15077936D02*
X16902706Y-15087460D01*
X16902706Y-15087460D02*
X16883658Y-15096984D01*
X16883658Y-15096984D02*
X16855087Y-15096984D01*
X16978897Y-14963650D02*
X17055087Y-14963650D01*
X17007468Y-14896984D02*
X17007468Y-15068412D01*
X17007468Y-15068412D02*
X17016992Y-15087460D01*
X17016992Y-15087460D02*
X17036039Y-15096984D01*
X17036039Y-15096984D02*
X17055087Y-15096984D01*
X17112230Y-15087460D02*
X17131277Y-15096984D01*
X17131277Y-15096984D02*
X17169373Y-15096984D01*
X17169373Y-15096984D02*
X17188420Y-15087460D01*
X17188420Y-15087460D02*
X17197944Y-15068412D01*
X17197944Y-15068412D02*
X17197944Y-15058888D01*
X17197944Y-15058888D02*
X17188420Y-15039841D01*
X17188420Y-15039841D02*
X17169373Y-15030317D01*
X17169373Y-15030317D02*
X17140801Y-15030317D01*
X17140801Y-15030317D02*
X17121754Y-15020793D01*
X17121754Y-15020793D02*
X17112230Y-15001746D01*
X17112230Y-15001746D02*
X17112230Y-14992222D01*
X17112230Y-14992222D02*
X17121754Y-14973174D01*
X17121754Y-14973174D02*
X17140801Y-14963650D01*
X17140801Y-14963650D02*
X17169373Y-14963650D01*
X17169373Y-14963650D02*
X17188420Y-14973174D01*
X17264611Y-15173174D02*
X17274135Y-15163650D01*
X17274135Y-15163650D02*
X17293182Y-15135079D01*
X17293182Y-15135079D02*
X17302706Y-15116031D01*
X17302706Y-15116031D02*
X17312230Y-15087460D01*
X17312230Y-15087460D02*
X17321754Y-15039841D01*
X17321754Y-15039841D02*
X17321754Y-15001746D01*
X17321754Y-15001746D02*
X17312230Y-14954127D01*
X17312230Y-14954127D02*
X17302706Y-14925555D01*
X17302706Y-14925555D02*
X17293182Y-14906508D01*
X17293182Y-14906508D02*
X17274135Y-14877936D01*
X17274135Y-14877936D02*
X17264611Y-14868412D01*
D12*
X10855856Y-15304856D02*
X10855856Y-15234144D01*
X10785144Y-15234144D01*
X10785144Y-15304856D01*
X10855856Y-15304856D01*
D11*
X11236039Y-15360984D02*
X11121753Y-15360984D01*
X11178896Y-15360984D02*
X11178896Y-15160984D01*
X11178896Y-15160984D02*
X11159848Y-15189555D01*
X11159848Y-15189555D02*
X11140801Y-15208603D01*
X11140801Y-15208603D02*
X11121753Y-15218127D01*
X11321753Y-15341936D02*
X11331277Y-15351460D01*
X11331277Y-15351460D02*
X11321753Y-15360984D01*
X11321753Y-15360984D02*
X11312229Y-15351460D01*
X11312229Y-15351460D02*
X11321753Y-15341936D01*
X11321753Y-15341936D02*
X11321753Y-15360984D01*
X11455086Y-15160984D02*
X11474134Y-15160984D01*
X11474134Y-15160984D02*
X11493182Y-15170508D01*
X11493182Y-15170508D02*
X11502705Y-15180031D01*
X11502705Y-15180031D02*
X11512229Y-15199079D01*
X11512229Y-15199079D02*
X11521753Y-15237174D01*
X11521753Y-15237174D02*
X11521753Y-15284793D01*
X11521753Y-15284793D02*
X11512229Y-15322888D01*
X11512229Y-15322888D02*
X11502705Y-15341936D01*
X11502705Y-15341936D02*
X11493182Y-15351460D01*
X11493182Y-15351460D02*
X11474134Y-15360984D01*
X11474134Y-15360984D02*
X11455086Y-15360984D01*
X11455086Y-15360984D02*
X11436039Y-15351460D01*
X11436039Y-15351460D02*
X11426515Y-15341936D01*
X11426515Y-15341936D02*
X11416991Y-15322888D01*
X11416991Y-15322888D02*
X11407467Y-15284793D01*
X11407467Y-15284793D02*
X11407467Y-15237174D01*
X11407467Y-15237174D02*
X11416991Y-15199079D01*
X11416991Y-15199079D02*
X11426515Y-15180031D01*
X11426515Y-15180031D02*
X11436039Y-15170508D01*
X11436039Y-15170508D02*
X11455086Y-15160984D01*
X11645562Y-15160984D02*
X11664610Y-15160984D01*
X11664610Y-15160984D02*
X11683658Y-15170508D01*
X11683658Y-15170508D02*
X11693182Y-15180031D01*
X11693182Y-15180031D02*
X11702705Y-15199079D01*
X11702705Y-15199079D02*
X11712229Y-15237174D01*
X11712229Y-15237174D02*
X11712229Y-15284793D01*
X11712229Y-15284793D02*
X11702705Y-15322888D01*
X11702705Y-15322888D02*
X11693182Y-15341936D01*
X11693182Y-15341936D02*
X11683658Y-15351460D01*
X11683658Y-15351460D02*
X11664610Y-15360984D01*
X11664610Y-15360984D02*
X11645562Y-15360984D01*
X11645562Y-15360984D02*
X11626515Y-15351460D01*
X11626515Y-15351460D02*
X11616991Y-15341936D01*
X11616991Y-15341936D02*
X11607467Y-15322888D01*
X11607467Y-15322888D02*
X11597943Y-15284793D01*
X11597943Y-15284793D02*
X11597943Y-15237174D01*
X11597943Y-15237174D02*
X11607467Y-15199079D01*
X11607467Y-15199079D02*
X11616991Y-15180031D01*
X11616991Y-15180031D02*
X11626515Y-15170508D01*
X11626515Y-15170508D02*
X11645562Y-15160984D01*
X11836039Y-15160984D02*
X11855086Y-15160984D01*
X11855086Y-15160984D02*
X11874134Y-15170508D01*
X11874134Y-15170508D02*
X11883658Y-15180031D01*
X11883658Y-15180031D02*
X11893182Y-15199079D01*
X11893182Y-15199079D02*
X11902705Y-15237174D01*
X11902705Y-15237174D02*
X11902705Y-15284793D01*
X11902705Y-15284793D02*
X11893182Y-15322888D01*
X11893182Y-15322888D02*
X11883658Y-15341936D01*
X11883658Y-15341936D02*
X11874134Y-15351460D01*
X11874134Y-15351460D02*
X11855086Y-15360984D01*
X11855086Y-15360984D02*
X11836039Y-15360984D01*
X11836039Y-15360984D02*
X11816991Y-15351460D01*
X11816991Y-15351460D02*
X11807467Y-15341936D01*
X11807467Y-15341936D02*
X11797943Y-15322888D01*
X11797943Y-15322888D02*
X11788420Y-15284793D01*
X11788420Y-15284793D02*
X11788420Y-15237174D01*
X11788420Y-15237174D02*
X11797943Y-15199079D01*
X11797943Y-15199079D02*
X11807467Y-15180031D01*
X11807467Y-15180031D02*
X11816991Y-15170508D01*
X11816991Y-15170508D02*
X11836039Y-15160984D01*
X11988420Y-15360984D02*
X11988420Y-15227650D01*
X11988420Y-15246698D02*
X11997943Y-15237174D01*
X11997943Y-15237174D02*
X12016991Y-15227650D01*
X12016991Y-15227650D02*
X12045563Y-15227650D01*
X12045563Y-15227650D02*
X12064610Y-15237174D01*
X12064610Y-15237174D02*
X12074134Y-15256222D01*
X12074134Y-15256222D02*
X12074134Y-15360984D01*
X12074134Y-15256222D02*
X12083658Y-15237174D01*
X12083658Y-15237174D02*
X12102705Y-15227650D01*
X12102705Y-15227650D02*
X12131277Y-15227650D01*
X12131277Y-15227650D02*
X12150324Y-15237174D01*
X12150324Y-15237174D02*
X12159848Y-15256222D01*
X12159848Y-15256222D02*
X12159848Y-15360984D01*
X12255086Y-15360984D02*
X12255086Y-15227650D01*
X12255086Y-15246698D02*
X12264610Y-15237174D01*
X12264610Y-15237174D02*
X12283658Y-15227650D01*
X12283658Y-15227650D02*
X12312229Y-15227650D01*
X12312229Y-15227650D02*
X12331277Y-15237174D01*
X12331277Y-15237174D02*
X12340801Y-15256222D01*
X12340801Y-15256222D02*
X12340801Y-15360984D01*
X12340801Y-15256222D02*
X12350324Y-15237174D01*
X12350324Y-15237174D02*
X12369372Y-15227650D01*
X12369372Y-15227650D02*
X12397943Y-15227650D01*
X12397943Y-15227650D02*
X12416991Y-15237174D01*
X12416991Y-15237174D02*
X12426515Y-15256222D01*
X12426515Y-15256222D02*
X12426515Y-15360984D01*
X12816991Y-15151460D02*
X12645563Y-15408603D01*
X13074134Y-15160984D02*
X13093182Y-15160984D01*
X13093182Y-15160984D02*
X13112229Y-15170508D01*
X13112229Y-15170508D02*
X13121753Y-15180031D01*
X13121753Y-15180031D02*
X13131277Y-15199079D01*
X13131277Y-15199079D02*
X13140801Y-15237174D01*
X13140801Y-15237174D02*
X13140801Y-15284793D01*
X13140801Y-15284793D02*
X13131277Y-15322888D01*
X13131277Y-15322888D02*
X13121753Y-15341936D01*
X13121753Y-15341936D02*
X13112229Y-15351460D01*
X13112229Y-15351460D02*
X13093182Y-15360984D01*
X13093182Y-15360984D02*
X13074134Y-15360984D01*
X13074134Y-15360984D02*
X13055086Y-15351460D01*
X13055086Y-15351460D02*
X13045563Y-15341936D01*
X13045563Y-15341936D02*
X13036039Y-15322888D01*
X13036039Y-15322888D02*
X13026515Y-15284793D01*
X13026515Y-15284793D02*
X13026515Y-15237174D01*
X13026515Y-15237174D02*
X13036039Y-15199079D01*
X13036039Y-15199079D02*
X13045563Y-15180031D01*
X13045563Y-15180031D02*
X13055086Y-15170508D01*
X13055086Y-15170508D02*
X13074134Y-15160984D01*
X13226515Y-15341936D02*
X13236039Y-15351460D01*
X13236039Y-15351460D02*
X13226515Y-15360984D01*
X13226515Y-15360984D02*
X13216991Y-15351460D01*
X13216991Y-15351460D02*
X13226515Y-15341936D01*
X13226515Y-15341936D02*
X13226515Y-15360984D01*
X13359848Y-15160984D02*
X13378896Y-15160984D01*
X13378896Y-15160984D02*
X13397944Y-15170508D01*
X13397944Y-15170508D02*
X13407467Y-15180031D01*
X13407467Y-15180031D02*
X13416991Y-15199079D01*
X13416991Y-15199079D02*
X13426515Y-15237174D01*
X13426515Y-15237174D02*
X13426515Y-15284793D01*
X13426515Y-15284793D02*
X13416991Y-15322888D01*
X13416991Y-15322888D02*
X13407467Y-15341936D01*
X13407467Y-15341936D02*
X13397944Y-15351460D01*
X13397944Y-15351460D02*
X13378896Y-15360984D01*
X13378896Y-15360984D02*
X13359848Y-15360984D01*
X13359848Y-15360984D02*
X13340801Y-15351460D01*
X13340801Y-15351460D02*
X13331277Y-15341936D01*
X13331277Y-15341936D02*
X13321753Y-15322888D01*
X13321753Y-15322888D02*
X13312229Y-15284793D01*
X13312229Y-15284793D02*
X13312229Y-15237174D01*
X13312229Y-15237174D02*
X13321753Y-15199079D01*
X13321753Y-15199079D02*
X13331277Y-15180031D01*
X13331277Y-15180031D02*
X13340801Y-15170508D01*
X13340801Y-15170508D02*
X13359848Y-15160984D01*
X13493182Y-15160984D02*
X13616991Y-15160984D01*
X13616991Y-15160984D02*
X13550325Y-15237174D01*
X13550325Y-15237174D02*
X13578896Y-15237174D01*
X13578896Y-15237174D02*
X13597944Y-15246698D01*
X13597944Y-15246698D02*
X13607467Y-15256222D01*
X13607467Y-15256222D02*
X13616991Y-15275269D01*
X13616991Y-15275269D02*
X13616991Y-15322888D01*
X13616991Y-15322888D02*
X13607467Y-15341936D01*
X13607467Y-15341936D02*
X13597944Y-15351460D01*
X13597944Y-15351460D02*
X13578896Y-15360984D01*
X13578896Y-15360984D02*
X13521753Y-15360984D01*
X13521753Y-15360984D02*
X13502706Y-15351460D01*
X13502706Y-15351460D02*
X13493182Y-15341936D01*
X13712229Y-15360984D02*
X13750325Y-15360984D01*
X13750325Y-15360984D02*
X13769372Y-15351460D01*
X13769372Y-15351460D02*
X13778896Y-15341936D01*
X13778896Y-15341936D02*
X13797944Y-15313365D01*
X13797944Y-15313365D02*
X13807467Y-15275269D01*
X13807467Y-15275269D02*
X13807467Y-15199079D01*
X13807467Y-15199079D02*
X13797944Y-15180031D01*
X13797944Y-15180031D02*
X13788420Y-15170508D01*
X13788420Y-15170508D02*
X13769372Y-15160984D01*
X13769372Y-15160984D02*
X13731277Y-15160984D01*
X13731277Y-15160984D02*
X13712229Y-15170508D01*
X13712229Y-15170508D02*
X13702706Y-15180031D01*
X13702706Y-15180031D02*
X13693182Y-15199079D01*
X13693182Y-15199079D02*
X13693182Y-15246698D01*
X13693182Y-15246698D02*
X13702706Y-15265746D01*
X13702706Y-15265746D02*
X13712229Y-15275269D01*
X13712229Y-15275269D02*
X13731277Y-15284793D01*
X13731277Y-15284793D02*
X13769372Y-15284793D01*
X13769372Y-15284793D02*
X13788420Y-15275269D01*
X13788420Y-15275269D02*
X13797944Y-15265746D01*
X13797944Y-15265746D02*
X13807467Y-15246698D01*
X13978896Y-15227650D02*
X13978896Y-15360984D01*
X13931277Y-15151460D02*
X13883658Y-15294317D01*
X13883658Y-15294317D02*
X14007467Y-15294317D01*
X14074134Y-15160984D02*
X14074134Y-15199079D01*
X14150325Y-15160984D02*
X14150325Y-15199079D01*
X14445563Y-15437174D02*
X14436039Y-15427650D01*
X14436039Y-15427650D02*
X14416991Y-15399079D01*
X14416991Y-15399079D02*
X14407468Y-15380031D01*
X14407468Y-15380031D02*
X14397944Y-15351460D01*
X14397944Y-15351460D02*
X14388420Y-15303841D01*
X14388420Y-15303841D02*
X14388420Y-15265746D01*
X14388420Y-15265746D02*
X14397944Y-15218127D01*
X14397944Y-15218127D02*
X14407468Y-15189555D01*
X14407468Y-15189555D02*
X14416991Y-15170508D01*
X14416991Y-15170508D02*
X14436039Y-15141936D01*
X14436039Y-15141936D02*
X14445563Y-15132412D01*
X14626515Y-15360984D02*
X14512229Y-15360984D01*
X14569372Y-15360984D02*
X14569372Y-15160984D01*
X14569372Y-15160984D02*
X14550325Y-15189555D01*
X14550325Y-15189555D02*
X14531277Y-15208603D01*
X14531277Y-15208603D02*
X14512229Y-15218127D01*
X14721753Y-15360984D02*
X14759848Y-15360984D01*
X14759848Y-15360984D02*
X14778896Y-15351460D01*
X14778896Y-15351460D02*
X14788420Y-15341936D01*
X14788420Y-15341936D02*
X14807468Y-15313365D01*
X14807468Y-15313365D02*
X14816991Y-15275269D01*
X14816991Y-15275269D02*
X14816991Y-15199079D01*
X14816991Y-15199079D02*
X14807468Y-15180031D01*
X14807468Y-15180031D02*
X14797944Y-15170508D01*
X14797944Y-15170508D02*
X14778896Y-15160984D01*
X14778896Y-15160984D02*
X14740801Y-15160984D01*
X14740801Y-15160984D02*
X14721753Y-15170508D01*
X14721753Y-15170508D02*
X14712229Y-15180031D01*
X14712229Y-15180031D02*
X14702706Y-15199079D01*
X14702706Y-15199079D02*
X14702706Y-15246698D01*
X14702706Y-15246698D02*
X14712229Y-15265746D01*
X14712229Y-15265746D02*
X14721753Y-15275269D01*
X14721753Y-15275269D02*
X14740801Y-15284793D01*
X14740801Y-15284793D02*
X14778896Y-15284793D01*
X14778896Y-15284793D02*
X14797944Y-15275269D01*
X14797944Y-15275269D02*
X14807468Y-15265746D01*
X14807468Y-15265746D02*
X14816991Y-15246698D01*
X15055087Y-15360984D02*
X15055087Y-15160984D01*
X15140801Y-15360984D02*
X15140801Y-15256222D01*
X15140801Y-15256222D02*
X15131277Y-15237174D01*
X15131277Y-15237174D02*
X15112230Y-15227650D01*
X15112230Y-15227650D02*
X15083658Y-15227650D01*
X15083658Y-15227650D02*
X15064610Y-15237174D01*
X15064610Y-15237174D02*
X15055087Y-15246698D01*
X15264610Y-15360984D02*
X15245563Y-15351460D01*
X15245563Y-15351460D02*
X15236039Y-15341936D01*
X15236039Y-15341936D02*
X15226515Y-15322888D01*
X15226515Y-15322888D02*
X15226515Y-15265746D01*
X15226515Y-15265746D02*
X15236039Y-15246698D01*
X15236039Y-15246698D02*
X15245563Y-15237174D01*
X15245563Y-15237174D02*
X15264610Y-15227650D01*
X15264610Y-15227650D02*
X15293182Y-15227650D01*
X15293182Y-15227650D02*
X15312230Y-15237174D01*
X15312230Y-15237174D02*
X15321753Y-15246698D01*
X15321753Y-15246698D02*
X15331277Y-15265746D01*
X15331277Y-15265746D02*
X15331277Y-15322888D01*
X15331277Y-15322888D02*
X15321753Y-15341936D01*
X15321753Y-15341936D02*
X15312230Y-15351460D01*
X15312230Y-15351460D02*
X15293182Y-15360984D01*
X15293182Y-15360984D02*
X15264610Y-15360984D01*
X15445563Y-15360984D02*
X15426515Y-15351460D01*
X15426515Y-15351460D02*
X15416991Y-15332412D01*
X15416991Y-15332412D02*
X15416991Y-15160984D01*
X15597944Y-15351460D02*
X15578896Y-15360984D01*
X15578896Y-15360984D02*
X15540801Y-15360984D01*
X15540801Y-15360984D02*
X15521753Y-15351460D01*
X15521753Y-15351460D02*
X15512230Y-15332412D01*
X15512230Y-15332412D02*
X15512230Y-15256222D01*
X15512230Y-15256222D02*
X15521753Y-15237174D01*
X15521753Y-15237174D02*
X15540801Y-15227650D01*
X15540801Y-15227650D02*
X15578896Y-15227650D01*
X15578896Y-15227650D02*
X15597944Y-15237174D01*
X15597944Y-15237174D02*
X15607468Y-15256222D01*
X15607468Y-15256222D02*
X15607468Y-15275269D01*
X15607468Y-15275269D02*
X15512230Y-15294317D01*
X15683658Y-15351460D02*
X15702706Y-15360984D01*
X15702706Y-15360984D02*
X15740801Y-15360984D01*
X15740801Y-15360984D02*
X15759849Y-15351460D01*
X15759849Y-15351460D02*
X15769372Y-15332412D01*
X15769372Y-15332412D02*
X15769372Y-15322888D01*
X15769372Y-15322888D02*
X15759849Y-15303841D01*
X15759849Y-15303841D02*
X15740801Y-15294317D01*
X15740801Y-15294317D02*
X15712230Y-15294317D01*
X15712230Y-15294317D02*
X15693182Y-15284793D01*
X15693182Y-15284793D02*
X15683658Y-15265746D01*
X15683658Y-15265746D02*
X15683658Y-15256222D01*
X15683658Y-15256222D02*
X15693182Y-15237174D01*
X15693182Y-15237174D02*
X15712230Y-15227650D01*
X15712230Y-15227650D02*
X15740801Y-15227650D01*
X15740801Y-15227650D02*
X15759849Y-15237174D01*
X15836039Y-15437174D02*
X15845563Y-15427650D01*
X15845563Y-15427650D02*
X15864611Y-15399079D01*
X15864611Y-15399079D02*
X15874134Y-15380031D01*
X15874134Y-15380031D02*
X15883658Y-15351460D01*
X15883658Y-15351460D02*
X15893182Y-15303841D01*
X15893182Y-15303841D02*
X15893182Y-15265746D01*
X15893182Y-15265746D02*
X15883658Y-15218127D01*
X15883658Y-15218127D02*
X15874134Y-15189555D01*
X15874134Y-15189555D02*
X15864611Y-15170508D01*
X15864611Y-15170508D02*
X15845563Y-15141936D01*
X15845563Y-15141936D02*
X15836039Y-15132412D01*
D13*
X10815500Y-15588500D02*
X10870500Y-15533500D01*
X10815500Y-15478500D01*
X10760500Y-15533500D01*
X10815500Y-15588500D01*
D11*
X11236039Y-15624984D02*
X11121753Y-15624984D01*
X11178896Y-15624984D02*
X11178896Y-15424984D01*
X11178896Y-15424984D02*
X11159848Y-15453555D01*
X11159848Y-15453555D02*
X11140801Y-15472603D01*
X11140801Y-15472603D02*
X11121753Y-15482127D01*
X11321753Y-15605936D02*
X11331277Y-15615460D01*
X11331277Y-15615460D02*
X11321753Y-15624984D01*
X11321753Y-15624984D02*
X11312229Y-15615460D01*
X11312229Y-15615460D02*
X11321753Y-15605936D01*
X11321753Y-15605936D02*
X11321753Y-15624984D01*
X11521753Y-15624984D02*
X11407467Y-15624984D01*
X11464610Y-15624984D02*
X11464610Y-15424984D01*
X11464610Y-15424984D02*
X11445562Y-15453555D01*
X11445562Y-15453555D02*
X11426515Y-15472603D01*
X11426515Y-15472603D02*
X11407467Y-15482127D01*
X11645562Y-15424984D02*
X11664610Y-15424984D01*
X11664610Y-15424984D02*
X11683658Y-15434508D01*
X11683658Y-15434508D02*
X11693182Y-15444031D01*
X11693182Y-15444031D02*
X11702705Y-15463079D01*
X11702705Y-15463079D02*
X11712229Y-15501174D01*
X11712229Y-15501174D02*
X11712229Y-15548793D01*
X11712229Y-15548793D02*
X11702705Y-15586888D01*
X11702705Y-15586888D02*
X11693182Y-15605936D01*
X11693182Y-15605936D02*
X11683658Y-15615460D01*
X11683658Y-15615460D02*
X11664610Y-15624984D01*
X11664610Y-15624984D02*
X11645562Y-15624984D01*
X11645562Y-15624984D02*
X11626515Y-15615460D01*
X11626515Y-15615460D02*
X11616991Y-15605936D01*
X11616991Y-15605936D02*
X11607467Y-15586888D01*
X11607467Y-15586888D02*
X11597943Y-15548793D01*
X11597943Y-15548793D02*
X11597943Y-15501174D01*
X11597943Y-15501174D02*
X11607467Y-15463079D01*
X11607467Y-15463079D02*
X11616991Y-15444031D01*
X11616991Y-15444031D02*
X11626515Y-15434508D01*
X11626515Y-15434508D02*
X11645562Y-15424984D01*
X11836039Y-15424984D02*
X11855086Y-15424984D01*
X11855086Y-15424984D02*
X11874134Y-15434508D01*
X11874134Y-15434508D02*
X11883658Y-15444031D01*
X11883658Y-15444031D02*
X11893182Y-15463079D01*
X11893182Y-15463079D02*
X11902705Y-15501174D01*
X11902705Y-15501174D02*
X11902705Y-15548793D01*
X11902705Y-15548793D02*
X11893182Y-15586888D01*
X11893182Y-15586888D02*
X11883658Y-15605936D01*
X11883658Y-15605936D02*
X11874134Y-15615460D01*
X11874134Y-15615460D02*
X11855086Y-15624984D01*
X11855086Y-15624984D02*
X11836039Y-15624984D01*
X11836039Y-15624984D02*
X11816991Y-15615460D01*
X11816991Y-15615460D02*
X11807467Y-15605936D01*
X11807467Y-15605936D02*
X11797943Y-15586888D01*
X11797943Y-15586888D02*
X11788420Y-15548793D01*
X11788420Y-15548793D02*
X11788420Y-15501174D01*
X11788420Y-15501174D02*
X11797943Y-15463079D01*
X11797943Y-15463079D02*
X11807467Y-15444031D01*
X11807467Y-15444031D02*
X11816991Y-15434508D01*
X11816991Y-15434508D02*
X11836039Y-15424984D01*
X11988420Y-15624984D02*
X11988420Y-15491650D01*
X11988420Y-15510698D02*
X11997943Y-15501174D01*
X11997943Y-15501174D02*
X12016991Y-15491650D01*
X12016991Y-15491650D02*
X12045563Y-15491650D01*
X12045563Y-15491650D02*
X12064610Y-15501174D01*
X12064610Y-15501174D02*
X12074134Y-15520222D01*
X12074134Y-15520222D02*
X12074134Y-15624984D01*
X12074134Y-15520222D02*
X12083658Y-15501174D01*
X12083658Y-15501174D02*
X12102705Y-15491650D01*
X12102705Y-15491650D02*
X12131277Y-15491650D01*
X12131277Y-15491650D02*
X12150324Y-15501174D01*
X12150324Y-15501174D02*
X12159848Y-15520222D01*
X12159848Y-15520222D02*
X12159848Y-15624984D01*
X12255086Y-15624984D02*
X12255086Y-15491650D01*
X12255086Y-15510698D02*
X12264610Y-15501174D01*
X12264610Y-15501174D02*
X12283658Y-15491650D01*
X12283658Y-15491650D02*
X12312229Y-15491650D01*
X12312229Y-15491650D02*
X12331277Y-15501174D01*
X12331277Y-15501174D02*
X12340801Y-15520222D01*
X12340801Y-15520222D02*
X12340801Y-15624984D01*
X12340801Y-15520222D02*
X12350324Y-15501174D01*
X12350324Y-15501174D02*
X12369372Y-15491650D01*
X12369372Y-15491650D02*
X12397943Y-15491650D01*
X12397943Y-15491650D02*
X12416991Y-15501174D01*
X12416991Y-15501174D02*
X12426515Y-15520222D01*
X12426515Y-15520222D02*
X12426515Y-15624984D01*
X12816991Y-15415460D02*
X12645563Y-15672603D01*
X13074134Y-15424984D02*
X13093182Y-15424984D01*
X13093182Y-15424984D02*
X13112229Y-15434508D01*
X13112229Y-15434508D02*
X13121753Y-15444031D01*
X13121753Y-15444031D02*
X13131277Y-15463079D01*
X13131277Y-15463079D02*
X13140801Y-15501174D01*
X13140801Y-15501174D02*
X13140801Y-15548793D01*
X13140801Y-15548793D02*
X13131277Y-15586888D01*
X13131277Y-15586888D02*
X13121753Y-15605936D01*
X13121753Y-15605936D02*
X13112229Y-15615460D01*
X13112229Y-15615460D02*
X13093182Y-15624984D01*
X13093182Y-15624984D02*
X13074134Y-15624984D01*
X13074134Y-15624984D02*
X13055086Y-15615460D01*
X13055086Y-15615460D02*
X13045563Y-15605936D01*
X13045563Y-15605936D02*
X13036039Y-15586888D01*
X13036039Y-15586888D02*
X13026515Y-15548793D01*
X13026515Y-15548793D02*
X13026515Y-15501174D01*
X13026515Y-15501174D02*
X13036039Y-15463079D01*
X13036039Y-15463079D02*
X13045563Y-15444031D01*
X13045563Y-15444031D02*
X13055086Y-15434508D01*
X13055086Y-15434508D02*
X13074134Y-15424984D01*
X13226515Y-15605936D02*
X13236039Y-15615460D01*
X13236039Y-15615460D02*
X13226515Y-15624984D01*
X13226515Y-15624984D02*
X13216991Y-15615460D01*
X13216991Y-15615460D02*
X13226515Y-15605936D01*
X13226515Y-15605936D02*
X13226515Y-15624984D01*
X13359848Y-15424984D02*
X13378896Y-15424984D01*
X13378896Y-15424984D02*
X13397944Y-15434508D01*
X13397944Y-15434508D02*
X13407467Y-15444031D01*
X13407467Y-15444031D02*
X13416991Y-15463079D01*
X13416991Y-15463079D02*
X13426515Y-15501174D01*
X13426515Y-15501174D02*
X13426515Y-15548793D01*
X13426515Y-15548793D02*
X13416991Y-15586888D01*
X13416991Y-15586888D02*
X13407467Y-15605936D01*
X13407467Y-15605936D02*
X13397944Y-15615460D01*
X13397944Y-15615460D02*
X13378896Y-15624984D01*
X13378896Y-15624984D02*
X13359848Y-15624984D01*
X13359848Y-15624984D02*
X13340801Y-15615460D01*
X13340801Y-15615460D02*
X13331277Y-15605936D01*
X13331277Y-15605936D02*
X13321753Y-15586888D01*
X13321753Y-15586888D02*
X13312229Y-15548793D01*
X13312229Y-15548793D02*
X13312229Y-15501174D01*
X13312229Y-15501174D02*
X13321753Y-15463079D01*
X13321753Y-15463079D02*
X13331277Y-15444031D01*
X13331277Y-15444031D02*
X13340801Y-15434508D01*
X13340801Y-15434508D02*
X13359848Y-15424984D01*
X13597944Y-15491650D02*
X13597944Y-15624984D01*
X13550325Y-15415460D02*
X13502706Y-15558317D01*
X13502706Y-15558317D02*
X13626515Y-15558317D01*
X13683658Y-15424984D02*
X13807467Y-15424984D01*
X13807467Y-15424984D02*
X13740801Y-15501174D01*
X13740801Y-15501174D02*
X13769372Y-15501174D01*
X13769372Y-15501174D02*
X13788420Y-15510698D01*
X13788420Y-15510698D02*
X13797944Y-15520222D01*
X13797944Y-15520222D02*
X13807467Y-15539269D01*
X13807467Y-15539269D02*
X13807467Y-15586888D01*
X13807467Y-15586888D02*
X13797944Y-15605936D01*
X13797944Y-15605936D02*
X13788420Y-15615460D01*
X13788420Y-15615460D02*
X13769372Y-15624984D01*
X13769372Y-15624984D02*
X13712229Y-15624984D01*
X13712229Y-15624984D02*
X13693182Y-15615460D01*
X13693182Y-15615460D02*
X13683658Y-15605936D01*
X13874134Y-15424984D02*
X13997944Y-15424984D01*
X13997944Y-15424984D02*
X13931277Y-15501174D01*
X13931277Y-15501174D02*
X13959848Y-15501174D01*
X13959848Y-15501174D02*
X13978896Y-15510698D01*
X13978896Y-15510698D02*
X13988420Y-15520222D01*
X13988420Y-15520222D02*
X13997944Y-15539269D01*
X13997944Y-15539269D02*
X13997944Y-15586888D01*
X13997944Y-15586888D02*
X13988420Y-15605936D01*
X13988420Y-15605936D02*
X13978896Y-15615460D01*
X13978896Y-15615460D02*
X13959848Y-15624984D01*
X13959848Y-15624984D02*
X13902706Y-15624984D01*
X13902706Y-15624984D02*
X13883658Y-15615460D01*
X13883658Y-15615460D02*
X13874134Y-15605936D01*
X14074134Y-15424984D02*
X14074134Y-15463079D01*
X14150325Y-15424984D02*
X14150325Y-15463079D01*
X14445563Y-15701174D02*
X14436039Y-15691650D01*
X14436039Y-15691650D02*
X14416991Y-15663079D01*
X14416991Y-15663079D02*
X14407468Y-15644031D01*
X14407468Y-15644031D02*
X14397944Y-15615460D01*
X14397944Y-15615460D02*
X14388420Y-15567841D01*
X14388420Y-15567841D02*
X14388420Y-15529746D01*
X14388420Y-15529746D02*
X14397944Y-15482127D01*
X14397944Y-15482127D02*
X14407468Y-15453555D01*
X14407468Y-15453555D02*
X14416991Y-15434508D01*
X14416991Y-15434508D02*
X14436039Y-15405936D01*
X14436039Y-15405936D02*
X14445563Y-15396412D01*
X14550325Y-15510698D02*
X14531277Y-15501174D01*
X14531277Y-15501174D02*
X14521753Y-15491650D01*
X14521753Y-15491650D02*
X14512229Y-15472603D01*
X14512229Y-15472603D02*
X14512229Y-15463079D01*
X14512229Y-15463079D02*
X14521753Y-15444031D01*
X14521753Y-15444031D02*
X14531277Y-15434508D01*
X14531277Y-15434508D02*
X14550325Y-15424984D01*
X14550325Y-15424984D02*
X14588420Y-15424984D01*
X14588420Y-15424984D02*
X14607468Y-15434508D01*
X14607468Y-15434508D02*
X14616991Y-15444031D01*
X14616991Y-15444031D02*
X14626515Y-15463079D01*
X14626515Y-15463079D02*
X14626515Y-15472603D01*
X14626515Y-15472603D02*
X14616991Y-15491650D01*
X14616991Y-15491650D02*
X14607468Y-15501174D01*
X14607468Y-15501174D02*
X14588420Y-15510698D01*
X14588420Y-15510698D02*
X14550325Y-15510698D01*
X14550325Y-15510698D02*
X14531277Y-15520222D01*
X14531277Y-15520222D02*
X14521753Y-15529746D01*
X14521753Y-15529746D02*
X14512229Y-15548793D01*
X14512229Y-15548793D02*
X14512229Y-15586888D01*
X14512229Y-15586888D02*
X14521753Y-15605936D01*
X14521753Y-15605936D02*
X14531277Y-15615460D01*
X14531277Y-15615460D02*
X14550325Y-15624984D01*
X14550325Y-15624984D02*
X14588420Y-15624984D01*
X14588420Y-15624984D02*
X14607468Y-15615460D01*
X14607468Y-15615460D02*
X14616991Y-15605936D01*
X14616991Y-15605936D02*
X14626515Y-15586888D01*
X14626515Y-15586888D02*
X14626515Y-15548793D01*
X14626515Y-15548793D02*
X14616991Y-15529746D01*
X14616991Y-15529746D02*
X14607468Y-15520222D01*
X14607468Y-15520222D02*
X14588420Y-15510698D01*
X14864610Y-15624984D02*
X14864610Y-15424984D01*
X14950325Y-15624984D02*
X14950325Y-15520222D01*
X14950325Y-15520222D02*
X14940801Y-15501174D01*
X14940801Y-15501174D02*
X14921753Y-15491650D01*
X14921753Y-15491650D02*
X14893182Y-15491650D01*
X14893182Y-15491650D02*
X14874134Y-15501174D01*
X14874134Y-15501174D02*
X14864610Y-15510698D01*
X15074134Y-15624984D02*
X15055087Y-15615460D01*
X15055087Y-15615460D02*
X15045563Y-15605936D01*
X15045563Y-15605936D02*
X15036039Y-15586888D01*
X15036039Y-15586888D02*
X15036039Y-15529746D01*
X15036039Y-15529746D02*
X15045563Y-15510698D01*
X15045563Y-15510698D02*
X15055087Y-15501174D01*
X15055087Y-15501174D02*
X15074134Y-15491650D01*
X15074134Y-15491650D02*
X15102706Y-15491650D01*
X15102706Y-15491650D02*
X15121753Y-15501174D01*
X15121753Y-15501174D02*
X15131277Y-15510698D01*
X15131277Y-15510698D02*
X15140801Y-15529746D01*
X15140801Y-15529746D02*
X15140801Y-15586888D01*
X15140801Y-15586888D02*
X15131277Y-15605936D01*
X15131277Y-15605936D02*
X15121753Y-15615460D01*
X15121753Y-15615460D02*
X15102706Y-15624984D01*
X15102706Y-15624984D02*
X15074134Y-15624984D01*
X15255087Y-15624984D02*
X15236039Y-15615460D01*
X15236039Y-15615460D02*
X15226515Y-15596412D01*
X15226515Y-15596412D02*
X15226515Y-15424984D01*
X15407468Y-15615460D02*
X15388420Y-15624984D01*
X15388420Y-15624984D02*
X15350325Y-15624984D01*
X15350325Y-15624984D02*
X15331277Y-15615460D01*
X15331277Y-15615460D02*
X15321753Y-15596412D01*
X15321753Y-15596412D02*
X15321753Y-15520222D01*
X15321753Y-15520222D02*
X15331277Y-15501174D01*
X15331277Y-15501174D02*
X15350325Y-15491650D01*
X15350325Y-15491650D02*
X15388420Y-15491650D01*
X15388420Y-15491650D02*
X15407468Y-15501174D01*
X15407468Y-15501174D02*
X15416991Y-15520222D01*
X15416991Y-15520222D02*
X15416991Y-15539269D01*
X15416991Y-15539269D02*
X15321753Y-15558317D01*
X15493182Y-15615460D02*
X15512230Y-15624984D01*
X15512230Y-15624984D02*
X15550325Y-15624984D01*
X15550325Y-15624984D02*
X15569372Y-15615460D01*
X15569372Y-15615460D02*
X15578896Y-15596412D01*
X15578896Y-15596412D02*
X15578896Y-15586888D01*
X15578896Y-15586888D02*
X15569372Y-15567841D01*
X15569372Y-15567841D02*
X15550325Y-15558317D01*
X15550325Y-15558317D02*
X15521753Y-15558317D01*
X15521753Y-15558317D02*
X15502706Y-15548793D01*
X15502706Y-15548793D02*
X15493182Y-15529746D01*
X15493182Y-15529746D02*
X15493182Y-15520222D01*
X15493182Y-15520222D02*
X15502706Y-15501174D01*
X15502706Y-15501174D02*
X15521753Y-15491650D01*
X15521753Y-15491650D02*
X15550325Y-15491650D01*
X15550325Y-15491650D02*
X15569372Y-15501174D01*
X15645563Y-15701174D02*
X15655087Y-15691650D01*
X15655087Y-15691650D02*
X15674134Y-15663079D01*
X15674134Y-15663079D02*
X15683658Y-15644031D01*
X15683658Y-15644031D02*
X15693182Y-15615460D01*
X15693182Y-15615460D02*
X15702706Y-15567841D01*
X15702706Y-15567841D02*
X15702706Y-15529746D01*
X15702706Y-15529746D02*
X15693182Y-15482127D01*
X15693182Y-15482127D02*
X15683658Y-15453555D01*
X15683658Y-15453555D02*
X15674134Y-15434508D01*
X15674134Y-15434508D02*
X15655087Y-15405936D01*
X15655087Y-15405936D02*
X15645563Y-15396412D01*
M02*
