%TF.GenerationSoftware,KiCad,Pcbnew,10.0.0*%
%TF.CreationDate,2026-07-12T02:42:37+05:30*%
%TF.ProjectId,water monitor,77617465-7220-46d6-9f6e-69746f722e6b,rev?*%
%TF.SameCoordinates,Original*%
%TF.FileFunction,Copper,L1,Top*%
%TF.FilePolarity,Positive*%
%FSLAX46Y46*%
G04 Gerber Fmt 4.6, Leading zero omitted, Abs format (unit mm)*
G04 Created by KiCad (PCBNEW 10.0.0) date 2026-07-12 02:42:37*
%MOMM*%
%LPD*%
G01*
G04 APERTURE LIST*
G04 Aperture macros list*
%AMRoundRect*
0 Rectangle with rounded corners*
0 $1 Rounding radius*
0 $2 $3 $4 $5 $6 $7 $8 $9 X,Y pos of 4 corners*
0 Add a 4 corners polygon primitive as box body*
4,1,4,$2,$3,$4,$5,$6,$7,$8,$9,$2,$3,0*
0 Add four circle primitives for the rounded corners*
1,1,$1+$1,$2,$3*
1,1,$1+$1,$4,$5*
1,1,$1+$1,$6,$7*
1,1,$1+$1,$8,$9*
0 Add four rect primitives between the rounded corners*
20,1,$1+$1,$2,$3,$4,$5,0*
20,1,$1+$1,$4,$5,$6,$7,0*
20,1,$1+$1,$6,$7,$8,$9,0*
20,1,$1+$1,$8,$9,$2,$3,0*%
G04 Aperture macros list end*
%TA.AperFunction,SMDPad,CuDef*%
%ADD10RoundRect,0.250000X0.475000X-0.250000X0.475000X0.250000X-0.475000X0.250000X-0.475000X-0.250000X0*%
%TD*%
%TA.AperFunction,ComponentPad*%
%ADD11C,2.000000*%
%TD*%
%TA.AperFunction,SMDPad,CuDef*%
%ADD12RoundRect,0.250000X-0.262500X-0.450000X0.262500X-0.450000X0.262500X0.450000X-0.262500X0.450000X0*%
%TD*%
%TA.AperFunction,ComponentPad*%
%ADD13R,1.700000X1.700000*%
%TD*%
%TA.AperFunction,ComponentPad*%
%ADD14C,1.700000*%
%TD*%
%TA.AperFunction,SMDPad,CuDef*%
%ADD15RoundRect,0.250000X-0.250000X-0.475000X0.250000X-0.475000X0.250000X0.475000X-0.250000X0.475000X0*%
%TD*%
%TA.AperFunction,SMDPad,CuDef*%
%ADD16RoundRect,0.375000X-0.625000X-0.375000X0.625000X-0.375000X0.625000X0.375000X-0.625000X0.375000X0*%
%TD*%
%TA.AperFunction,SMDPad,CuDef*%
%ADD17RoundRect,0.500000X-0.500000X-1.400000X0.500000X-1.400000X0.500000X1.400000X-0.500000X1.400000X0*%
%TD*%
%TA.AperFunction,SMDPad,CuDef*%
%ADD18R,1.500000X0.900000*%
%TD*%
%TA.AperFunction,SMDPad,CuDef*%
%ADD19R,0.900000X1.500000*%
%TD*%
%TA.AperFunction,SMDPad,CuDef*%
%ADD20R,1.050000X1.050000*%
%TD*%
%TA.AperFunction,HeatsinkPad*%
%ADD21C,0.600000*%
%TD*%
%TA.AperFunction,HeatsinkPad*%
%ADD22R,4.200000X4.200000*%
%TD*%
%TA.AperFunction,SMDPad,CuDef*%
%ADD23RoundRect,0.150000X-0.150000X-0.425000X0.150000X-0.425000X0.150000X0.425000X-0.150000X0.425000X0*%
%TD*%
%TA.AperFunction,SMDPad,CuDef*%
%ADD24RoundRect,0.075000X-0.075000X-0.500000X0.075000X-0.500000X0.075000X0.500000X-0.075000X0.500000X0*%
%TD*%
%TA.AperFunction,ComponentPad*%
%ADD25O,1.000000X2.100000*%
%TD*%
%TA.AperFunction,ComponentPad*%
%ADD26O,1.000000X1.800000*%
%TD*%
%TA.AperFunction,ViaPad*%
%ADD27C,0.600000*%
%TD*%
%TA.AperFunction,Conductor*%
%ADD28C,0.200000*%
%TD*%
G04 APERTURE END LIST*
D10*
%TO.P,C3,1*%
%TO.N,GND*%
X116305000Y-122125000D03*
%TO.P,C3,2*%
%TO.N,+3V3*%
X116305000Y-120225000D03*
%TD*%
D11*
%TO.P,SW2,1,1_1*%
%TO.N,GND*%
X113930000Y-129400000D03*
X120430000Y-129400000D03*
%TO.P,SW2,2,2_2*%
%TO.N,/IO0*%
X113930000Y-133900000D03*
X120430000Y-133900000D03*
%TD*%
D12*
%TO.P,R3,1*%
%TO.N,/EN*%
X152142500Y-115100000D03*
%TO.P,R3,2*%
%TO.N,+3V3*%
X153967500Y-115100000D03*
%TD*%
%TO.P,R2,1*%
%TO.N,Net-(J1-CC1)*%
X152142500Y-112150000D03*
%TO.P,R2,2*%
%TO.N,GND*%
X153967500Y-112150000D03*
%TD*%
%TO.P,R5,1*%
%TO.N,Net-(J6-Pin_2)*%
X152142500Y-109525000D03*
%TO.P,R5,2*%
%TO.N,+3V3*%
X153967500Y-109525000D03*
%TD*%
D13*
%TO.P,J4,1,Pin_1_1*%
%TO.N,+3V3*%
X120980000Y-110435000D03*
D14*
%TO.P,J4,2,Pin_2_2*%
%TO.N,GND*%
X120980000Y-112975000D03*
%TO.P,J4,3,Pin_3_3*%
%TO.N,/TXD0*%
X120980000Y-115515000D03*
%TO.P,J4,4,Pin_4_4*%
%TO.N,/RXD0*%
X120980000Y-118055000D03*
%TO.P,J4,5,Pin_5_5*%
%TO.N,/EN*%
X120980000Y-120595000D03*
%TO.P,J4,6,Pin_6_6*%
%TO.N,/IO0*%
X120980000Y-123135000D03*
%TD*%
D15*
%TO.P,C1,1*%
%TO.N,GND*%
X111930000Y-125325000D03*
%TO.P,C1,2*%
%TO.N,/5V*%
X113830000Y-125325000D03*
%TD*%
D10*
%TO.P,C2,1*%
%TO.N,GND*%
X113295000Y-122125000D03*
%TO.P,C2,2*%
%TO.N,+3V3*%
X113295000Y-120225000D03*
%TD*%
D13*
%TO.P,J3,1,Pin_1_1*%
%TO.N,+3V3*%
X148755000Y-110275000D03*
D14*
%TO.P,J3,2,Pin_2_2*%
%TO.N,GND*%
X148755000Y-112815000D03*
%TO.P,J3,3,Pin_3_3*%
%TO.N,/SDA*%
X148755000Y-115355000D03*
%TO.P,J3,4,Pin_4_4*%
%TO.N,/SCL*%
X148755000Y-117895000D03*
%TD*%
D16*
%TO.P,U1,1,GND_1*%
%TO.N,GND*%
X138005000Y-128950000D03*
%TO.P,U1,2,VO_2*%
%TO.N,+3V3*%
X138005000Y-131250000D03*
D17*
X144305000Y-131250000D03*
D16*
%TO.P,U1,3,VI_3*%
%TO.N,/5V*%
X138005000Y-133550000D03*
%TD*%
D13*
%TO.P,J2,1,Pin_1_1*%
%TO.N,/5V*%
X148730000Y-123275000D03*
D14*
%TO.P,J2,2,Pin_2_2*%
%TO.N,GND*%
X151270000Y-123275000D03*
%TO.P,J2,3,Pin_3_3*%
%TO.N,/PH_ADC*%
X153810000Y-123275000D03*
%TD*%
D18*
%TO.P,U2,1,GND_1*%
%TO.N,GND*%
X124330000Y-108010000D03*
%TO.P,U2,2,VDD_2*%
%TO.N,+3V3*%
X124330000Y-109280000D03*
%TO.P,U2,3,EN_3*%
%TO.N,/EN*%
X124330000Y-110550000D03*
%TO.P,U2,4,SENSOR_VP_4*%
%TO.N,unconnected-(U2-SENSOR_VP-Pad4)*%
X124330000Y-111820000D03*
%TO.P,U2,5,SENSOR_VN_5*%
%TO.N,unconnected-(U2-SENSOR_VN-Pad5)*%
X124330000Y-113090000D03*
%TO.P,U2,6,IO34_6*%
%TO.N,/PH_ADC*%
X124330000Y-114360000D03*
%TO.P,U2,7,IO35_7*%
%TO.N,/TURB_ADC*%
X124330000Y-115630000D03*
%TO.P,U2,8,IO32_8*%
%TO.N,unconnected-(U2-IO32-Pad8)*%
X124330000Y-116900000D03*
%TO.P,U2,9,IO33_9*%
%TO.N,unconnected-(U2-IO33-Pad9)*%
X124330000Y-118170000D03*
%TO.P,U2,10,IO25_10*%
%TO.N,unconnected-(U2-IO25-Pad10)*%
X124330000Y-119440000D03*
%TO.P,U2,11,IO26_11*%
%TO.N,unconnected-(U2-IO26-Pad11)*%
X124330000Y-120710000D03*
%TO.P,U2,12,IO27_12*%
%TO.N,unconnected-(U2-IO27-Pad12)*%
X124330000Y-121980000D03*
%TO.P,U2,13,IO14_13*%
%TO.N,unconnected-(U2-IO14-Pad13)*%
X124330000Y-123250000D03*
%TO.P,U2,14,IO12_14*%
%TO.N,unconnected-(U2-IO12-Pad14)*%
X124330000Y-124520000D03*
D19*
%TO.P,U2,15,GND_15*%
%TO.N,GND*%
X127370000Y-125770000D03*
%TO.P,U2,16,IO13_16*%
%TO.N,unconnected-(U2-IO13-Pad16)*%
X128640000Y-125770000D03*
%TO.P,U2,17,SHD/SD2_17*%
%TO.N,unconnected-(U2-SHD{slash}SD2-Pad17)*%
X129910000Y-125770000D03*
%TO.P,U2,18,SWP/SD3_18*%
%TO.N,unconnected-(U2-SWP{slash}SD3-Pad18)*%
X131180000Y-125770000D03*
%TO.P,U2,19,SCS/CMD_19*%
%TO.N,unconnected-(U2-SCS{slash}CMD-Pad19)*%
X132450000Y-125770000D03*
%TO.P,U2,20,SCK/CLK_20*%
%TO.N,unconnected-(U2-SCK{slash}CLK-Pad20)*%
X133720000Y-125770000D03*
%TO.P,U2,21,SDO/SD0_21*%
%TO.N,unconnected-(U2-SDO{slash}SD0-Pad21)*%
X134990000Y-125770000D03*
%TO.P,U2,22,SDI/SD1_22*%
%TO.N,unconnected-(U2-SDI{slash}SD1-Pad22)*%
X136260000Y-125770000D03*
%TO.P,U2,23,IO15_23*%
%TO.N,unconnected-(U2-IO15-Pad23)*%
X137530000Y-125770000D03*
%TO.P,U2,24,IO2_24*%
%TO.N,unconnected-(U2-IO2-Pad24)*%
X138800000Y-125770000D03*
D18*
%TO.P,U2,25,IO0_25*%
%TO.N,/IO0*%
X141830000Y-124520000D03*
%TO.P,U2,26,IO4_26*%
%TO.N,Net-(J6-Pin_2)*%
X141830000Y-123250000D03*
%TO.P,U2,27,IO16_27*%
%TO.N,unconnected-(U2-IO16-Pad27)*%
X141830000Y-121980000D03*
%TO.P,U2,28,IO17_28*%
%TO.N,unconnected-(U2-IO17-Pad28)*%
X141830000Y-120710000D03*
%TO.P,U2,29,IO5_29*%
%TO.N,unconnected-(U2-IO5-Pad29)*%
X141830000Y-119440000D03*
%TO.P,U2,30,IO18_30*%
%TO.N,unconnected-(U2-IO18-Pad30)*%
X141830000Y-118170000D03*
%TO.P,U2,31,IO19_31*%
%TO.N,unconnected-(U2-IO19-Pad31)*%
X141830000Y-116900000D03*
%TO.P,U2,32,NC_32*%
%TO.N,unconnected-(U2-NC-Pad32)*%
X141830000Y-115630000D03*
%TO.P,U2,33,IO21_33*%
%TO.N,/SDA*%
X141830000Y-114360000D03*
%TO.P,U2,34,RXD0/IO3_34*%
%TO.N,/RXD0*%
X141830000Y-113090000D03*
%TO.P,U2,35,TXD0/IO1_35*%
%TO.N,/TXD0*%
X141830000Y-111820000D03*
%TO.P,U2,36,IO22_36*%
%TO.N,/SCL*%
X141830000Y-110550000D03*
%TO.P,U2,37,IO23_37*%
%TO.N,unconnected-(U2-IO23-Pad37)*%
X141830000Y-109280000D03*
%TO.P,U2,38,GND_38*%
%TO.N,GND*%
X141830000Y-108010000D03*
D20*
%TO.P,U2,39,GND_39*%
X130875000Y-113825000D03*
D21*
X130875000Y-114587500D03*
D20*
X130875000Y-115350000D03*
D21*
X130875000Y-116112500D03*
D20*
X130875000Y-116875000D03*
D21*
X131637500Y-113825000D03*
X131637500Y-115350000D03*
X131637500Y-116875000D03*
D20*
X132400000Y-113825000D03*
D21*
X132400000Y-114587500D03*
D20*
X132400000Y-115350000D03*
D22*
X132400000Y-115350000D03*
D21*
X132400000Y-116112500D03*
D20*
X132400000Y-116875000D03*
D21*
X133162500Y-113825000D03*
X133162500Y-115350000D03*
X133162500Y-116875000D03*
D20*
X133925000Y-113825000D03*
D21*
X133925000Y-114587500D03*
D20*
X133925000Y-115350000D03*
D21*
X133925000Y-116112500D03*
D20*
X133925000Y-116875000D03*
%TD*%
D11*
%TO.P,SW1,1,1_1*%
%TO.N,GND*%
X148630000Y-129200000D03*
X155130000Y-129200000D03*
%TO.P,SW1,2,2_2*%
%TO.N,/EN*%
X148630000Y-133700000D03*
X155130000Y-133700000D03*
%TD*%
D23*
%TO.P,J1,A1,GND_A1*%
%TO.N,GND*%
X125705000Y-128720000D03*
%TO.P,J1,A4,VBUS_A4*%
%TO.N,/5V*%
X126505000Y-128720000D03*
D24*
%TO.P,J1,A5,CC1_A5*%
%TO.N,Net-(J1-CC1)*%
X127655000Y-128720000D03*
%TO.P,J1,A6,D+_A6*%
%TO.N,unconnected-(J1-D+-PadA6)*%
X128655000Y-128720000D03*
%TO.P,J1,A7,D-_A7*%
%TO.N,unconnected-(J1-D--PadA7)*%
X129155000Y-128720000D03*
%TO.P,J1,A8*%
%TO.N,N/C*%
X130155000Y-128720000D03*
D23*
%TO.P,J1,A9,VBUS_A9*%
%TO.N,/5V*%
X131305000Y-128720000D03*
%TO.P,J1,A12,GND_A12*%
%TO.N,GND*%
X132105000Y-128720000D03*
%TO.P,J1,B1,GND_B1*%
X132105000Y-128720000D03*
%TO.P,J1,B4,VBUS_B4*%
%TO.N,/5V*%
X131305000Y-128720000D03*
D24*
%TO.P,J1,B5,CC2_B5*%
%TO.N,Net-(J1-CC2)*%
X130655000Y-128720000D03*
%TO.P,J1,B6,D+_B6*%
%TO.N,unconnected-(J1-D+-PadB6)*%
X129655000Y-128720000D03*
%TO.P,J1,B7,D-_B7*%
%TO.N,unconnected-(J1-D--PadB7)*%
X128155000Y-128720000D03*
%TO.P,J1,B8*%
%TO.N,N/C*%
X127155000Y-128720000D03*
D23*
%TO.P,J1,B9,VBUS_B9*%
%TO.N,/5V*%
X126505000Y-128720000D03*
%TO.P,J1,B12,GND_B12*%
%TO.N,GND*%
X125705000Y-128720000D03*
D25*
%TO.P,J1,SH,SHIELD_SH*%
X124585000Y-129295000D03*
D26*
X124585000Y-133475000D03*
D25*
X133225000Y-129295000D03*
D26*
X133225000Y-133475000D03*
%TD*%
D12*
%TO.P,R4,1*%
%TO.N,/IO0*%
X152142500Y-118050000D03*
%TO.P,R4,2*%
%TO.N,+3V3*%
X153967500Y-118050000D03*
%TD*%
D13*
%TO.P,J5,1,Pin_1_1*%
%TO.N,/5V*%
X112780000Y-110410000D03*
D14*
%TO.P,J5,2,Pin_2_2*%
%TO.N,GND*%
X112780000Y-112950000D03*
%TO.P,J5,3,Pin_3_3*%
%TO.N,/TURB_ADC*%
X112780000Y-115490000D03*
%TD*%
D13*
%TO.P,J6,1,Pin_1_1*%
%TO.N,+3V3*%
X116930000Y-110410000D03*
D14*
%TO.P,J6,2,Pin_2_2*%
%TO.N,Net-(J6-Pin_2)*%
X116930000Y-112950000D03*
%TO.P,J6,3,Pin_3_3*%
%TO.N,GND*%
X116930000Y-115490000D03*
%TD*%
D12*
%TO.P,R1,1*%
%TO.N,Net-(J1-CC2)*%
X116105000Y-125400000D03*
%TO.P,R1,2*%
%TO.N,GND*%
X117930000Y-125400000D03*
%TD*%
D27*
%TO.N,GND*%
X153967500Y-113380800D03*
%TO.N,/IO0*%
X144523700Y-124888600D03*
%TO.N,/EN*%
X152481400Y-116311400D03*
%TO.N,Net-(J1-CC1)*%
X127655000Y-129814900D03*
X152142500Y-113426100D03*
%TO.N,Net-(J6-Pin_2)*%
X150617000Y-112176100D03*
%TO.N,/TXD0*%
X140568200Y-111820000D03*
%TO.N,/RXD0*%
X138911000Y-116106000D03*
%TO.N,/5V*%
X126570300Y-123275000D03*
X113863400Y-124076500D03*
X139547800Y-133282600D03*
%TO.N,/SCL*%
X143383000Y-110880300D03*
%TO.N,/PH_ADC*%
X127375400Y-122064400D03*
%TO.N,/TURB_ADC*%
X123073300Y-115425000D03*
%TD*%
%TO.N,GND*%
D28*
X132400000Y-115350000D02*
X132400000Y-114587500D01*
X130048300Y-112676600D02*
X125381700Y-108010000D01*
X117344600Y-115904600D02*
X117344600Y-121085400D01*
X117930000Y-123750000D02*
X117930000Y-125400000D01*
X132400000Y-114587500D02*
X132400000Y-113825000D01*
X130048300Y-113825000D02*
X130048300Y-112676600D01*
X130875000Y-115350000D02*
X130875000Y-114587500D01*
X132400000Y-116112500D02*
X132400000Y-115350000D01*
X143950000Y-108010000D02*
X148755000Y-112815000D01*
X111930000Y-125325000D02*
X113930000Y-127325000D01*
X132332000Y-128493000D02*
X132105000Y-128720000D01*
X133925000Y-114587500D02*
X133925000Y-113825000D01*
X133225000Y-129295000D02*
X133225000Y-127943300D01*
X117344600Y-121085400D02*
X116305000Y-122125000D01*
X116305000Y-122125000D02*
X117930000Y-123750000D01*
X132881700Y-127943300D02*
X132332000Y-128493000D01*
X111930000Y-125325000D02*
X111930000Y-123490000D01*
X124330000Y-108010000D02*
X125381700Y-108010000D01*
X130875000Y-116112500D02*
X130875000Y-115350000D01*
X132400000Y-116875000D02*
X132400000Y-116112500D01*
X130875000Y-114587500D02*
X130875000Y-113825000D01*
X127370000Y-125770000D02*
X127370000Y-126821700D01*
X132332000Y-128493000D02*
X130660600Y-126821700D01*
X136998300Y-127943300D02*
X133225000Y-127943300D01*
X133925000Y-116112500D02*
X133925000Y-115350000D01*
X130660600Y-126821700D02*
X127370000Y-126821700D01*
X133925000Y-115350000D02*
X133925000Y-114587500D01*
X125705000Y-128720000D02*
X124928300Y-127943300D01*
X138005000Y-128950000D02*
X136998300Y-127943300D01*
X116930000Y-115490000D02*
X117344600Y-115904600D01*
X141830000Y-108010000D02*
X143950000Y-108010000D01*
X124928300Y-127943300D02*
X124585000Y-127943300D01*
X133225000Y-127943300D02*
X132881700Y-127943300D01*
X111930000Y-123490000D02*
X113295000Y-122125000D01*
X130875000Y-113825000D02*
X130048300Y-113825000D01*
X113295000Y-122125000D02*
X116305000Y-122125000D01*
X133925000Y-116875000D02*
X133925000Y-116112500D01*
X113930000Y-127325000D02*
X113930000Y-129400000D01*
X153967500Y-113380800D02*
X153967500Y-112150000D01*
X124585000Y-129295000D02*
X124585000Y-127943300D01*
X130875000Y-116875000D02*
X130875000Y-116112500D01*
%TO.N,+3V3*%
X150000000Y-122017500D02*
X153967500Y-118050000D01*
X151640100Y-108469600D02*
X152623900Y-108469600D01*
X123278300Y-109288400D02*
X123278300Y-109280000D01*
X115741700Y-112462100D02*
X116642100Y-111561700D01*
X144305000Y-131250000D02*
X138005000Y-131250000D01*
X149906700Y-110275000D02*
X149906700Y-110203000D01*
X153112000Y-114244500D02*
X153967500Y-115100000D01*
X124330000Y-109280000D02*
X123278300Y-109280000D01*
X116642100Y-111561700D02*
X116930000Y-111561700D01*
X113295000Y-120225000D02*
X115741700Y-120225000D01*
X116930000Y-110410000D02*
X116930000Y-111561700D01*
X153354000Y-109525000D02*
X153967500Y-109525000D01*
X115741700Y-120225000D02*
X116305000Y-120225000D01*
X122131700Y-110435000D02*
X123278300Y-109288400D01*
X148755000Y-110275000D02*
X149906700Y-110275000D01*
X153112000Y-109767000D02*
X153112000Y-114244500D01*
X144305000Y-131250000D02*
X150000000Y-125555000D01*
X150000000Y-125555000D02*
X150000000Y-122017500D01*
X153354000Y-109525000D02*
X153112000Y-109767000D01*
X115741700Y-120225000D02*
X115741700Y-112462100D01*
X153967500Y-115100000D02*
X153967500Y-118050000D01*
X153354000Y-109199700D02*
X153354000Y-109525000D01*
X120980000Y-110435000D02*
X122131700Y-110435000D01*
X149906700Y-110203000D02*
X151640100Y-108469600D01*
X152623900Y-108469600D02*
X153354000Y-109199700D01*
%TO.N,/IO0*%
X151362300Y-118050000D02*
X144523700Y-124888600D01*
X141830000Y-124520000D02*
X142881700Y-124520000D01*
X144523700Y-124888600D02*
X143250300Y-124888600D01*
X152142500Y-118050000D02*
X151362300Y-118050000D01*
X143250300Y-124888600D02*
X142881700Y-124520000D01*
%TO.N,/EN*%
X124330000Y-110550000D02*
X123278300Y-110550000D01*
X152142500Y-115972500D02*
X152481400Y-116311400D01*
X122329700Y-119245300D02*
X122329700Y-111498600D01*
X120980000Y-120595000D02*
X122329700Y-119245300D01*
X152142500Y-115100000D02*
X152142500Y-115972500D01*
X122329700Y-111498600D02*
X123278300Y-110550000D01*
%TO.N,Net-(J1-CC1)*%
X127655000Y-128720000D02*
X127655000Y-129814900D01*
X152142500Y-112150000D02*
X152142500Y-113426100D01*
%TO.N,Net-(J6-Pin_2)*%
X148337000Y-116625000D02*
X149121100Y-116625000D01*
X142881700Y-122080300D02*
X148337000Y-116625000D01*
X152142500Y-110650600D02*
X152142500Y-109525000D01*
X142881700Y-123250000D02*
X142881700Y-122080300D01*
X149121100Y-116625000D02*
X150617000Y-115129100D01*
X141830000Y-123250000D02*
X142881700Y-123250000D01*
X150617000Y-115129100D02*
X150617000Y-112176100D01*
X150617000Y-112176100D02*
X152142500Y-110650600D01*
%TO.N,/TXD0*%
X140568200Y-111820000D02*
X141830000Y-111820000D01*
%TO.N,/RXD0*%
X138911000Y-116106000D02*
X138911000Y-114957300D01*
X138911000Y-114957300D02*
X140778300Y-113090000D01*
X141830000Y-113090000D02*
X140778300Y-113090000D01*
%TO.N,/5V*%
X131305000Y-128169400D02*
X131305000Y-128720000D01*
X113830000Y-124109900D02*
X113830000Y-125325000D01*
X126505000Y-128198400D02*
X126505000Y-128720000D01*
X113863400Y-124076500D02*
X113830000Y-124109900D01*
X138272400Y-133282600D02*
X138005000Y-133550000D01*
X126570300Y-127545300D02*
X126570300Y-123275000D01*
X126864200Y-127839200D02*
X126570300Y-127545300D01*
X139547800Y-133282600D02*
X138272400Y-133282600D01*
X126864200Y-127839200D02*
X130974800Y-127839200D01*
X126864200Y-127839200D02*
X126505000Y-128198400D01*
X130974800Y-127839200D02*
X131305000Y-128169400D01*
%TO.N,/SDA*%
X147760000Y-114360000D02*
X148755000Y-115355000D01*
X141830000Y-114360000D02*
X147760000Y-114360000D01*
%TO.N,/SCL*%
X143052700Y-110550000D02*
X141830000Y-110550000D01*
X143383000Y-110880300D02*
X143052700Y-110550000D01*
%TO.N,/PH_ADC*%
X127375400Y-116353700D02*
X125381700Y-114360000D01*
X127375400Y-122064400D02*
X127375400Y-116353700D01*
X124330000Y-114360000D02*
X125381700Y-114360000D01*
%TO.N,/TURB_ADC*%
X123073300Y-115425000D02*
X123278300Y-115630000D01*
X124330000Y-115630000D02*
X123278300Y-115630000D01*
%TO.N,Net-(J1-CC2)*%
X129286400Y-130720500D02*
X123662600Y-130720500D01*
X130655000Y-128720000D02*
X130655000Y-129351900D01*
X130655000Y-129351900D02*
X129286400Y-130720500D01*
X120022400Y-127080300D02*
X117785300Y-127080300D01*
X117785300Y-127080300D02*
X116105000Y-125400000D01*
X123662600Y-130720500D02*
X120022400Y-127080300D01*
%TD*%
M02*
