%TF.GenerationSoftware,KiCad,Pcbnew,10.0.0*%
%TF.CreationDate,2026-07-12T02:42:34+05:30*%
%TF.ProjectId,water monitor,77617465-7220-46d6-9f6e-69746f722e6b,rev?*%
%TF.SameCoordinates,Original*%
%TF.FileFunction,Drillmap*%
%TF.FilePolarity,Positive*%
%FSLAX45Y45*%
G04 Gerber Fmt 4.5, Leading zero omitted, Abs format (unit mm)*
G04 Created by KiCad (PCBNEW 10.0.0) date 2026-07-12 02:42:34*
%MOMM*%
%LPD*%
G01*
G04 APERTURE LIST*
%ADD10C,0.050000*%
%ADD11C,0.200000*%
%ADD12C,0.100000*%
G04 APERTURE END LIST*
D10*
X10873000Y-8492500D02*
X15755500Y-8492500D01*
X10873000Y-13835000D02*
X10873000Y-8492500D01*
X15755500Y-8492500D02*
X15755500Y-13835000D01*
X15755500Y-13835000D02*
X10873000Y-13835000D01*
D11*
D12*
X12569000Y-12947000D02*
X12634000Y-13012000D01*
X12634000Y-12947000D02*
X12569000Y-13012000D01*
X13147000Y-12947000D02*
X13212000Y-13012000D01*
X13212000Y-12947000D02*
X13147000Y-13012000D01*
D11*
X11131277Y-14148984D02*
X11131277Y-13948984D01*
X11131277Y-13948984D02*
X11178896Y-13948984D01*
X11178896Y-13948984D02*
X11207467Y-13958508D01*
X11207467Y-13958508D02*
X11226515Y-13977555D01*
X11226515Y-13977555D02*
X11236039Y-13996603D01*
X11236039Y-13996603D02*
X11245562Y-14034698D01*
X11245562Y-14034698D02*
X11245562Y-14063269D01*
X11245562Y-14063269D02*
X11236039Y-14101365D01*
X11236039Y-14101365D02*
X11226515Y-14120412D01*
X11226515Y-14120412D02*
X11207467Y-14139460D01*
X11207467Y-14139460D02*
X11178896Y-14148984D01*
X11178896Y-14148984D02*
X11131277Y-14148984D01*
X11331277Y-14148984D02*
X11331277Y-14015650D01*
X11331277Y-14053746D02*
X11340801Y-14034698D01*
X11340801Y-14034698D02*
X11350324Y-14025174D01*
X11350324Y-14025174D02*
X11369372Y-14015650D01*
X11369372Y-14015650D02*
X11388420Y-14015650D01*
X11455086Y-14148984D02*
X11455086Y-14015650D01*
X11455086Y-13948984D02*
X11445562Y-13958508D01*
X11445562Y-13958508D02*
X11455086Y-13968031D01*
X11455086Y-13968031D02*
X11464610Y-13958508D01*
X11464610Y-13958508D02*
X11455086Y-13948984D01*
X11455086Y-13948984D02*
X11455086Y-13968031D01*
X11578896Y-14148984D02*
X11559848Y-14139460D01*
X11559848Y-14139460D02*
X11550324Y-14120412D01*
X11550324Y-14120412D02*
X11550324Y-13948984D01*
X11683658Y-14148984D02*
X11664610Y-14139460D01*
X11664610Y-14139460D02*
X11655086Y-14120412D01*
X11655086Y-14120412D02*
X11655086Y-13948984D01*
X11912229Y-14148984D02*
X11912229Y-13948984D01*
X11912229Y-13948984D02*
X11978896Y-14091841D01*
X11978896Y-14091841D02*
X12045562Y-13948984D01*
X12045562Y-13948984D02*
X12045562Y-14148984D01*
X12226515Y-14148984D02*
X12226515Y-14044222D01*
X12226515Y-14044222D02*
X12216991Y-14025174D01*
X12216991Y-14025174D02*
X12197943Y-14015650D01*
X12197943Y-14015650D02*
X12159848Y-14015650D01*
X12159848Y-14015650D02*
X12140801Y-14025174D01*
X12226515Y-14139460D02*
X12207467Y-14148984D01*
X12207467Y-14148984D02*
X12159848Y-14148984D01*
X12159848Y-14148984D02*
X12140801Y-14139460D01*
X12140801Y-14139460D02*
X12131277Y-14120412D01*
X12131277Y-14120412D02*
X12131277Y-14101365D01*
X12131277Y-14101365D02*
X12140801Y-14082317D01*
X12140801Y-14082317D02*
X12159848Y-14072793D01*
X12159848Y-14072793D02*
X12207467Y-14072793D01*
X12207467Y-14072793D02*
X12226515Y-14063269D01*
X12321753Y-14015650D02*
X12321753Y-14215650D01*
X12321753Y-14025174D02*
X12340801Y-14015650D01*
X12340801Y-14015650D02*
X12378896Y-14015650D01*
X12378896Y-14015650D02*
X12397943Y-14025174D01*
X12397943Y-14025174D02*
X12407467Y-14034698D01*
X12407467Y-14034698D02*
X12416991Y-14053746D01*
X12416991Y-14053746D02*
X12416991Y-14110888D01*
X12416991Y-14110888D02*
X12407467Y-14129936D01*
X12407467Y-14129936D02*
X12397943Y-14139460D01*
X12397943Y-14139460D02*
X12378896Y-14148984D01*
X12378896Y-14148984D02*
X12340801Y-14148984D01*
X12340801Y-14148984D02*
X12321753Y-14139460D01*
X12502705Y-14129936D02*
X12512229Y-14139460D01*
X12512229Y-14139460D02*
X12502705Y-14148984D01*
X12502705Y-14148984D02*
X12493182Y-14139460D01*
X12493182Y-14139460D02*
X12502705Y-14129936D01*
X12502705Y-14129936D02*
X12502705Y-14148984D01*
X12502705Y-14025174D02*
X12512229Y-14034698D01*
X12512229Y-14034698D02*
X12502705Y-14044222D01*
X12502705Y-14044222D02*
X12493182Y-14034698D01*
X12493182Y-14034698D02*
X12502705Y-14025174D01*
X12502705Y-14025174D02*
X12502705Y-14044222D01*
D12*
X10805500Y-14445000D02*
X10870500Y-14510000D01*
X10870500Y-14445000D02*
X10805500Y-14510000D01*
D11*
X11169372Y-14368984D02*
X11188420Y-14368984D01*
X11188420Y-14368984D02*
X11207467Y-14378508D01*
X11207467Y-14378508D02*
X11216991Y-14388031D01*
X11216991Y-14388031D02*
X11226515Y-14407079D01*
X11226515Y-14407079D02*
X11236039Y-14445174D01*
X11236039Y-14445174D02*
X11236039Y-14492793D01*
X11236039Y-14492793D02*
X11226515Y-14530888D01*
X11226515Y-14530888D02*
X11216991Y-14549936D01*
X11216991Y-14549936D02*
X11207467Y-14559460D01*
X11207467Y-14559460D02*
X11188420Y-14568984D01*
X11188420Y-14568984D02*
X11169372Y-14568984D01*
X11169372Y-14568984D02*
X11150324Y-14559460D01*
X11150324Y-14559460D02*
X11140801Y-14549936D01*
X11140801Y-14549936D02*
X11131277Y-14530888D01*
X11131277Y-14530888D02*
X11121753Y-14492793D01*
X11121753Y-14492793D02*
X11121753Y-14445174D01*
X11121753Y-14445174D02*
X11131277Y-14407079D01*
X11131277Y-14407079D02*
X11140801Y-14388031D01*
X11140801Y-14388031D02*
X11150324Y-14378508D01*
X11150324Y-14378508D02*
X11169372Y-14368984D01*
X11321753Y-14549936D02*
X11331277Y-14559460D01*
X11331277Y-14559460D02*
X11321753Y-14568984D01*
X11321753Y-14568984D02*
X11312229Y-14559460D01*
X11312229Y-14559460D02*
X11321753Y-14549936D01*
X11321753Y-14549936D02*
X11321753Y-14568984D01*
X11502705Y-14368984D02*
X11464610Y-14368984D01*
X11464610Y-14368984D02*
X11445562Y-14378508D01*
X11445562Y-14378508D02*
X11436039Y-14388031D01*
X11436039Y-14388031D02*
X11416991Y-14416603D01*
X11416991Y-14416603D02*
X11407467Y-14454698D01*
X11407467Y-14454698D02*
X11407467Y-14530888D01*
X11407467Y-14530888D02*
X11416991Y-14549936D01*
X11416991Y-14549936D02*
X11426515Y-14559460D01*
X11426515Y-14559460D02*
X11445562Y-14568984D01*
X11445562Y-14568984D02*
X11483658Y-14568984D01*
X11483658Y-14568984D02*
X11502705Y-14559460D01*
X11502705Y-14559460D02*
X11512229Y-14549936D01*
X11512229Y-14549936D02*
X11521753Y-14530888D01*
X11521753Y-14530888D02*
X11521753Y-14483269D01*
X11521753Y-14483269D02*
X11512229Y-14464222D01*
X11512229Y-14464222D02*
X11502705Y-14454698D01*
X11502705Y-14454698D02*
X11483658Y-14445174D01*
X11483658Y-14445174D02*
X11445562Y-14445174D01*
X11445562Y-14445174D02*
X11426515Y-14454698D01*
X11426515Y-14454698D02*
X11416991Y-14464222D01*
X11416991Y-14464222D02*
X11407467Y-14483269D01*
X11702705Y-14368984D02*
X11607467Y-14368984D01*
X11607467Y-14368984D02*
X11597943Y-14464222D01*
X11597943Y-14464222D02*
X11607467Y-14454698D01*
X11607467Y-14454698D02*
X11626515Y-14445174D01*
X11626515Y-14445174D02*
X11674134Y-14445174D01*
X11674134Y-14445174D02*
X11693182Y-14454698D01*
X11693182Y-14454698D02*
X11702705Y-14464222D01*
X11702705Y-14464222D02*
X11712229Y-14483269D01*
X11712229Y-14483269D02*
X11712229Y-14530888D01*
X11712229Y-14530888D02*
X11702705Y-14549936D01*
X11702705Y-14549936D02*
X11693182Y-14559460D01*
X11693182Y-14559460D02*
X11674134Y-14568984D01*
X11674134Y-14568984D02*
X11626515Y-14568984D01*
X11626515Y-14568984D02*
X11607467Y-14559460D01*
X11607467Y-14559460D02*
X11597943Y-14549936D01*
X11836039Y-14368984D02*
X11855086Y-14368984D01*
X11855086Y-14368984D02*
X11874134Y-14378508D01*
X11874134Y-14378508D02*
X11883658Y-14388031D01*
X11883658Y-14388031D02*
X11893182Y-14407079D01*
X11893182Y-14407079D02*
X11902705Y-14445174D01*
X11902705Y-14445174D02*
X11902705Y-14492793D01*
X11902705Y-14492793D02*
X11893182Y-14530888D01*
X11893182Y-14530888D02*
X11883658Y-14549936D01*
X11883658Y-14549936D02*
X11874134Y-14559460D01*
X11874134Y-14559460D02*
X11855086Y-14568984D01*
X11855086Y-14568984D02*
X11836039Y-14568984D01*
X11836039Y-14568984D02*
X11816991Y-14559460D01*
X11816991Y-14559460D02*
X11807467Y-14549936D01*
X11807467Y-14549936D02*
X11797943Y-14530888D01*
X11797943Y-14530888D02*
X11788420Y-14492793D01*
X11788420Y-14492793D02*
X11788420Y-14445174D01*
X11788420Y-14445174D02*
X11797943Y-14407079D01*
X11797943Y-14407079D02*
X11807467Y-14388031D01*
X11807467Y-14388031D02*
X11816991Y-14378508D01*
X11816991Y-14378508D02*
X11836039Y-14368984D01*
X11988420Y-14568984D02*
X11988420Y-14435650D01*
X11988420Y-14454698D02*
X11997943Y-14445174D01*
X11997943Y-14445174D02*
X12016991Y-14435650D01*
X12016991Y-14435650D02*
X12045563Y-14435650D01*
X12045563Y-14435650D02*
X12064610Y-14445174D01*
X12064610Y-14445174D02*
X12074134Y-14464222D01*
X12074134Y-14464222D02*
X12074134Y-14568984D01*
X12074134Y-14464222D02*
X12083658Y-14445174D01*
X12083658Y-14445174D02*
X12102705Y-14435650D01*
X12102705Y-14435650D02*
X12131277Y-14435650D01*
X12131277Y-14435650D02*
X12150324Y-14445174D01*
X12150324Y-14445174D02*
X12159848Y-14464222D01*
X12159848Y-14464222D02*
X12159848Y-14568984D01*
X12255086Y-14568984D02*
X12255086Y-14435650D01*
X12255086Y-14454698D02*
X12264610Y-14445174D01*
X12264610Y-14445174D02*
X12283658Y-14435650D01*
X12283658Y-14435650D02*
X12312229Y-14435650D01*
X12312229Y-14435650D02*
X12331277Y-14445174D01*
X12331277Y-14445174D02*
X12340801Y-14464222D01*
X12340801Y-14464222D02*
X12340801Y-14568984D01*
X12340801Y-14464222D02*
X12350324Y-14445174D01*
X12350324Y-14445174D02*
X12369372Y-14435650D01*
X12369372Y-14435650D02*
X12397943Y-14435650D01*
X12397943Y-14435650D02*
X12416991Y-14445174D01*
X12416991Y-14445174D02*
X12426515Y-14464222D01*
X12426515Y-14464222D02*
X12426515Y-14568984D01*
X12816991Y-14359460D02*
X12645563Y-14616603D01*
X13074134Y-14368984D02*
X13093182Y-14368984D01*
X13093182Y-14368984D02*
X13112229Y-14378508D01*
X13112229Y-14378508D02*
X13121753Y-14388031D01*
X13121753Y-14388031D02*
X13131277Y-14407079D01*
X13131277Y-14407079D02*
X13140801Y-14445174D01*
X13140801Y-14445174D02*
X13140801Y-14492793D01*
X13140801Y-14492793D02*
X13131277Y-14530888D01*
X13131277Y-14530888D02*
X13121753Y-14549936D01*
X13121753Y-14549936D02*
X13112229Y-14559460D01*
X13112229Y-14559460D02*
X13093182Y-14568984D01*
X13093182Y-14568984D02*
X13074134Y-14568984D01*
X13074134Y-14568984D02*
X13055086Y-14559460D01*
X13055086Y-14559460D02*
X13045563Y-14549936D01*
X13045563Y-14549936D02*
X13036039Y-14530888D01*
X13036039Y-14530888D02*
X13026515Y-14492793D01*
X13026515Y-14492793D02*
X13026515Y-14445174D01*
X13026515Y-14445174D02*
X13036039Y-14407079D01*
X13036039Y-14407079D02*
X13045563Y-14388031D01*
X13045563Y-14388031D02*
X13055086Y-14378508D01*
X13055086Y-14378508D02*
X13074134Y-14368984D01*
X13226515Y-14549936D02*
X13236039Y-14559460D01*
X13236039Y-14559460D02*
X13226515Y-14568984D01*
X13226515Y-14568984D02*
X13216991Y-14559460D01*
X13216991Y-14559460D02*
X13226515Y-14549936D01*
X13226515Y-14549936D02*
X13226515Y-14568984D01*
X13359848Y-14368984D02*
X13378896Y-14368984D01*
X13378896Y-14368984D02*
X13397944Y-14378508D01*
X13397944Y-14378508D02*
X13407467Y-14388031D01*
X13407467Y-14388031D02*
X13416991Y-14407079D01*
X13416991Y-14407079D02*
X13426515Y-14445174D01*
X13426515Y-14445174D02*
X13426515Y-14492793D01*
X13426515Y-14492793D02*
X13416991Y-14530888D01*
X13416991Y-14530888D02*
X13407467Y-14549936D01*
X13407467Y-14549936D02*
X13397944Y-14559460D01*
X13397944Y-14559460D02*
X13378896Y-14568984D01*
X13378896Y-14568984D02*
X13359848Y-14568984D01*
X13359848Y-14568984D02*
X13340801Y-14559460D01*
X13340801Y-14559460D02*
X13331277Y-14549936D01*
X13331277Y-14549936D02*
X13321753Y-14530888D01*
X13321753Y-14530888D02*
X13312229Y-14492793D01*
X13312229Y-14492793D02*
X13312229Y-14445174D01*
X13312229Y-14445174D02*
X13321753Y-14407079D01*
X13321753Y-14407079D02*
X13331277Y-14388031D01*
X13331277Y-14388031D02*
X13340801Y-14378508D01*
X13340801Y-14378508D02*
X13359848Y-14368984D01*
X13502706Y-14388031D02*
X13512229Y-14378508D01*
X13512229Y-14378508D02*
X13531277Y-14368984D01*
X13531277Y-14368984D02*
X13578896Y-14368984D01*
X13578896Y-14368984D02*
X13597944Y-14378508D01*
X13597944Y-14378508D02*
X13607467Y-14388031D01*
X13607467Y-14388031D02*
X13616991Y-14407079D01*
X13616991Y-14407079D02*
X13616991Y-14426127D01*
X13616991Y-14426127D02*
X13607467Y-14454698D01*
X13607467Y-14454698D02*
X13493182Y-14568984D01*
X13493182Y-14568984D02*
X13616991Y-14568984D01*
X13797944Y-14368984D02*
X13702706Y-14368984D01*
X13702706Y-14368984D02*
X13693182Y-14464222D01*
X13693182Y-14464222D02*
X13702706Y-14454698D01*
X13702706Y-14454698D02*
X13721753Y-14445174D01*
X13721753Y-14445174D02*
X13769372Y-14445174D01*
X13769372Y-14445174D02*
X13788420Y-14454698D01*
X13788420Y-14454698D02*
X13797944Y-14464222D01*
X13797944Y-14464222D02*
X13807467Y-14483269D01*
X13807467Y-14483269D02*
X13807467Y-14530888D01*
X13807467Y-14530888D02*
X13797944Y-14549936D01*
X13797944Y-14549936D02*
X13788420Y-14559460D01*
X13788420Y-14559460D02*
X13769372Y-14568984D01*
X13769372Y-14568984D02*
X13721753Y-14568984D01*
X13721753Y-14568984D02*
X13702706Y-14559460D01*
X13702706Y-14559460D02*
X13693182Y-14549936D01*
X13978896Y-14368984D02*
X13940801Y-14368984D01*
X13940801Y-14368984D02*
X13921753Y-14378508D01*
X13921753Y-14378508D02*
X13912229Y-14388031D01*
X13912229Y-14388031D02*
X13893182Y-14416603D01*
X13893182Y-14416603D02*
X13883658Y-14454698D01*
X13883658Y-14454698D02*
X13883658Y-14530888D01*
X13883658Y-14530888D02*
X13893182Y-14549936D01*
X13893182Y-14549936D02*
X13902706Y-14559460D01*
X13902706Y-14559460D02*
X13921753Y-14568984D01*
X13921753Y-14568984D02*
X13959848Y-14568984D01*
X13959848Y-14568984D02*
X13978896Y-14559460D01*
X13978896Y-14559460D02*
X13988420Y-14549936D01*
X13988420Y-14549936D02*
X13997944Y-14530888D01*
X13997944Y-14530888D02*
X13997944Y-14483269D01*
X13997944Y-14483269D02*
X13988420Y-14464222D01*
X13988420Y-14464222D02*
X13978896Y-14454698D01*
X13978896Y-14454698D02*
X13959848Y-14445174D01*
X13959848Y-14445174D02*
X13921753Y-14445174D01*
X13921753Y-14445174D02*
X13902706Y-14454698D01*
X13902706Y-14454698D02*
X13893182Y-14464222D01*
X13893182Y-14464222D02*
X13883658Y-14483269D01*
X14074134Y-14368984D02*
X14074134Y-14407079D01*
X14150325Y-14368984D02*
X14150325Y-14407079D01*
X14445563Y-14645174D02*
X14436039Y-14635650D01*
X14436039Y-14635650D02*
X14416991Y-14607079D01*
X14416991Y-14607079D02*
X14407468Y-14588031D01*
X14407468Y-14588031D02*
X14397944Y-14559460D01*
X14397944Y-14559460D02*
X14388420Y-14511841D01*
X14388420Y-14511841D02*
X14388420Y-14473746D01*
X14388420Y-14473746D02*
X14397944Y-14426127D01*
X14397944Y-14426127D02*
X14407468Y-14397555D01*
X14407468Y-14397555D02*
X14416991Y-14378508D01*
X14416991Y-14378508D02*
X14436039Y-14349936D01*
X14436039Y-14349936D02*
X14445563Y-14340412D01*
X14512229Y-14388031D02*
X14521753Y-14378508D01*
X14521753Y-14378508D02*
X14540801Y-14368984D01*
X14540801Y-14368984D02*
X14588420Y-14368984D01*
X14588420Y-14368984D02*
X14607468Y-14378508D01*
X14607468Y-14378508D02*
X14616991Y-14388031D01*
X14616991Y-14388031D02*
X14626515Y-14407079D01*
X14626515Y-14407079D02*
X14626515Y-14426127D01*
X14626515Y-14426127D02*
X14616991Y-14454698D01*
X14616991Y-14454698D02*
X14502706Y-14568984D01*
X14502706Y-14568984D02*
X14626515Y-14568984D01*
X14864610Y-14568984D02*
X14864610Y-14368984D01*
X14950325Y-14568984D02*
X14950325Y-14464222D01*
X14950325Y-14464222D02*
X14940801Y-14445174D01*
X14940801Y-14445174D02*
X14921753Y-14435650D01*
X14921753Y-14435650D02*
X14893182Y-14435650D01*
X14893182Y-14435650D02*
X14874134Y-14445174D01*
X14874134Y-14445174D02*
X14864610Y-14454698D01*
X15074134Y-14568984D02*
X15055087Y-14559460D01*
X15055087Y-14559460D02*
X15045563Y-14549936D01*
X15045563Y-14549936D02*
X15036039Y-14530888D01*
X15036039Y-14530888D02*
X15036039Y-14473746D01*
X15036039Y-14473746D02*
X15045563Y-14454698D01*
X15045563Y-14454698D02*
X15055087Y-14445174D01*
X15055087Y-14445174D02*
X15074134Y-14435650D01*
X15074134Y-14435650D02*
X15102706Y-14435650D01*
X15102706Y-14435650D02*
X15121753Y-14445174D01*
X15121753Y-14445174D02*
X15131277Y-14454698D01*
X15131277Y-14454698D02*
X15140801Y-14473746D01*
X15140801Y-14473746D02*
X15140801Y-14530888D01*
X15140801Y-14530888D02*
X15131277Y-14549936D01*
X15131277Y-14549936D02*
X15121753Y-14559460D01*
X15121753Y-14559460D02*
X15102706Y-14568984D01*
X15102706Y-14568984D02*
X15074134Y-14568984D01*
X15255087Y-14568984D02*
X15236039Y-14559460D01*
X15236039Y-14559460D02*
X15226515Y-14540412D01*
X15226515Y-14540412D02*
X15226515Y-14368984D01*
X15407468Y-14559460D02*
X15388420Y-14568984D01*
X15388420Y-14568984D02*
X15350325Y-14568984D01*
X15350325Y-14568984D02*
X15331277Y-14559460D01*
X15331277Y-14559460D02*
X15321753Y-14540412D01*
X15321753Y-14540412D02*
X15321753Y-14464222D01*
X15321753Y-14464222D02*
X15331277Y-14445174D01*
X15331277Y-14445174D02*
X15350325Y-14435650D01*
X15350325Y-14435650D02*
X15388420Y-14435650D01*
X15388420Y-14435650D02*
X15407468Y-14445174D01*
X15407468Y-14445174D02*
X15416991Y-14464222D01*
X15416991Y-14464222D02*
X15416991Y-14483269D01*
X15416991Y-14483269D02*
X15321753Y-14502317D01*
X15493182Y-14559460D02*
X15512230Y-14568984D01*
X15512230Y-14568984D02*
X15550325Y-14568984D01*
X15550325Y-14568984D02*
X15569372Y-14559460D01*
X15569372Y-14559460D02*
X15578896Y-14540412D01*
X15578896Y-14540412D02*
X15578896Y-14530888D01*
X15578896Y-14530888D02*
X15569372Y-14511841D01*
X15569372Y-14511841D02*
X15550325Y-14502317D01*
X15550325Y-14502317D02*
X15521753Y-14502317D01*
X15521753Y-14502317D02*
X15502706Y-14492793D01*
X15502706Y-14492793D02*
X15493182Y-14473746D01*
X15493182Y-14473746D02*
X15493182Y-14464222D01*
X15493182Y-14464222D02*
X15502706Y-14445174D01*
X15502706Y-14445174D02*
X15521753Y-14435650D01*
X15521753Y-14435650D02*
X15550325Y-14435650D01*
X15550325Y-14435650D02*
X15569372Y-14445174D01*
X15645563Y-14645174D02*
X15655087Y-14635650D01*
X15655087Y-14635650D02*
X15674134Y-14607079D01*
X15674134Y-14607079D02*
X15683658Y-14588031D01*
X15683658Y-14588031D02*
X15693182Y-14559460D01*
X15693182Y-14559460D02*
X15702706Y-14511841D01*
X15702706Y-14511841D02*
X15702706Y-14473746D01*
X15702706Y-14473746D02*
X15693182Y-14426127D01*
X15693182Y-14426127D02*
X15683658Y-14397555D01*
X15683658Y-14397555D02*
X15674134Y-14378508D01*
X15674134Y-14378508D02*
X15655087Y-14349936D01*
X15655087Y-14349936D02*
X15645563Y-14340412D01*
X16007468Y-14645174D02*
X15997944Y-14635650D01*
X15997944Y-14635650D02*
X15978896Y-14607079D01*
X15978896Y-14607079D02*
X15969372Y-14588031D01*
X15969372Y-14588031D02*
X15959849Y-14559460D01*
X15959849Y-14559460D02*
X15950325Y-14511841D01*
X15950325Y-14511841D02*
X15950325Y-14473746D01*
X15950325Y-14473746D02*
X15959849Y-14426127D01*
X15959849Y-14426127D02*
X15969372Y-14397555D01*
X15969372Y-14397555D02*
X15978896Y-14378508D01*
X15978896Y-14378508D02*
X15997944Y-14349936D01*
X15997944Y-14349936D02*
X16007468Y-14340412D01*
X16083658Y-14435650D02*
X16083658Y-14568984D01*
X16083658Y-14454698D02*
X16093182Y-14445174D01*
X16093182Y-14445174D02*
X16112230Y-14435650D01*
X16112230Y-14435650D02*
X16140801Y-14435650D01*
X16140801Y-14435650D02*
X16159849Y-14445174D01*
X16159849Y-14445174D02*
X16169372Y-14464222D01*
X16169372Y-14464222D02*
X16169372Y-14568984D01*
X16293182Y-14568984D02*
X16274134Y-14559460D01*
X16274134Y-14559460D02*
X16264611Y-14549936D01*
X16264611Y-14549936D02*
X16255087Y-14530888D01*
X16255087Y-14530888D02*
X16255087Y-14473746D01*
X16255087Y-14473746D02*
X16264611Y-14454698D01*
X16264611Y-14454698D02*
X16274134Y-14445174D01*
X16274134Y-14445174D02*
X16293182Y-14435650D01*
X16293182Y-14435650D02*
X16321753Y-14435650D01*
X16321753Y-14435650D02*
X16340801Y-14445174D01*
X16340801Y-14445174D02*
X16350325Y-14454698D01*
X16350325Y-14454698D02*
X16359849Y-14473746D01*
X16359849Y-14473746D02*
X16359849Y-14530888D01*
X16359849Y-14530888D02*
X16350325Y-14549936D01*
X16350325Y-14549936D02*
X16340801Y-14559460D01*
X16340801Y-14559460D02*
X16321753Y-14568984D01*
X16321753Y-14568984D02*
X16293182Y-14568984D01*
X16416992Y-14435650D02*
X16493182Y-14435650D01*
X16445563Y-14368984D02*
X16445563Y-14540412D01*
X16445563Y-14540412D02*
X16455087Y-14559460D01*
X16455087Y-14559460D02*
X16474134Y-14568984D01*
X16474134Y-14568984D02*
X16493182Y-14568984D01*
X16712230Y-14435650D02*
X16712230Y-14635650D01*
X16712230Y-14445174D02*
X16731277Y-14435650D01*
X16731277Y-14435650D02*
X16769373Y-14435650D01*
X16769373Y-14435650D02*
X16788420Y-14445174D01*
X16788420Y-14445174D02*
X16797944Y-14454698D01*
X16797944Y-14454698D02*
X16807468Y-14473746D01*
X16807468Y-14473746D02*
X16807468Y-14530888D01*
X16807468Y-14530888D02*
X16797944Y-14549936D01*
X16797944Y-14549936D02*
X16788420Y-14559460D01*
X16788420Y-14559460D02*
X16769373Y-14568984D01*
X16769373Y-14568984D02*
X16731277Y-14568984D01*
X16731277Y-14568984D02*
X16712230Y-14559460D01*
X16921754Y-14568984D02*
X16902706Y-14559460D01*
X16902706Y-14559460D02*
X16893182Y-14540412D01*
X16893182Y-14540412D02*
X16893182Y-14368984D01*
X17083658Y-14568984D02*
X17083658Y-14464222D01*
X17083658Y-14464222D02*
X17074135Y-14445174D01*
X17074135Y-14445174D02*
X17055087Y-14435650D01*
X17055087Y-14435650D02*
X17016992Y-14435650D01*
X17016992Y-14435650D02*
X16997944Y-14445174D01*
X17083658Y-14559460D02*
X17064611Y-14568984D01*
X17064611Y-14568984D02*
X17016992Y-14568984D01*
X17016992Y-14568984D02*
X16997944Y-14559460D01*
X16997944Y-14559460D02*
X16988420Y-14540412D01*
X16988420Y-14540412D02*
X16988420Y-14521365D01*
X16988420Y-14521365D02*
X16997944Y-14502317D01*
X16997944Y-14502317D02*
X17016992Y-14492793D01*
X17016992Y-14492793D02*
X17064611Y-14492793D01*
X17064611Y-14492793D02*
X17083658Y-14483269D01*
X17150325Y-14435650D02*
X17226515Y-14435650D01*
X17178896Y-14368984D02*
X17178896Y-14540412D01*
X17178896Y-14540412D02*
X17188420Y-14559460D01*
X17188420Y-14559460D02*
X17207468Y-14568984D01*
X17207468Y-14568984D02*
X17226515Y-14568984D01*
X17369373Y-14559460D02*
X17350325Y-14568984D01*
X17350325Y-14568984D02*
X17312230Y-14568984D01*
X17312230Y-14568984D02*
X17293182Y-14559460D01*
X17293182Y-14559460D02*
X17283658Y-14540412D01*
X17283658Y-14540412D02*
X17283658Y-14464222D01*
X17283658Y-14464222D02*
X17293182Y-14445174D01*
X17293182Y-14445174D02*
X17312230Y-14435650D01*
X17312230Y-14435650D02*
X17350325Y-14435650D01*
X17350325Y-14435650D02*
X17369373Y-14445174D01*
X17369373Y-14445174D02*
X17378896Y-14464222D01*
X17378896Y-14464222D02*
X17378896Y-14483269D01*
X17378896Y-14483269D02*
X17283658Y-14502317D01*
X17550325Y-14568984D02*
X17550325Y-14368984D01*
X17550325Y-14559460D02*
X17531277Y-14568984D01*
X17531277Y-14568984D02*
X17493182Y-14568984D01*
X17493182Y-14568984D02*
X17474135Y-14559460D01*
X17474135Y-14559460D02*
X17464611Y-14549936D01*
X17464611Y-14549936D02*
X17455087Y-14530888D01*
X17455087Y-14530888D02*
X17455087Y-14473746D01*
X17455087Y-14473746D02*
X17464611Y-14454698D01*
X17464611Y-14454698D02*
X17474135Y-14445174D01*
X17474135Y-14445174D02*
X17493182Y-14435650D01*
X17493182Y-14435650D02*
X17531277Y-14435650D01*
X17531277Y-14435650D02*
X17550325Y-14445174D01*
X17626516Y-14645174D02*
X17636039Y-14635650D01*
X17636039Y-14635650D02*
X17655087Y-14607079D01*
X17655087Y-14607079D02*
X17664611Y-14588031D01*
X17664611Y-14588031D02*
X17674135Y-14559460D01*
X17674135Y-14559460D02*
X17683658Y-14511841D01*
X17683658Y-14511841D02*
X17683658Y-14473746D01*
X17683658Y-14473746D02*
X17674135Y-14426127D01*
X17674135Y-14426127D02*
X17664611Y-14397555D01*
X17664611Y-14397555D02*
X17655087Y-14378508D01*
X17655087Y-14378508D02*
X17636039Y-14349936D01*
X17636039Y-14349936D02*
X17626516Y-14340412D01*
M02*
