%TF.GenerationSoftware,KiCad,Pcbnew,10.0.0*%
%TF.CreationDate,2026-07-12T02:42:37+05:30*%
%TF.ProjectId,water monitor,77617465-7220-46d6-9f6e-69746f722e6b,rev?*%
%TF.SameCoordinates,Original*%
%TF.FileFunction,Legend,Top*%
%TF.FilePolarity,Positive*%
%FSLAX46Y46*%
G04 Gerber Fmt 4.6, Leading zero omitted, Abs format (unit mm)*
G04 Created by KiCad (PCBNEW 10.0.0) date 2026-07-12 02:42:37*
%MOMM*%
%LPD*%
G01*
G04 APERTURE LIST*
%ADD10C,0.300000*%
%ADD11C,0.150000*%
%ADD12C,0.120000*%
G04 APERTURE END LIST*
D10*
G36*
X114204605Y-95967502D02*
G01*
X114403313Y-96010609D01*
X114567034Y-96077896D01*
X114701713Y-96168175D01*
X114815574Y-96283885D01*
X114895136Y-96409894D01*
X114943158Y-96548536D01*
X114959633Y-96703250D01*
X114938612Y-96875488D01*
X114877452Y-97026960D01*
X114775462Y-97162487D01*
X114686401Y-97238819D01*
X114574949Y-97304081D01*
X114437344Y-97357943D01*
X114651905Y-97423662D01*
X114817602Y-97512393D01*
X114943312Y-97623007D01*
X115035686Y-97758006D01*
X115092721Y-97916259D01*
X115112773Y-98103677D01*
X115098969Y-98257605D01*
X115058664Y-98397930D01*
X114992276Y-98527194D01*
X114902132Y-98643907D01*
X114793009Y-98742607D01*
X114663226Y-98824682D01*
X114515289Y-98879911D01*
X114273121Y-98923967D01*
X113814708Y-98965000D01*
X112045334Y-98965000D01*
X112045334Y-98308475D01*
X113088501Y-98308475D01*
X113602730Y-98308475D01*
X113775751Y-98296908D01*
X113893226Y-98267300D01*
X113970266Y-98224944D01*
X114028784Y-98163474D01*
X114064087Y-98089864D01*
X114076457Y-98000362D01*
X114064391Y-97917647D01*
X114029636Y-97848669D01*
X113971274Y-97790069D01*
X113895291Y-97750064D01*
X113777105Y-97721729D01*
X113600513Y-97710568D01*
X113088501Y-97710568D01*
X113088501Y-98308475D01*
X112045334Y-98308475D01*
X112045334Y-97124385D01*
X113088501Y-97124385D01*
X113526160Y-97124385D01*
X113683184Y-97114209D01*
X113787595Y-97088425D01*
X113854202Y-97052028D01*
X113903755Y-96998558D01*
X113934584Y-96930337D01*
X113945683Y-96842834D01*
X113934844Y-96762143D01*
X113904268Y-96697379D01*
X113854202Y-96644815D01*
X113787803Y-96608738D01*
X113685266Y-96583343D01*
X113532809Y-96573374D01*
X113088501Y-96573374D01*
X113088501Y-97124385D01*
X112045334Y-97124385D01*
X112045334Y-95952020D01*
X113963415Y-95952020D01*
X114204605Y-95967502D01*
G37*
G36*
X115304602Y-96772676D02*
G01*
X116288528Y-96772676D01*
X116777166Y-98209740D01*
X117230139Y-96772676D01*
X118148175Y-96772676D01*
X117195884Y-99114110D01*
X117072381Y-99379092D01*
X116961633Y-99551924D01*
X116862804Y-99656695D01*
X116737640Y-99738410D01*
X116579133Y-99800574D01*
X116379785Y-99841184D01*
X116130350Y-99855997D01*
X115904155Y-99845953D01*
X115511341Y-99807271D01*
X115437592Y-99218157D01*
X115650521Y-99265284D01*
X115886938Y-99281538D01*
X116035668Y-99262878D01*
X116145664Y-99211379D01*
X116231073Y-99122325D01*
X116312909Y-98961336D01*
X115304602Y-96772676D01*
G37*
G36*
X119814784Y-97954384D02*
G01*
X120799113Y-97897780D01*
X120830625Y-98043267D01*
X120874148Y-98152058D01*
X120927066Y-98231721D01*
X121012202Y-98310589D01*
X121112580Y-98366810D01*
X121231240Y-98401682D01*
X121372785Y-98413988D01*
X121513667Y-98402520D01*
X121622088Y-98371272D01*
X121705260Y-98322946D01*
X121771723Y-98256671D01*
X121809305Y-98187207D01*
X121821728Y-98112103D01*
X121810017Y-98040657D01*
X121774424Y-97973635D01*
X121711305Y-97908771D01*
X121627489Y-97859553D01*
X121466502Y-97802090D01*
X121191031Y-97736763D01*
X120843520Y-97652791D01*
X120576770Y-97562557D01*
X120376521Y-97468426D01*
X120230278Y-97371864D01*
X120102110Y-97248537D01*
X120012484Y-97112306D01*
X119958217Y-96960400D01*
X119939513Y-96788613D01*
X119955813Y-96637176D01*
X120004758Y-96491345D01*
X120088220Y-96348609D01*
X120200412Y-96223543D01*
X120347332Y-96115198D01*
X120534745Y-96023278D01*
X120738067Y-95961949D01*
X121005018Y-95920550D01*
X121350418Y-95905125D01*
X121675059Y-95921253D01*
X121938288Y-95965585D01*
X122150413Y-96033264D01*
X122320239Y-96121280D01*
X122465483Y-96240264D01*
X122580560Y-96391224D01*
X122666080Y-96580024D01*
X122719210Y-96814991D01*
X121743948Y-96866831D01*
X121705670Y-96734532D01*
X121651660Y-96638405D01*
X121583957Y-96570443D01*
X121497973Y-96521986D01*
X121388414Y-96490898D01*
X121248862Y-96479584D01*
X121087639Y-96498188D01*
X120984897Y-96546263D01*
X120918327Y-96621016D01*
X120896841Y-96708012D01*
X120913827Y-96771530D01*
X120968978Y-96832027D01*
X121067037Y-96880764D01*
X121308909Y-96940837D01*
X121758740Y-97039388D01*
X122068195Y-97127625D01*
X122270066Y-97205535D01*
X122453439Y-97306620D01*
X122592416Y-97417500D01*
X122693821Y-97538377D01*
X122767203Y-97675308D01*
X122811500Y-97822788D01*
X122826610Y-97983510D01*
X122806899Y-98171439D01*
X122748357Y-98347986D01*
X122649692Y-98516386D01*
X122517547Y-98664556D01*
X122354232Y-98787352D01*
X122155614Y-98886048D01*
X121939797Y-98952796D01*
X121676629Y-98996205D01*
X121357068Y-99011894D01*
X120997566Y-98996378D01*
X120712609Y-98954243D01*
X120489332Y-98891031D01*
X120316517Y-98810625D01*
X120184940Y-98714956D01*
X120040904Y-98557995D01*
X119931606Y-98381194D01*
X119855876Y-98181410D01*
X119814784Y-97954384D01*
G37*
G36*
X124862789Y-96737704D02*
G01*
X125134192Y-96768096D01*
X125296132Y-96807641D01*
X125434824Y-96866634D01*
X125553715Y-96944684D01*
X125656730Y-97053179D01*
X125740305Y-97208283D01*
X125792045Y-97377977D01*
X125808412Y-97533614D01*
X125808412Y-98495504D01*
X125814470Y-98640356D01*
X125829569Y-98735289D01*
X125861082Y-98827386D01*
X125927297Y-98965000D01*
X125051980Y-98965000D01*
X124982059Y-98830361D01*
X124952237Y-98699569D01*
X124773487Y-98833850D01*
X124600619Y-98920486D01*
X124434624Y-98969937D01*
X124246365Y-99001005D01*
X124032388Y-99011894D01*
X123815008Y-98998659D01*
X123637983Y-98962046D01*
X123494147Y-98905404D01*
X123377713Y-98830177D01*
X123278359Y-98732321D01*
X123209316Y-98626381D01*
X123167835Y-98510431D01*
X123153645Y-98381564D01*
X123161252Y-98317084D01*
X124086188Y-98317084D01*
X124104815Y-98403313D01*
X124159736Y-98471324D01*
X124245530Y-98514717D01*
X124377356Y-98531224D01*
X124524020Y-98514708D01*
X124659255Y-98465462D01*
X124773442Y-98390052D01*
X124844031Y-98305177D01*
X124883548Y-98201946D01*
X124898436Y-98058614D01*
X124898436Y-97935699D01*
X124511959Y-98040113D01*
X124262438Y-98114436D01*
X124160744Y-98169806D01*
X124104189Y-98240414D01*
X124086188Y-98317084D01*
X123161252Y-98317084D01*
X123172624Y-98220680D01*
X123226762Y-98085380D01*
X123315248Y-97970137D01*
X123435819Y-97881511D01*
X123625800Y-97800485D01*
X123909473Y-97731085D01*
X124578454Y-97599193D01*
X124898436Y-97501374D01*
X124878803Y-97366135D01*
X124830329Y-97290715D01*
X124745686Y-97247657D01*
X124589335Y-97229898D01*
X124382189Y-97248420D01*
X124254643Y-97294562D01*
X124181030Y-97361708D01*
X124113592Y-97488185D01*
X123224371Y-97405020D01*
X123290375Y-97204058D01*
X123370056Y-97068515D01*
X123481532Y-96958711D01*
X123641679Y-96859321D01*
X123782419Y-96805559D01*
X123990476Y-96760586D01*
X124216947Y-96734790D01*
X124469845Y-96725781D01*
X124862789Y-96737704D01*
G37*
G36*
X128878471Y-98965000D02*
G01*
X128006579Y-98965000D01*
X128006579Y-98653407D01*
X127831932Y-98823479D01*
X127687000Y-98917372D01*
X127550396Y-98969393D01*
X127402849Y-99001056D01*
X127242087Y-99011894D01*
X127048039Y-98997304D01*
X126879780Y-98955579D01*
X126732706Y-98888220D01*
X126603397Y-98794577D01*
X126489886Y-98671908D01*
X126378712Y-98497307D01*
X126297872Y-98303707D01*
X126247757Y-98087970D01*
X126232847Y-97880928D01*
X127160681Y-97880928D01*
X127175353Y-98055528D01*
X127213840Y-98180522D01*
X127270498Y-98268175D01*
X127351172Y-98337245D01*
X127440442Y-98377086D01*
X127541919Y-98390540D01*
X127650975Y-98376774D01*
X127745798Y-98336346D01*
X127830266Y-98267076D01*
X127889508Y-98178046D01*
X127930111Y-98047908D01*
X127945726Y-97862426D01*
X127930379Y-97695632D01*
X127889468Y-97572779D01*
X127827848Y-97483422D01*
X127741783Y-97413777D01*
X127644083Y-97372864D01*
X127530635Y-97358859D01*
X127432101Y-97371963D01*
X127345419Y-97410780D01*
X127267073Y-97478110D01*
X127213065Y-97563880D01*
X127175359Y-97692943D01*
X127160681Y-97880928D01*
X126232847Y-97880928D01*
X126230354Y-97846306D01*
X126251045Y-97572952D01*
X126308514Y-97348674D01*
X126397892Y-97164824D01*
X126517290Y-97014476D01*
X126671226Y-96887677D01*
X126841532Y-96798584D01*
X127031666Y-96744462D01*
X127246721Y-96725781D01*
X127455245Y-96742776D01*
X127638035Y-96791727D01*
X127802130Y-96871757D01*
X127939077Y-96978389D01*
X127939077Y-95952020D01*
X128878471Y-95952020D01*
X128878471Y-98965000D01*
G37*
G36*
X129433202Y-96772676D02*
G01*
X130304892Y-96772676D01*
X130304892Y-97109548D01*
X130388558Y-96975023D01*
X130470461Y-96878845D01*
X130550723Y-96813342D01*
X130644075Y-96765700D01*
X130752690Y-96736161D01*
X130880176Y-96725781D01*
X131013906Y-96737348D01*
X131163512Y-96774344D01*
X131332544Y-96841369D01*
X131043592Y-97445870D01*
X130883884Y-97395548D01*
X130783254Y-97382306D01*
X130673121Y-97397416D01*
X130583503Y-97441011D01*
X130509214Y-97515479D01*
X130440145Y-97650927D01*
X130388883Y-97875867D01*
X130368163Y-98227325D01*
X130368163Y-98965000D01*
X129433202Y-98965000D01*
X129433202Y-96772676D01*
G37*
G36*
X131508454Y-95952020D02*
G01*
X132438781Y-95952020D01*
X132438781Y-96526479D01*
X131508454Y-96526479D01*
X131508454Y-95952020D01*
G37*
G36*
X131508454Y-96772676D02*
G01*
X132438781Y-96772676D01*
X132438781Y-98965000D01*
X131508454Y-98965000D01*
X131508454Y-96772676D01*
G37*
G36*
X134132190Y-95948356D02*
G01*
X134132190Y-96772676D01*
X134637150Y-96772676D01*
X134637150Y-97394030D01*
X134132190Y-97394030D01*
X134132190Y-98164494D01*
X134141258Y-98290711D01*
X134160601Y-98346943D01*
X134217651Y-98396078D01*
X134312734Y-98413988D01*
X134422806Y-98402458D01*
X134602492Y-98358483D01*
X134671606Y-98943384D01*
X134329973Y-98995562D01*
X134028820Y-99011894D01*
X133798584Y-99000811D01*
X133634353Y-98972074D01*
X133520636Y-98931111D01*
X133421264Y-98868340D01*
X133340874Y-98787415D01*
X133278030Y-98685830D01*
X133238925Y-98572517D01*
X133210704Y-98401773D01*
X133199646Y-98155151D01*
X133199646Y-97394030D01*
X132861529Y-97394030D01*
X132861529Y-96772676D01*
X133199646Y-96772676D01*
X133199646Y-96378834D01*
X134132190Y-95948356D01*
G37*
G36*
X136659426Y-96737704D02*
G01*
X136930828Y-96768096D01*
X137092769Y-96807641D01*
X137231461Y-96866634D01*
X137350352Y-96944684D01*
X137453367Y-97053179D01*
X137536941Y-97208283D01*
X137588681Y-97377977D01*
X137605048Y-97533614D01*
X137605048Y-98495504D01*
X137611107Y-98640356D01*
X137626206Y-98735289D01*
X137657718Y-98827386D01*
X137723934Y-98965000D01*
X136848616Y-98965000D01*
X136778695Y-98830361D01*
X136748873Y-98699569D01*
X136570124Y-98833850D01*
X136397255Y-98920486D01*
X136231261Y-98969937D01*
X136043002Y-99001005D01*
X135829024Y-99011894D01*
X135611645Y-98998659D01*
X135434620Y-98962046D01*
X135290784Y-98905404D01*
X135174350Y-98830177D01*
X135074996Y-98732321D01*
X135005953Y-98626381D01*
X134964471Y-98510431D01*
X134950281Y-98381564D01*
X134957888Y-98317084D01*
X135882825Y-98317084D01*
X135901451Y-98403313D01*
X135956372Y-98471324D01*
X136042166Y-98514717D01*
X136173993Y-98531224D01*
X136320656Y-98514708D01*
X136455892Y-98465462D01*
X136570078Y-98390052D01*
X136640668Y-98305177D01*
X136680184Y-98201946D01*
X136695073Y-98058614D01*
X136695073Y-97935699D01*
X136308595Y-98040113D01*
X136059074Y-98114436D01*
X135957380Y-98169806D01*
X135900825Y-98240414D01*
X135882825Y-98317084D01*
X134957888Y-98317084D01*
X134969260Y-98220680D01*
X135023398Y-98085380D01*
X135111885Y-97970137D01*
X135232455Y-97881511D01*
X135422437Y-97800485D01*
X135706109Y-97731085D01*
X136375090Y-97599193D01*
X136695073Y-97501374D01*
X136675440Y-97366135D01*
X136626966Y-97290715D01*
X136542323Y-97247657D01*
X136385971Y-97229898D01*
X136178825Y-97248420D01*
X136051279Y-97294562D01*
X135977667Y-97361708D01*
X135910229Y-97488185D01*
X135021008Y-97405020D01*
X135087011Y-97204058D01*
X135166693Y-97068515D01*
X135278168Y-96958711D01*
X135438315Y-96859321D01*
X135579056Y-96805559D01*
X135787112Y-96760586D01*
X136013584Y-96734790D01*
X136266482Y-96725781D01*
X136659426Y-96737704D01*
G37*
G36*
X139747400Y-95952020D02*
G01*
X140710773Y-95952020D01*
X141945366Y-97598827D01*
X141945366Y-95952020D01*
X142920829Y-95952020D01*
X142920829Y-98965000D01*
X141948388Y-98965000D01*
X140720647Y-97327534D01*
X140720647Y-98965000D01*
X139747400Y-98965000D01*
X139747400Y-95952020D01*
G37*
G36*
X145112321Y-96744008D02*
G01*
X145379027Y-96793263D01*
X145584664Y-96867198D01*
X145769090Y-96976074D01*
X145919896Y-97111741D01*
X146040256Y-97276793D01*
X146123062Y-97461258D01*
X146177011Y-97690539D01*
X146196620Y-97974351D01*
X146196620Y-98074002D01*
X144357930Y-98074002D01*
X144383941Y-98201365D01*
X144423797Y-98296674D01*
X144475001Y-98366727D01*
X144571381Y-98445112D01*
X144683753Y-98491667D01*
X144817350Y-98507777D01*
X144947154Y-98492684D01*
X145071241Y-98446960D01*
X145142663Y-98397537D01*
X145231635Y-98308292D01*
X146148865Y-98379549D01*
X145990245Y-98594190D01*
X145821217Y-98753754D01*
X145641084Y-98866814D01*
X145437668Y-98941822D01*
X145162705Y-98992745D01*
X144797200Y-99011894D01*
X144479765Y-98995992D01*
X144233894Y-98953186D01*
X144045806Y-98889345D01*
X143876161Y-98793552D01*
X143725103Y-98665187D01*
X143591221Y-98500083D01*
X143492798Y-98315857D01*
X143432157Y-98108438D01*
X143411079Y-97872868D01*
X143431103Y-97663674D01*
X144360146Y-97663674D01*
X145249972Y-97663674D01*
X145219404Y-97513700D01*
X145171373Y-97406440D01*
X145109324Y-97331748D01*
X145027031Y-97276120D01*
X144928244Y-97241958D01*
X144808283Y-97229898D01*
X144673002Y-97247329D01*
X144560102Y-97297813D01*
X144463919Y-97383588D01*
X144399802Y-97493793D01*
X144360146Y-97663674D01*
X143431103Y-97663674D01*
X143435170Y-97621183D01*
X143504192Y-97402819D01*
X143616076Y-97211593D01*
X143772571Y-97043053D01*
X143922065Y-96932568D01*
X144092984Y-96845204D01*
X144288451Y-96780672D01*
X144512519Y-96740061D01*
X144769998Y-96725781D01*
X145112321Y-96744008D01*
G37*
G36*
X148159349Y-96743183D02*
G01*
X148408592Y-96792282D01*
X148621376Y-96869792D01*
X148803280Y-96974391D01*
X148958384Y-97106800D01*
X149087159Y-97267511D01*
X149179209Y-97444752D01*
X149235669Y-97641721D01*
X149255194Y-97862609D01*
X149230956Y-98109531D01*
X149161133Y-98326115D01*
X149047215Y-98518130D01*
X148886851Y-98689677D01*
X148734692Y-98801791D01*
X148560527Y-98890506D01*
X148361140Y-98956078D01*
X148132369Y-98997369D01*
X147869275Y-99011894D01*
X147580286Y-98993440D01*
X147331869Y-98941092D01*
X147117486Y-98857794D01*
X146931895Y-98744265D01*
X146772409Y-98602062D01*
X146650808Y-98446434D01*
X146563887Y-98275509D01*
X146510618Y-98086333D01*
X146492221Y-97875066D01*
X146492949Y-97867739D01*
X147424765Y-97867739D01*
X147441630Y-98059485D01*
X147486245Y-98198881D01*
X147552718Y-98298583D01*
X147646523Y-98376507D01*
X147752057Y-98421955D01*
X147873708Y-98437435D01*
X147997017Y-98422025D01*
X148102472Y-98377087D01*
X148194698Y-98300598D01*
X148259388Y-98202222D01*
X148303529Y-98060113D01*
X148320434Y-97859495D01*
X148303847Y-97673497D01*
X148259759Y-97536981D01*
X148193690Y-97438176D01*
X148100850Y-97360474D01*
X147997849Y-97315473D01*
X147880559Y-97300240D01*
X147755887Y-97315925D01*
X147648466Y-97361816D01*
X147553725Y-97440191D01*
X147486490Y-97540468D01*
X147441637Y-97679002D01*
X147424765Y-97867739D01*
X146492949Y-97867739D01*
X146516532Y-97630492D01*
X146586733Y-97414952D01*
X146701604Y-97222841D01*
X146863788Y-97050197D01*
X147017741Y-96936532D01*
X147191742Y-96847085D01*
X147388649Y-96781353D01*
X147612200Y-96740193D01*
X147866857Y-96725781D01*
X148159349Y-96743183D01*
G37*
G36*
X150741642Y-96736578D02*
G01*
X150894449Y-96766536D01*
X151019934Y-96812976D01*
X151134321Y-96879612D01*
X151244086Y-96969666D01*
X151349790Y-97086467D01*
X151349790Y-96772676D01*
X152221481Y-96772676D01*
X152221481Y-98842084D01*
X152223697Y-98938804D01*
X152199565Y-99140909D01*
X152127178Y-99333196D01*
X152013223Y-99504699D01*
X151870669Y-99636545D01*
X151758644Y-99704708D01*
X151624618Y-99760926D01*
X151465048Y-99804340D01*
X151210080Y-99842303D01*
X150903064Y-99855997D01*
X150523275Y-99839297D01*
X150244845Y-99795499D01*
X150045880Y-99732423D01*
X149907854Y-99655230D01*
X149788969Y-99546272D01*
X149705316Y-99422645D01*
X149654213Y-99281391D01*
X149636433Y-99117957D01*
X149641269Y-98999438D01*
X150542983Y-99094509D01*
X150589051Y-99197200D01*
X150645345Y-99253328D01*
X150754506Y-99299971D01*
X150896414Y-99316709D01*
X151022453Y-99304773D01*
X151117128Y-99272328D01*
X151187985Y-99221638D01*
X151236886Y-99152089D01*
X151270976Y-99045432D01*
X151284303Y-98887513D01*
X151284303Y-98571524D01*
X151153052Y-98689908D01*
X151023360Y-98769178D01*
X150877637Y-98825772D01*
X150724772Y-98859732D01*
X150562730Y-98871210D01*
X150375807Y-98855727D01*
X150207495Y-98810606D01*
X150053995Y-98736073D01*
X149912600Y-98630024D01*
X149781916Y-98488176D01*
X149693736Y-98349480D01*
X149627919Y-98186668D01*
X149586029Y-97995476D01*
X149575746Y-97840261D01*
X150499257Y-97840261D01*
X150513445Y-97992960D01*
X150551163Y-98104635D01*
X150607866Y-98185193D01*
X150687300Y-98246814D01*
X150781180Y-98283838D01*
X150893996Y-98296751D01*
X151000803Y-98283781D01*
X151093887Y-98245764D01*
X151176903Y-98180980D01*
X151236888Y-98097492D01*
X151276400Y-97983698D01*
X151291154Y-97830186D01*
X151275984Y-97676949D01*
X151234788Y-97560004D01*
X151171261Y-97471149D01*
X151084030Y-97401420D01*
X150987599Y-97360871D01*
X150878279Y-97347135D01*
X150768919Y-97360248D01*
X150678425Y-97397888D01*
X150602224Y-97460891D01*
X150549754Y-97542640D01*
X150513362Y-97664361D01*
X150499257Y-97840261D01*
X149575746Y-97840261D01*
X149571147Y-97770835D01*
X149590802Y-97514439D01*
X149645338Y-97304699D01*
X149730108Y-97133293D01*
X149843374Y-96993593D01*
X149988940Y-96877146D01*
X150153431Y-96794356D01*
X150340618Y-96743493D01*
X150555879Y-96725781D01*
X150741642Y-96736578D01*
G37*
G36*
X152796563Y-95952020D02*
G01*
X153726890Y-95952020D01*
X153726890Y-96526479D01*
X152796563Y-96526479D01*
X152796563Y-95952020D01*
G37*
G36*
X152796563Y-96772676D02*
G01*
X153726890Y-96772676D01*
X153726890Y-98965000D01*
X152796563Y-98965000D01*
X152796563Y-96772676D01*
G37*
D11*
X114984580Y-121341666D02*
X115032200Y-121389285D01*
X115032200Y-121389285D02*
X115079819Y-121532142D01*
X115079819Y-121532142D02*
X115079819Y-121627380D01*
X115079819Y-121627380D02*
X115032200Y-121770237D01*
X115032200Y-121770237D02*
X114936961Y-121865475D01*
X114936961Y-121865475D02*
X114841723Y-121913094D01*
X114841723Y-121913094D02*
X114651247Y-121960713D01*
X114651247Y-121960713D02*
X114508390Y-121960713D01*
X114508390Y-121960713D02*
X114317914Y-121913094D01*
X114317914Y-121913094D02*
X114222676Y-121865475D01*
X114222676Y-121865475D02*
X114127438Y-121770237D01*
X114127438Y-121770237D02*
X114079819Y-121627380D01*
X114079819Y-121627380D02*
X114079819Y-121532142D01*
X114079819Y-121532142D02*
X114127438Y-121389285D01*
X114127438Y-121389285D02*
X114175057Y-121341666D01*
X114079819Y-121008332D02*
X114079819Y-120389285D01*
X114079819Y-120389285D02*
X114460771Y-120722618D01*
X114460771Y-120722618D02*
X114460771Y-120579761D01*
X114460771Y-120579761D02*
X114508390Y-120484523D01*
X114508390Y-120484523D02*
X114556009Y-120436904D01*
X114556009Y-120436904D02*
X114651247Y-120389285D01*
X114651247Y-120389285D02*
X114889342Y-120389285D01*
X114889342Y-120389285D02*
X114984580Y-120436904D01*
X114984580Y-120436904D02*
X115032200Y-120484523D01*
X115032200Y-120484523D02*
X115079819Y-120579761D01*
X115079819Y-120579761D02*
X115079819Y-120865475D01*
X115079819Y-120865475D02*
X115032200Y-120960713D01*
X115032200Y-120960713D02*
X114984580Y-121008332D01*
X115846667Y-127807200D02*
X115989524Y-127854819D01*
X115989524Y-127854819D02*
X116227619Y-127854819D01*
X116227619Y-127854819D02*
X116322857Y-127807200D01*
X116322857Y-127807200D02*
X116370476Y-127759580D01*
X116370476Y-127759580D02*
X116418095Y-127664342D01*
X116418095Y-127664342D02*
X116418095Y-127569104D01*
X116418095Y-127569104D02*
X116370476Y-127473866D01*
X116370476Y-127473866D02*
X116322857Y-127426247D01*
X116322857Y-127426247D02*
X116227619Y-127378628D01*
X116227619Y-127378628D02*
X116037143Y-127331009D01*
X116037143Y-127331009D02*
X115941905Y-127283390D01*
X115941905Y-127283390D02*
X115894286Y-127235771D01*
X115894286Y-127235771D02*
X115846667Y-127140533D01*
X115846667Y-127140533D02*
X115846667Y-127045295D01*
X115846667Y-127045295D02*
X115894286Y-126950057D01*
X115894286Y-126950057D02*
X115941905Y-126902438D01*
X115941905Y-126902438D02*
X116037143Y-126854819D01*
X116037143Y-126854819D02*
X116275238Y-126854819D01*
X116275238Y-126854819D02*
X116418095Y-126902438D01*
X116751429Y-126854819D02*
X116989524Y-127854819D01*
X116989524Y-127854819D02*
X117180000Y-127140533D01*
X117180000Y-127140533D02*
X117370476Y-127854819D01*
X117370476Y-127854819D02*
X117608572Y-126854819D01*
X117941905Y-126950057D02*
X117989524Y-126902438D01*
X117989524Y-126902438D02*
X118084762Y-126854819D01*
X118084762Y-126854819D02*
X118322857Y-126854819D01*
X118322857Y-126854819D02*
X118418095Y-126902438D01*
X118418095Y-126902438D02*
X118465714Y-126950057D01*
X118465714Y-126950057D02*
X118513333Y-127045295D01*
X118513333Y-127045295D02*
X118513333Y-127140533D01*
X118513333Y-127140533D02*
X118465714Y-127283390D01*
X118465714Y-127283390D02*
X117894286Y-127854819D01*
X117894286Y-127854819D02*
X118513333Y-127854819D01*
X152888333Y-113904819D02*
X152555000Y-113428628D01*
X152316905Y-113904819D02*
X152316905Y-112904819D01*
X152316905Y-112904819D02*
X152697857Y-112904819D01*
X152697857Y-112904819D02*
X152793095Y-112952438D01*
X152793095Y-112952438D02*
X152840714Y-113000057D01*
X152840714Y-113000057D02*
X152888333Y-113095295D01*
X152888333Y-113095295D02*
X152888333Y-113238152D01*
X152888333Y-113238152D02*
X152840714Y-113333390D01*
X152840714Y-113333390D02*
X152793095Y-113381009D01*
X152793095Y-113381009D02*
X152697857Y-113428628D01*
X152697857Y-113428628D02*
X152316905Y-113428628D01*
X153221667Y-112904819D02*
X153840714Y-112904819D01*
X153840714Y-112904819D02*
X153507381Y-113285771D01*
X153507381Y-113285771D02*
X153650238Y-113285771D01*
X153650238Y-113285771D02*
X153745476Y-113333390D01*
X153745476Y-113333390D02*
X153793095Y-113381009D01*
X153793095Y-113381009D02*
X153840714Y-113476247D01*
X153840714Y-113476247D02*
X153840714Y-113714342D01*
X153840714Y-113714342D02*
X153793095Y-113809580D01*
X153793095Y-113809580D02*
X153745476Y-113857200D01*
X153745476Y-113857200D02*
X153650238Y-113904819D01*
X153650238Y-113904819D02*
X153364524Y-113904819D01*
X153364524Y-113904819D02*
X153269286Y-113857200D01*
X153269286Y-113857200D02*
X153221667Y-113809580D01*
X152888333Y-110954819D02*
X152555000Y-110478628D01*
X152316905Y-110954819D02*
X152316905Y-109954819D01*
X152316905Y-109954819D02*
X152697857Y-109954819D01*
X152697857Y-109954819D02*
X152793095Y-110002438D01*
X152793095Y-110002438D02*
X152840714Y-110050057D01*
X152840714Y-110050057D02*
X152888333Y-110145295D01*
X152888333Y-110145295D02*
X152888333Y-110288152D01*
X152888333Y-110288152D02*
X152840714Y-110383390D01*
X152840714Y-110383390D02*
X152793095Y-110431009D01*
X152793095Y-110431009D02*
X152697857Y-110478628D01*
X152697857Y-110478628D02*
X152316905Y-110478628D01*
X153269286Y-110050057D02*
X153316905Y-110002438D01*
X153316905Y-110002438D02*
X153412143Y-109954819D01*
X153412143Y-109954819D02*
X153650238Y-109954819D01*
X153650238Y-109954819D02*
X153745476Y-110002438D01*
X153745476Y-110002438D02*
X153793095Y-110050057D01*
X153793095Y-110050057D02*
X153840714Y-110145295D01*
X153840714Y-110145295D02*
X153840714Y-110240533D01*
X153840714Y-110240533D02*
X153793095Y-110383390D01*
X153793095Y-110383390D02*
X153221667Y-110954819D01*
X153221667Y-110954819D02*
X153840714Y-110954819D01*
X152888333Y-108329819D02*
X152555000Y-107853628D01*
X152316905Y-108329819D02*
X152316905Y-107329819D01*
X152316905Y-107329819D02*
X152697857Y-107329819D01*
X152697857Y-107329819D02*
X152793095Y-107377438D01*
X152793095Y-107377438D02*
X152840714Y-107425057D01*
X152840714Y-107425057D02*
X152888333Y-107520295D01*
X152888333Y-107520295D02*
X152888333Y-107663152D01*
X152888333Y-107663152D02*
X152840714Y-107758390D01*
X152840714Y-107758390D02*
X152793095Y-107806009D01*
X152793095Y-107806009D02*
X152697857Y-107853628D01*
X152697857Y-107853628D02*
X152316905Y-107853628D01*
X153793095Y-107329819D02*
X153316905Y-107329819D01*
X153316905Y-107329819D02*
X153269286Y-107806009D01*
X153269286Y-107806009D02*
X153316905Y-107758390D01*
X153316905Y-107758390D02*
X153412143Y-107710771D01*
X153412143Y-107710771D02*
X153650238Y-107710771D01*
X153650238Y-107710771D02*
X153745476Y-107758390D01*
X153745476Y-107758390D02*
X153793095Y-107806009D01*
X153793095Y-107806009D02*
X153840714Y-107901247D01*
X153840714Y-107901247D02*
X153840714Y-108139342D01*
X153840714Y-108139342D02*
X153793095Y-108234580D01*
X153793095Y-108234580D02*
X153745476Y-108282200D01*
X153745476Y-108282200D02*
X153650238Y-108329819D01*
X153650238Y-108329819D02*
X153412143Y-108329819D01*
X153412143Y-108329819D02*
X153316905Y-108282200D01*
X153316905Y-108282200D02*
X153269286Y-108234580D01*
X120646666Y-107509819D02*
X120646666Y-108224104D01*
X120646666Y-108224104D02*
X120599047Y-108366961D01*
X120599047Y-108366961D02*
X120503809Y-108462200D01*
X120503809Y-108462200D02*
X120360952Y-108509819D01*
X120360952Y-108509819D02*
X120265714Y-108509819D01*
X121551428Y-107843152D02*
X121551428Y-108509819D01*
X121313333Y-107462200D02*
X121075238Y-108176485D01*
X121075238Y-108176485D02*
X121694285Y-108176485D01*
X112713333Y-124004580D02*
X112665714Y-124052200D01*
X112665714Y-124052200D02*
X112522857Y-124099819D01*
X112522857Y-124099819D02*
X112427619Y-124099819D01*
X112427619Y-124099819D02*
X112284762Y-124052200D01*
X112284762Y-124052200D02*
X112189524Y-123956961D01*
X112189524Y-123956961D02*
X112141905Y-123861723D01*
X112141905Y-123861723D02*
X112094286Y-123671247D01*
X112094286Y-123671247D02*
X112094286Y-123528390D01*
X112094286Y-123528390D02*
X112141905Y-123337914D01*
X112141905Y-123337914D02*
X112189524Y-123242676D01*
X112189524Y-123242676D02*
X112284762Y-123147438D01*
X112284762Y-123147438D02*
X112427619Y-123099819D01*
X112427619Y-123099819D02*
X112522857Y-123099819D01*
X112522857Y-123099819D02*
X112665714Y-123147438D01*
X112665714Y-123147438D02*
X112713333Y-123195057D01*
X113665714Y-124099819D02*
X113094286Y-124099819D01*
X113380000Y-124099819D02*
X113380000Y-123099819D01*
X113380000Y-123099819D02*
X113284762Y-123242676D01*
X113284762Y-123242676D02*
X113189524Y-123337914D01*
X113189524Y-123337914D02*
X113094286Y-123385533D01*
X154494580Y-127291666D02*
X154542200Y-127339285D01*
X154542200Y-127339285D02*
X154589819Y-127482142D01*
X154589819Y-127482142D02*
X154589819Y-127577380D01*
X154589819Y-127577380D02*
X154542200Y-127720237D01*
X154542200Y-127720237D02*
X154446961Y-127815475D01*
X154446961Y-127815475D02*
X154351723Y-127863094D01*
X154351723Y-127863094D02*
X154161247Y-127910713D01*
X154161247Y-127910713D02*
X154018390Y-127910713D01*
X154018390Y-127910713D02*
X153827914Y-127863094D01*
X153827914Y-127863094D02*
X153732676Y-127815475D01*
X153732676Y-127815475D02*
X153637438Y-127720237D01*
X153637438Y-127720237D02*
X153589819Y-127577380D01*
X153589819Y-127577380D02*
X153589819Y-127482142D01*
X153589819Y-127482142D02*
X153637438Y-127339285D01*
X153637438Y-127339285D02*
X153685057Y-127291666D01*
X153685057Y-126910713D02*
X153637438Y-126863094D01*
X153637438Y-126863094D02*
X153589819Y-126767856D01*
X153589819Y-126767856D02*
X153589819Y-126529761D01*
X153589819Y-126529761D02*
X153637438Y-126434523D01*
X153637438Y-126434523D02*
X153685057Y-126386904D01*
X153685057Y-126386904D02*
X153780295Y-126339285D01*
X153780295Y-126339285D02*
X153875533Y-126339285D01*
X153875533Y-126339285D02*
X154018390Y-126386904D01*
X154018390Y-126386904D02*
X154589819Y-126958332D01*
X154589819Y-126958332D02*
X154589819Y-126339285D01*
X148421666Y-107349819D02*
X148421666Y-108064104D01*
X148421666Y-108064104D02*
X148374047Y-108206961D01*
X148374047Y-108206961D02*
X148278809Y-108302200D01*
X148278809Y-108302200D02*
X148135952Y-108349819D01*
X148135952Y-108349819D02*
X148040714Y-108349819D01*
X148802619Y-107349819D02*
X149421666Y-107349819D01*
X149421666Y-107349819D02*
X149088333Y-107730771D01*
X149088333Y-107730771D02*
X149231190Y-107730771D01*
X149231190Y-107730771D02*
X149326428Y-107778390D01*
X149326428Y-107778390D02*
X149374047Y-107826009D01*
X149374047Y-107826009D02*
X149421666Y-107921247D01*
X149421666Y-107921247D02*
X149421666Y-108159342D01*
X149421666Y-108159342D02*
X149374047Y-108254580D01*
X149374047Y-108254580D02*
X149326428Y-108302200D01*
X149326428Y-108302200D02*
X149231190Y-108349819D01*
X149231190Y-108349819D02*
X148945476Y-108349819D01*
X148945476Y-108349819D02*
X148850238Y-108302200D01*
X148850238Y-108302200D02*
X148802619Y-108254580D01*
X140393095Y-126204819D02*
X140393095Y-127014342D01*
X140393095Y-127014342D02*
X140440714Y-127109580D01*
X140440714Y-127109580D02*
X140488333Y-127157200D01*
X140488333Y-127157200D02*
X140583571Y-127204819D01*
X140583571Y-127204819D02*
X140774047Y-127204819D01*
X140774047Y-127204819D02*
X140869285Y-127157200D01*
X140869285Y-127157200D02*
X140916904Y-127109580D01*
X140916904Y-127109580D02*
X140964523Y-127014342D01*
X140964523Y-127014342D02*
X140964523Y-126204819D01*
X141964523Y-127204819D02*
X141393095Y-127204819D01*
X141678809Y-127204819D02*
X141678809Y-126204819D01*
X141678809Y-126204819D02*
X141583571Y-126347676D01*
X141583571Y-126347676D02*
X141488333Y-126442914D01*
X141488333Y-126442914D02*
X141393095Y-126490533D01*
X145804819Y-123608333D02*
X146519104Y-123608333D01*
X146519104Y-123608333D02*
X146661961Y-123655952D01*
X146661961Y-123655952D02*
X146757200Y-123751190D01*
X146757200Y-123751190D02*
X146804819Y-123894047D01*
X146804819Y-123894047D02*
X146804819Y-123989285D01*
X145900057Y-123179761D02*
X145852438Y-123132142D01*
X145852438Y-123132142D02*
X145804819Y-123036904D01*
X145804819Y-123036904D02*
X145804819Y-122798809D01*
X145804819Y-122798809D02*
X145852438Y-122703571D01*
X145852438Y-122703571D02*
X145900057Y-122655952D01*
X145900057Y-122655952D02*
X145995295Y-122608333D01*
X145995295Y-122608333D02*
X146090533Y-122608333D01*
X146090533Y-122608333D02*
X146233390Y-122655952D01*
X146233390Y-122655952D02*
X146804819Y-123227380D01*
X146804819Y-123227380D02*
X146804819Y-122608333D01*
X121924819Y-125451904D02*
X122734342Y-125451904D01*
X122734342Y-125451904D02*
X122829580Y-125404285D01*
X122829580Y-125404285D02*
X122877200Y-125356666D01*
X122877200Y-125356666D02*
X122924819Y-125261428D01*
X122924819Y-125261428D02*
X122924819Y-125070952D01*
X122924819Y-125070952D02*
X122877200Y-124975714D01*
X122877200Y-124975714D02*
X122829580Y-124928095D01*
X122829580Y-124928095D02*
X122734342Y-124880476D01*
X122734342Y-124880476D02*
X121924819Y-124880476D01*
X122020057Y-124451904D02*
X121972438Y-124404285D01*
X121972438Y-124404285D02*
X121924819Y-124309047D01*
X121924819Y-124309047D02*
X121924819Y-124070952D01*
X121924819Y-124070952D02*
X121972438Y-123975714D01*
X121972438Y-123975714D02*
X122020057Y-123928095D01*
X122020057Y-123928095D02*
X122115295Y-123880476D01*
X122115295Y-123880476D02*
X122210533Y-123880476D01*
X122210533Y-123880476D02*
X122353390Y-123928095D01*
X122353390Y-123928095D02*
X122924819Y-124499523D01*
X122924819Y-124499523D02*
X122924819Y-123880476D01*
X150546667Y-127607200D02*
X150689524Y-127654819D01*
X150689524Y-127654819D02*
X150927619Y-127654819D01*
X150927619Y-127654819D02*
X151022857Y-127607200D01*
X151022857Y-127607200D02*
X151070476Y-127559580D01*
X151070476Y-127559580D02*
X151118095Y-127464342D01*
X151118095Y-127464342D02*
X151118095Y-127369104D01*
X151118095Y-127369104D02*
X151070476Y-127273866D01*
X151070476Y-127273866D02*
X151022857Y-127226247D01*
X151022857Y-127226247D02*
X150927619Y-127178628D01*
X150927619Y-127178628D02*
X150737143Y-127131009D01*
X150737143Y-127131009D02*
X150641905Y-127083390D01*
X150641905Y-127083390D02*
X150594286Y-127035771D01*
X150594286Y-127035771D02*
X150546667Y-126940533D01*
X150546667Y-126940533D02*
X150546667Y-126845295D01*
X150546667Y-126845295D02*
X150594286Y-126750057D01*
X150594286Y-126750057D02*
X150641905Y-126702438D01*
X150641905Y-126702438D02*
X150737143Y-126654819D01*
X150737143Y-126654819D02*
X150975238Y-126654819D01*
X150975238Y-126654819D02*
X151118095Y-126702438D01*
X151451429Y-126654819D02*
X151689524Y-127654819D01*
X151689524Y-127654819D02*
X151880000Y-126940533D01*
X151880000Y-126940533D02*
X152070476Y-127654819D01*
X152070476Y-127654819D02*
X152308572Y-126654819D01*
X153213333Y-127654819D02*
X152641905Y-127654819D01*
X152927619Y-127654819D02*
X152927619Y-126654819D01*
X152927619Y-126654819D02*
X152832381Y-126797676D01*
X152832381Y-126797676D02*
X152737143Y-126892914D01*
X152737143Y-126892914D02*
X152641905Y-126940533D01*
X128571666Y-126354819D02*
X128571666Y-127069104D01*
X128571666Y-127069104D02*
X128524047Y-127211961D01*
X128524047Y-127211961D02*
X128428809Y-127307200D01*
X128428809Y-127307200D02*
X128285952Y-127354819D01*
X128285952Y-127354819D02*
X128190714Y-127354819D01*
X129571666Y-127354819D02*
X129000238Y-127354819D01*
X129285952Y-127354819D02*
X129285952Y-126354819D01*
X129285952Y-126354819D02*
X129190714Y-126497676D01*
X129190714Y-126497676D02*
X129095476Y-126592914D01*
X129095476Y-126592914D02*
X129000238Y-126640533D01*
X152888333Y-116854819D02*
X152555000Y-116378628D01*
X152316905Y-116854819D02*
X152316905Y-115854819D01*
X152316905Y-115854819D02*
X152697857Y-115854819D01*
X152697857Y-115854819D02*
X152793095Y-115902438D01*
X152793095Y-115902438D02*
X152840714Y-115950057D01*
X152840714Y-115950057D02*
X152888333Y-116045295D01*
X152888333Y-116045295D02*
X152888333Y-116188152D01*
X152888333Y-116188152D02*
X152840714Y-116283390D01*
X152840714Y-116283390D02*
X152793095Y-116331009D01*
X152793095Y-116331009D02*
X152697857Y-116378628D01*
X152697857Y-116378628D02*
X152316905Y-116378628D01*
X153745476Y-116188152D02*
X153745476Y-116854819D01*
X153507381Y-115807200D02*
X153269286Y-116521485D01*
X153269286Y-116521485D02*
X153888333Y-116521485D01*
X112446666Y-107484819D02*
X112446666Y-108199104D01*
X112446666Y-108199104D02*
X112399047Y-108341961D01*
X112399047Y-108341961D02*
X112303809Y-108437200D01*
X112303809Y-108437200D02*
X112160952Y-108484819D01*
X112160952Y-108484819D02*
X112065714Y-108484819D01*
X113399047Y-107484819D02*
X112922857Y-107484819D01*
X112922857Y-107484819D02*
X112875238Y-107961009D01*
X112875238Y-107961009D02*
X112922857Y-107913390D01*
X112922857Y-107913390D02*
X113018095Y-107865771D01*
X113018095Y-107865771D02*
X113256190Y-107865771D01*
X113256190Y-107865771D02*
X113351428Y-107913390D01*
X113351428Y-107913390D02*
X113399047Y-107961009D01*
X113399047Y-107961009D02*
X113446666Y-108056247D01*
X113446666Y-108056247D02*
X113446666Y-108294342D01*
X113446666Y-108294342D02*
X113399047Y-108389580D01*
X113399047Y-108389580D02*
X113351428Y-108437200D01*
X113351428Y-108437200D02*
X113256190Y-108484819D01*
X113256190Y-108484819D02*
X113018095Y-108484819D01*
X113018095Y-108484819D02*
X112922857Y-108437200D01*
X112922857Y-108437200D02*
X112875238Y-108389580D01*
X116596666Y-107484819D02*
X116596666Y-108199104D01*
X116596666Y-108199104D02*
X116549047Y-108341961D01*
X116549047Y-108341961D02*
X116453809Y-108437200D01*
X116453809Y-108437200D02*
X116310952Y-108484819D01*
X116310952Y-108484819D02*
X116215714Y-108484819D01*
X117501428Y-107484819D02*
X117310952Y-107484819D01*
X117310952Y-107484819D02*
X117215714Y-107532438D01*
X117215714Y-107532438D02*
X117168095Y-107580057D01*
X117168095Y-107580057D02*
X117072857Y-107722914D01*
X117072857Y-107722914D02*
X117025238Y-107913390D01*
X117025238Y-107913390D02*
X117025238Y-108294342D01*
X117025238Y-108294342D02*
X117072857Y-108389580D01*
X117072857Y-108389580D02*
X117120476Y-108437200D01*
X117120476Y-108437200D02*
X117215714Y-108484819D01*
X117215714Y-108484819D02*
X117406190Y-108484819D01*
X117406190Y-108484819D02*
X117501428Y-108437200D01*
X117501428Y-108437200D02*
X117549047Y-108389580D01*
X117549047Y-108389580D02*
X117596666Y-108294342D01*
X117596666Y-108294342D02*
X117596666Y-108056247D01*
X117596666Y-108056247D02*
X117549047Y-107961009D01*
X117549047Y-107961009D02*
X117501428Y-107913390D01*
X117501428Y-107913390D02*
X117406190Y-107865771D01*
X117406190Y-107865771D02*
X117215714Y-107865771D01*
X117215714Y-107865771D02*
X117120476Y-107913390D01*
X117120476Y-107913390D02*
X117072857Y-107961009D01*
X117072857Y-107961009D02*
X117025238Y-108056247D01*
X116850833Y-124204819D02*
X116517500Y-123728628D01*
X116279405Y-124204819D02*
X116279405Y-123204819D01*
X116279405Y-123204819D02*
X116660357Y-123204819D01*
X116660357Y-123204819D02*
X116755595Y-123252438D01*
X116755595Y-123252438D02*
X116803214Y-123300057D01*
X116803214Y-123300057D02*
X116850833Y-123395295D01*
X116850833Y-123395295D02*
X116850833Y-123538152D01*
X116850833Y-123538152D02*
X116803214Y-123633390D01*
X116803214Y-123633390D02*
X116755595Y-123681009D01*
X116755595Y-123681009D02*
X116660357Y-123728628D01*
X116660357Y-123728628D02*
X116279405Y-123728628D01*
X117803214Y-124204819D02*
X117231786Y-124204819D01*
X117517500Y-124204819D02*
X117517500Y-123204819D01*
X117517500Y-123204819D02*
X117422262Y-123347676D01*
X117422262Y-123347676D02*
X117327024Y-123442914D01*
X117327024Y-123442914D02*
X117231786Y-123490533D01*
%TO.C,C3*%
D12*
X115570000Y-121436252D02*
X115570000Y-120913748D01*
X117040000Y-121436252D02*
X117040000Y-120913748D01*
%TO.C,SW2*%
X113680000Y-130900000D02*
X113680000Y-132400000D01*
X114930000Y-134900000D02*
X119430000Y-134900000D01*
X119430000Y-128400000D02*
X114930000Y-128400000D01*
X120680000Y-132400000D02*
X120680000Y-130900000D01*
%TO.C,R3*%
X152827936Y-114365000D02*
X153282064Y-114365000D01*
X152827936Y-115835000D02*
X153282064Y-115835000D01*
%TO.C,R2*%
X152827936Y-111415000D02*
X153282064Y-111415000D01*
X152827936Y-112885000D02*
X153282064Y-112885000D01*
%TO.C,R5*%
X152827936Y-108790000D02*
X153282064Y-108790000D01*
X152827936Y-110260000D02*
X153282064Y-110260000D01*
%TO.C,J4*%
X119600000Y-109055000D02*
X120980000Y-109055000D01*
X119600000Y-110435000D02*
X119600000Y-109055000D01*
X119600000Y-111705000D02*
X119600000Y-124515000D01*
X119600000Y-111705000D02*
X122360000Y-111705000D01*
X119600000Y-124515000D02*
X122360000Y-124515000D01*
X122360000Y-111705000D02*
X122360000Y-124515000D01*
%TO.C,C1*%
X112618748Y-124590000D02*
X113141252Y-124590000D01*
X112618748Y-126060000D02*
X113141252Y-126060000D01*
%TO.C,C2*%
X112560000Y-121436252D02*
X112560000Y-120913748D01*
X114030000Y-121436252D02*
X114030000Y-120913748D01*
%TO.C,J3*%
X147375000Y-108895000D02*
X148755000Y-108895000D01*
X147375000Y-110275000D02*
X147375000Y-108895000D01*
X147375000Y-111545000D02*
X147375000Y-119275000D01*
X147375000Y-111545000D02*
X150135000Y-111545000D01*
X147375000Y-119275000D02*
X150135000Y-119275000D01*
X150135000Y-111545000D02*
X150135000Y-119275000D01*
%TO.C,U1*%
X139305000Y-127840000D02*
X143065000Y-127840000D01*
X139305000Y-134660000D02*
X143065000Y-134660000D01*
X143065000Y-127840000D02*
X143065000Y-129100000D01*
X143065000Y-134660000D02*
X143065000Y-133400000D01*
X138025000Y-127940000D02*
X137785000Y-127610000D01*
X138265000Y-127610000D01*
X138025000Y-127940000D01*
G36*
X138025000Y-127940000D02*
G01*
X137785000Y-127610000D01*
X138265000Y-127610000D01*
X138025000Y-127940000D01*
G37*
%TO.C,J2*%
X147350000Y-124655000D02*
X147350000Y-123275000D01*
X148730000Y-124655000D02*
X147350000Y-124655000D01*
X150000000Y-121895000D02*
X155190000Y-121895000D01*
X150000000Y-124655000D02*
X150000000Y-121895000D01*
X150000000Y-124655000D02*
X155190000Y-124655000D01*
X155190000Y-124655000D02*
X155190000Y-121895000D01*
%TO.C,U2*%
X123960000Y-100400000D02*
X123960000Y-106560000D01*
X123960000Y-100400000D02*
X142200000Y-100400000D01*
X123960000Y-125360000D02*
X123960000Y-126140000D01*
X123960000Y-126140000D02*
X124960000Y-126140000D01*
X142200000Y-100400000D02*
X142200000Y-106815000D01*
X142200000Y-125360000D02*
X142200000Y-126140000D01*
X142200000Y-126140000D02*
X141200000Y-126140000D01*
X123955000Y-107285000D02*
X123455000Y-107285000D01*
X123955000Y-106785000D01*
X123955000Y-107285000D01*
G36*
X123955000Y-107285000D02*
G01*
X123455000Y-107285000D01*
X123955000Y-106785000D01*
X123955000Y-107285000D01*
G37*
%TO.C,SW1*%
X148380000Y-130700000D02*
X148380000Y-132200000D01*
X149630000Y-134700000D02*
X154130000Y-134700000D01*
X154130000Y-128200000D02*
X149630000Y-128200000D01*
X155380000Y-132200000D02*
X155380000Y-130700000D01*
%TO.C,J1*%
X124235000Y-132300000D02*
X124235000Y-130600000D01*
X133575000Y-132300000D02*
X133575000Y-130600000D01*
%TO.C,R4*%
X152827936Y-117315000D02*
X153282064Y-117315000D01*
X152827936Y-118785000D02*
X153282064Y-118785000D01*
%TO.C,J5*%
X111400000Y-109030000D02*
X112780000Y-109030000D01*
X111400000Y-110410000D02*
X111400000Y-109030000D01*
X111400000Y-111680000D02*
X111400000Y-116870000D01*
X111400000Y-111680000D02*
X114160000Y-111680000D01*
X111400000Y-116870000D02*
X114160000Y-116870000D01*
X114160000Y-111680000D02*
X114160000Y-116870000D01*
%TO.C,J6*%
X115550000Y-109030000D02*
X116930000Y-109030000D01*
X115550000Y-110410000D02*
X115550000Y-109030000D01*
X115550000Y-111680000D02*
X115550000Y-116870000D01*
X115550000Y-111680000D02*
X118310000Y-111680000D01*
X115550000Y-116870000D02*
X118310000Y-116870000D01*
X118310000Y-111680000D02*
X118310000Y-116870000D01*
%TO.C,R1*%
X116790436Y-124665000D02*
X117244564Y-124665000D01*
X116790436Y-126135000D02*
X117244564Y-126135000D01*
%TD*%
M02*
