M48
; DRILL file KiCad 10.0.0 date 2026-07-12T02:42:34
; FORMAT={-:-/ absolute / metric / decimal}
; #@! TF.CreationDate,2026-07-12T02:42:34+05:30
; #@! TF.GenerationSoftware,Kicad,Pcbnew,10.0.0
; #@! TF.FileFunction,Plated,1,4,PTH
FMAT,2
METRIC
; #@! TA.AperFunction,Plated,PTH,ComponentDrill
T1C0.200
; #@! TA.AperFunction,Plated,PTH,ViaDrill
T2C0.300
; #@! TA.AperFunction,Plated,PTH,ComponentDrill
T3C0.600
; #@! TA.AperFunction,Plated,PTH,ComponentDrill
T4C1.000
; #@! TA.AperFunction,Plated,PTH,ComponentDrill
T5C1.100
%
G90
G05
T1
X130.875Y-114.587
X130.875Y-116.112
X131.637Y-113.825
X131.637Y-115.35
X131.637Y-116.875
X132.4Y-114.587
X132.4Y-116.112
X133.162Y-113.825
X133.162Y-115.35
X133.162Y-116.875
X133.925Y-114.587
X133.925Y-116.112
T2
X113.863Y-124.076
X123.073Y-115.425
X126.57Y-123.275
X127.375Y-122.064
X127.655Y-129.815
X138.911Y-116.106
X139.548Y-133.283
X140.568Y-111.82
X143.383Y-110.88
X144.524Y-124.889
X150.617Y-112.176
X152.142Y-113.426
X152.481Y-116.311
X153.968Y-113.381
T4
X112.78Y-110.41
X112.78Y-112.95
X112.78Y-115.49
X116.93Y-110.41
X116.93Y-112.95
X116.93Y-115.49
X120.98Y-110.435
X120.98Y-112.975
X120.98Y-115.515
X120.98Y-118.055
X120.98Y-120.595
X120.98Y-123.135
X148.73Y-123.275
X148.755Y-110.275
X148.755Y-112.815
X148.755Y-115.355
X148.755Y-117.895
X151.27Y-123.275
X153.81Y-123.275
T5
X113.93Y-129.4
X113.93Y-133.9
X120.43Y-129.4
X120.43Y-133.9
X148.63Y-129.2
X148.63Y-133.7
X155.13Y-129.2
X155.13Y-133.7
T3
G00X124.585Y-128.745
M15
G01X124.585Y-129.845
M16
G05
G00X124.585Y-133.075
M15
G01X124.585Y-133.875
M16
G05
G00X133.225Y-128.745
M15
G01X133.225Y-129.845
M16
G05
G00X133.225Y-133.075
M15
G01X133.225Y-133.875
M16
G05
M30
