%TF.GenerationSoftware,KiCad,Pcbnew,10.0.0*%
%TF.CreationDate,2026-07-12T02:42:37+05:30*%
%TF.ProjectId,water monitor,77617465-7220-46d6-9f6e-69746f722e6b,rev?*%
%TF.SameCoordinates,Original*%
%TF.FileFunction,Copper,L3,Inr*%
%TF.FilePolarity,Positive*%
%FSLAX46Y46*%
G04 Gerber Fmt 4.6, Leading zero omitted, Abs format (unit mm)*
G04 Created by KiCad (PCBNEW 10.0.0) date 2026-07-12 02:42:37*
%MOMM*%
%LPD*%
G01*
G04 APERTURE LIST*
%TA.AperFunction,ComponentPad*%
%ADD10C,2.000000*%
%TD*%
%TA.AperFunction,ComponentPad*%
%ADD11R,1.700000X1.700000*%
%TD*%
%TA.AperFunction,ComponentPad*%
%ADD12C,1.700000*%
%TD*%
%TA.AperFunction,HeatsinkPad*%
%ADD13C,0.600000*%
%TD*%
%TA.AperFunction,ComponentPad*%
%ADD14O,1.000000X2.100000*%
%TD*%
%TA.AperFunction,ComponentPad*%
%ADD15O,1.000000X1.800000*%
%TD*%
%TA.AperFunction,ViaPad*%
%ADD16C,0.600000*%
%TD*%
%TA.AperFunction,Conductor*%
%ADD17C,0.200000*%
%TD*%
G04 APERTURE END LIST*
D10*
%TO.N,GND*%
%TO.C,SW2*%
X113930000Y-129400000D03*
X120430000Y-129400000D03*
%TO.N,/IO0*%
X113930000Y-133900000D03*
X120430000Y-133900000D03*
%TD*%
D11*
%TO.N,+3V3*%
%TO.C,J4*%
X120980000Y-110435000D03*
D12*
%TO.N,GND*%
X120980000Y-112975000D03*
%TO.N,/TXD0*%
X120980000Y-115515000D03*
%TO.N,/RXD0*%
X120980000Y-118055000D03*
%TO.N,/EN*%
X120980000Y-120595000D03*
%TO.N,/IO0*%
X120980000Y-123135000D03*
%TD*%
D11*
%TO.N,+3V3*%
%TO.C,J3*%
X148755000Y-110275000D03*
D12*
%TO.N,GND*%
X148755000Y-112815000D03*
%TO.N,/SDA*%
X148755000Y-115355000D03*
%TO.N,/SCL*%
X148755000Y-117895000D03*
%TD*%
D11*
%TO.N,/5V*%
%TO.C,J2*%
X148730000Y-123275000D03*
D12*
%TO.N,GND*%
X151270000Y-123275000D03*
%TO.N,/PH_ADC*%
X153810000Y-123275000D03*
%TD*%
D13*
%TO.N,GND*%
%TO.C,U2*%
X130875000Y-114587500D03*
X130875000Y-116112500D03*
X131637500Y-113825000D03*
X131637500Y-115350000D03*
X131637500Y-116875000D03*
X132400000Y-114587500D03*
X132400000Y-116112500D03*
X133162500Y-113825000D03*
X133162500Y-115350000D03*
X133162500Y-116875000D03*
X133925000Y-114587500D03*
X133925000Y-116112500D03*
%TD*%
D10*
%TO.N,GND*%
%TO.C,SW1*%
X148630000Y-129200000D03*
X155130000Y-129200000D03*
%TO.N,/EN*%
X148630000Y-133700000D03*
X155130000Y-133700000D03*
%TD*%
D14*
%TO.N,GND*%
%TO.C,J1*%
X124585000Y-129295000D03*
D15*
X124585000Y-133475000D03*
D14*
X133225000Y-129295000D03*
D15*
X133225000Y-133475000D03*
%TD*%
D11*
%TO.N,/5V*%
%TO.C,J5*%
X112780000Y-110410000D03*
D12*
%TO.N,GND*%
X112780000Y-112950000D03*
%TO.N,/TURB_ADC*%
X112780000Y-115490000D03*
%TD*%
D11*
%TO.N,+3V3*%
%TO.C,J6*%
X116930000Y-110410000D03*
D12*
%TO.N,Net-(J6-Pin_2)*%
X116930000Y-112950000D03*
%TO.N,GND*%
X116930000Y-115490000D03*
%TD*%
D16*
%TO.N,GND*%
X153967500Y-113380800D03*
%TO.N,/IO0*%
X144523700Y-124888600D03*
%TO.N,/EN*%
X152481400Y-116311400D03*
%TO.N,Net-(J1-CC1)*%
X127655000Y-129814900D03*
X152142500Y-113426100D03*
%TO.N,Net-(J6-Pin_2)*%
X150617000Y-112176100D03*
%TO.N,/TXD0*%
X140568200Y-111820000D03*
%TO.N,/RXD0*%
X138911000Y-116106000D03*
%TO.N,/5V*%
X126570300Y-123275000D03*
X113863400Y-124076500D03*
X139547800Y-133282600D03*
%TO.N,/SCL*%
X143383000Y-110880300D03*
%TO.N,/PH_ADC*%
X127375400Y-122064400D03*
%TO.N,/TURB_ADC*%
X123073300Y-115425000D03*
%TD*%
%TO.N,GND*%
D17*
X133162500Y-116875000D02*
X133225000Y-116937500D01*
X148755000Y-112815000D02*
X151270000Y-115330000D01*
X151270000Y-123275000D02*
X151270000Y-126560000D01*
X133225000Y-116937500D02*
X133225000Y-129295000D01*
X133225000Y-133475000D02*
X133225000Y-129295000D01*
X151270000Y-126560000D02*
X148630000Y-129200000D01*
X151270000Y-115330000D02*
X151270000Y-123275000D01*
X124585000Y-133475000D02*
X124585000Y-129295000D01*
%TO.N,/IO0*%
X121757500Y-132572500D02*
X120430000Y-133900000D01*
X120980000Y-123135000D02*
X121757500Y-123912500D01*
X121757500Y-123912500D02*
X121757500Y-132572500D01*
%TO.N,/EN*%
X155130000Y-133700000D02*
X152481400Y-131051400D01*
X152481400Y-131051400D02*
X152481400Y-116311400D01*
%TO.N,/5V*%
X113987300Y-123952600D02*
X113863400Y-124076500D01*
X113067900Y-111561700D02*
X113987300Y-112481100D01*
X112780000Y-110410000D02*
X112780000Y-111561700D01*
X113987300Y-112481100D02*
X113987300Y-123952600D01*
X112780000Y-111561700D02*
X113067900Y-111561700D01*
X148730000Y-124426700D02*
X148403700Y-124426700D01*
X148403700Y-124426700D02*
X139547800Y-133282600D01*
X148730000Y-123275000D02*
X148730000Y-124426700D01*
%TO.N,/SCL*%
X148755000Y-117895000D02*
X143383000Y-112523000D01*
X143383000Y-112523000D02*
X143383000Y-110880300D01*
%TD*%
M02*
