%TF.GenerationSoftware,KiCad,Pcbnew,10.0.0*%
%TF.CreationDate,2026-07-12T02:42:37+05:30*%
%TF.ProjectId,water monitor,77617465-7220-46d6-9f6e-69746f722e6b,rev?*%
%TF.SameCoordinates,Original*%
%TF.FileFunction,Copper,L4,Bot*%
%TF.FilePolarity,Positive*%
%FSLAX46Y46*%
G04 Gerber Fmt 4.6, Leading zero omitted, Abs format (unit mm)*
G04 Created by KiCad (PCBNEW 10.0.0) date 2026-07-12 02:42:37*
%MOMM*%
%LPD*%
G01*
G04 APERTURE LIST*
%TA.AperFunction,ComponentPad*%
%ADD10C,2.000000*%
%TD*%
%TA.AperFunction,ComponentPad*%
%ADD11R,1.700000X1.700000*%
%TD*%
%TA.AperFunction,ComponentPad*%
%ADD12C,1.700000*%
%TD*%
%TA.AperFunction,HeatsinkPad*%
%ADD13C,0.600000*%
%TD*%
%TA.AperFunction,ComponentPad*%
%ADD14O,1.000000X2.100000*%
%TD*%
%TA.AperFunction,ComponentPad*%
%ADD15O,1.000000X1.800000*%
%TD*%
%TA.AperFunction,ViaPad*%
%ADD16C,0.600000*%
%TD*%
G04 APERTURE END LIST*
D10*
%TO.P,SW2,1,1_1*%
%TO.N,GND*%
X113930000Y-129400000D03*
X120430000Y-129400000D03*
%TO.P,SW2,2,2_2*%
%TO.N,/IO0*%
X113930000Y-133900000D03*
X120430000Y-133900000D03*
%TD*%
D11*
%TO.P,J4,1,Pin_1_1*%
%TO.N,+3V3*%
X120980000Y-110435000D03*
D12*
%TO.P,J4,2,Pin_2_2*%
%TO.N,GND*%
X120980000Y-112975000D03*
%TO.P,J4,3,Pin_3_3*%
%TO.N,/TXD0*%
X120980000Y-115515000D03*
%TO.P,J4,4,Pin_4_4*%
%TO.N,/RXD0*%
X120980000Y-118055000D03*
%TO.P,J4,5,Pin_5_5*%
%TO.N,/EN*%
X120980000Y-120595000D03*
%TO.P,J4,6,Pin_6_6*%
%TO.N,/IO0*%
X120980000Y-123135000D03*
%TD*%
D11*
%TO.P,J3,1,Pin_1_1*%
%TO.N,+3V3*%
X148755000Y-110275000D03*
D12*
%TO.P,J3,2,Pin_2_2*%
%TO.N,GND*%
X148755000Y-112815000D03*
%TO.P,J3,3,Pin_3_3*%
%TO.N,/SDA*%
X148755000Y-115355000D03*
%TO.P,J3,4,Pin_4_4*%
%TO.N,/SCL*%
X148755000Y-117895000D03*
%TD*%
D11*
%TO.P,J2,1,Pin_1_1*%
%TO.N,/5V*%
X148730000Y-123275000D03*
D12*
%TO.P,J2,2,Pin_2_2*%
%TO.N,GND*%
X151270000Y-123275000D03*
%TO.P,J2,3,Pin_3_3*%
%TO.N,/PH_ADC*%
X153810000Y-123275000D03*
%TD*%
D13*
%TO.P,U2,39,GND_39*%
%TO.N,GND*%
X130875000Y-114587500D03*
X130875000Y-116112500D03*
X131637500Y-113825000D03*
X131637500Y-115350000D03*
X131637500Y-116875000D03*
X132400000Y-114587500D03*
X132400000Y-116112500D03*
X133162500Y-113825000D03*
X133162500Y-115350000D03*
X133162500Y-116875000D03*
X133925000Y-114587500D03*
X133925000Y-116112500D03*
%TD*%
D10*
%TO.P,SW1,1,1_1*%
%TO.N,GND*%
X148630000Y-129200000D03*
X155130000Y-129200000D03*
%TO.P,SW1,2,2_2*%
%TO.N,/EN*%
X148630000Y-133700000D03*
X155130000Y-133700000D03*
%TD*%
D14*
%TO.P,J1,SH,SHIELD_SH*%
%TO.N,GND*%
X124585000Y-129295000D03*
D15*
X124585000Y-133475000D03*
D14*
X133225000Y-129295000D03*
D15*
X133225000Y-133475000D03*
%TD*%
D11*
%TO.P,J5,1,Pin_1_1*%
%TO.N,/5V*%
X112780000Y-110410000D03*
D12*
%TO.P,J5,2,Pin_2_2*%
%TO.N,GND*%
X112780000Y-112950000D03*
%TO.P,J5,3,Pin_3_3*%
%TO.N,/TURB_ADC*%
X112780000Y-115490000D03*
%TD*%
D11*
%TO.P,J6,1,Pin_1_1*%
%TO.N,+3V3*%
X116930000Y-110410000D03*
D12*
%TO.P,J6,2,Pin_2_2*%
%TO.N,Net-(J6-Pin_2)*%
X116930000Y-112950000D03*
%TO.P,J6,3,Pin_3_3*%
%TO.N,GND*%
X116930000Y-115490000D03*
%TD*%
D16*
%TO.N,GND*%
X153967500Y-113380800D03*
%TO.N,/IO0*%
X144523700Y-124888600D03*
%TO.N,/EN*%
X152481400Y-116311400D03*
%TO.N,Net-(J1-CC1)*%
X127655000Y-129814900D03*
X152142500Y-113426100D03*
%TO.N,Net-(J6-Pin_2)*%
X150617000Y-112176100D03*
%TO.N,/TXD0*%
X140568200Y-111820000D03*
%TO.N,/RXD0*%
X138911000Y-116106000D03*
%TO.N,/5V*%
X126570300Y-123275000D03*
X113863400Y-124076500D03*
X139547800Y-133282600D03*
%TO.N,/SCL*%
X143383000Y-110880300D03*
%TO.N,/PH_ADC*%
X127375400Y-122064400D03*
%TO.N,/TURB_ADC*%
X123073300Y-115425000D03*
%TD*%
M02*
